G04 #@! TF.GenerationSoftware,KiCad,Pcbnew,(5.1.2-1)-1*
G04 #@! TF.CreationDate,2019-07-06T18:38:22+02:00*
G04 #@! TF.ProjectId,servonoid,73657276-6f6e-46f6-9964-2e6b69636164,rev?*
G04 #@! TF.SameCoordinates,Original*
G04 #@! TF.FileFunction,Legend,Bot*
G04 #@! TF.FilePolarity,Positive*
%FSLAX46Y46*%
G04 Gerber Fmt 4.6, Leading zero omitted, Abs format (unit mm)*
G04 Created by KiCad (PCBNEW (5.1.2-1)-1) date 2019-07-06 18:38:22*
%MOMM*%
%LPD*%
G04 APERTURE LIST*
%ADD10C,0.120000*%
%ADD11C,0.150000*%
G04 APERTURE END LIST*
D10*
X168654000Y-114838267D02*
X168654000Y-114495733D01*
X169674000Y-114838267D02*
X169674000Y-114495733D01*
X135224733Y-96395000D02*
X135567267Y-96395000D01*
X135224733Y-95375000D02*
X135567267Y-95375000D01*
X159510000Y-110012267D02*
X159510000Y-109669733D01*
X160530000Y-110012267D02*
X160530000Y-109669733D01*
X144584267Y-103884000D02*
X144241733Y-103884000D01*
X144584267Y-104904000D02*
X144241733Y-104904000D01*
X160530000Y-114269733D02*
X160530000Y-114612267D01*
X159510000Y-114269733D02*
X159510000Y-114612267D01*
X157421733Y-105920000D02*
X157764267Y-105920000D01*
X157421733Y-104900000D02*
X157764267Y-104900000D01*
X144016000Y-118930267D02*
X144016000Y-118587733D01*
X145036000Y-118930267D02*
X145036000Y-118587733D01*
X158554267Y-120394000D02*
X158211733Y-120394000D01*
X158554267Y-121414000D02*
X158211733Y-121414000D01*
X154490267Y-94994000D02*
X154147733Y-94994000D01*
X154490267Y-96014000D02*
X154147733Y-96014000D01*
D11*
X171172142Y-114927142D02*
X171219761Y-114879523D01*
X171267380Y-114736666D01*
X171267380Y-114641428D01*
X171219761Y-114498571D01*
X171124523Y-114403333D01*
X171029285Y-114355714D01*
X170838809Y-114308095D01*
X170695952Y-114308095D01*
X170505476Y-114355714D01*
X170410238Y-114403333D01*
X170315000Y-114498571D01*
X170267380Y-114641428D01*
X170267380Y-114736666D01*
X170315000Y-114879523D01*
X170362619Y-114927142D01*
X171267380Y-115879523D02*
X171267380Y-115308095D01*
X171267380Y-115593809D02*
X170267380Y-115593809D01*
X170410238Y-115498571D01*
X170505476Y-115403333D01*
X170553095Y-115308095D01*
X170695952Y-116450952D02*
X170648333Y-116355714D01*
X170600714Y-116308095D01*
X170505476Y-116260476D01*
X170457857Y-116260476D01*
X170362619Y-116308095D01*
X170315000Y-116355714D01*
X170267380Y-116450952D01*
X170267380Y-116641428D01*
X170315000Y-116736666D01*
X170362619Y-116784285D01*
X170457857Y-116831904D01*
X170505476Y-116831904D01*
X170600714Y-116784285D01*
X170648333Y-116736666D01*
X170695952Y-116641428D01*
X170695952Y-116450952D01*
X170743571Y-116355714D01*
X170791190Y-116308095D01*
X170886428Y-116260476D01*
X171076904Y-116260476D01*
X171172142Y-116308095D01*
X171219761Y-116355714D01*
X171267380Y-116450952D01*
X171267380Y-116641428D01*
X171219761Y-116736666D01*
X171172142Y-116784285D01*
X171076904Y-116831904D01*
X170886428Y-116831904D01*
X170791190Y-116784285D01*
X170743571Y-116736666D01*
X170695952Y-116641428D01*
X135562666Y-97672142D02*
X135610285Y-97719761D01*
X135753142Y-97767380D01*
X135848380Y-97767380D01*
X135991238Y-97719761D01*
X136086476Y-97624523D01*
X136134095Y-97529285D01*
X136181714Y-97338809D01*
X136181714Y-97195952D01*
X136134095Y-97005476D01*
X136086476Y-96910238D01*
X135991238Y-96815000D01*
X135848380Y-96767380D01*
X135753142Y-96767380D01*
X135610285Y-96815000D01*
X135562666Y-96862619D01*
X135229333Y-96767380D02*
X134610285Y-96767380D01*
X134943619Y-97148333D01*
X134800761Y-97148333D01*
X134705523Y-97195952D01*
X134657904Y-97243571D01*
X134610285Y-97338809D01*
X134610285Y-97576904D01*
X134657904Y-97672142D01*
X134705523Y-97719761D01*
X134800761Y-97767380D01*
X135086476Y-97767380D01*
X135181714Y-97719761D01*
X135229333Y-97672142D01*
X160186666Y-107672142D02*
X160234285Y-107719761D01*
X160377142Y-107767380D01*
X160472380Y-107767380D01*
X160615238Y-107719761D01*
X160710476Y-107624523D01*
X160758095Y-107529285D01*
X160805714Y-107338809D01*
X160805714Y-107195952D01*
X160758095Y-107005476D01*
X160710476Y-106910238D01*
X160615238Y-106815000D01*
X160472380Y-106767380D01*
X160377142Y-106767380D01*
X160234285Y-106815000D01*
X160186666Y-106862619D01*
X159853333Y-106767380D02*
X159186666Y-106767380D01*
X159615238Y-107767380D01*
X144579666Y-103321142D02*
X144627285Y-103368761D01*
X144770142Y-103416380D01*
X144865380Y-103416380D01*
X145008238Y-103368761D01*
X145103476Y-103273523D01*
X145151095Y-103178285D01*
X145198714Y-102987809D01*
X145198714Y-102844952D01*
X145151095Y-102654476D01*
X145103476Y-102559238D01*
X145008238Y-102464000D01*
X144865380Y-102416380D01*
X144770142Y-102416380D01*
X144627285Y-102464000D01*
X144579666Y-102511619D01*
X144008238Y-102844952D02*
X144103476Y-102797333D01*
X144151095Y-102749714D01*
X144198714Y-102654476D01*
X144198714Y-102606857D01*
X144151095Y-102511619D01*
X144103476Y-102464000D01*
X144008238Y-102416380D01*
X143817761Y-102416380D01*
X143722523Y-102464000D01*
X143674904Y-102511619D01*
X143627285Y-102606857D01*
X143627285Y-102654476D01*
X143674904Y-102749714D01*
X143722523Y-102797333D01*
X143817761Y-102844952D01*
X144008238Y-102844952D01*
X144103476Y-102892571D01*
X144151095Y-102940190D01*
X144198714Y-103035428D01*
X144198714Y-103225904D01*
X144151095Y-103321142D01*
X144103476Y-103368761D01*
X144008238Y-103416380D01*
X143817761Y-103416380D01*
X143722523Y-103368761D01*
X143674904Y-103321142D01*
X143627285Y-103225904D01*
X143627285Y-103035428D01*
X143674904Y-102940190D01*
X143722523Y-102892571D01*
X143817761Y-102844952D01*
X160377142Y-117308333D02*
X160424761Y-117260714D01*
X160472380Y-117117857D01*
X160472380Y-117022619D01*
X160424761Y-116879761D01*
X160329523Y-116784523D01*
X160234285Y-116736904D01*
X160043809Y-116689285D01*
X159900952Y-116689285D01*
X159710476Y-116736904D01*
X159615238Y-116784523D01*
X159520000Y-116879761D01*
X159472380Y-117022619D01*
X159472380Y-117117857D01*
X159520000Y-117260714D01*
X159567619Y-117308333D01*
X160472380Y-117784523D02*
X160472380Y-117975000D01*
X160424761Y-118070238D01*
X160377142Y-118117857D01*
X160234285Y-118213095D01*
X160043809Y-118260714D01*
X159662857Y-118260714D01*
X159567619Y-118213095D01*
X159520000Y-118165476D01*
X159472380Y-118070238D01*
X159472380Y-117879761D01*
X159520000Y-117784523D01*
X159567619Y-117736904D01*
X159662857Y-117689285D01*
X159900952Y-117689285D01*
X159996190Y-117736904D01*
X160043809Y-117784523D01*
X160091428Y-117879761D01*
X160091428Y-118070238D01*
X160043809Y-118165476D01*
X159996190Y-118213095D01*
X159900952Y-118260714D01*
X154947857Y-105767142D02*
X154995476Y-105814761D01*
X155138333Y-105862380D01*
X155233571Y-105862380D01*
X155376428Y-105814761D01*
X155471666Y-105719523D01*
X155519285Y-105624285D01*
X155566904Y-105433809D01*
X155566904Y-105290952D01*
X155519285Y-105100476D01*
X155471666Y-105005238D01*
X155376428Y-104910000D01*
X155233571Y-104862380D01*
X155138333Y-104862380D01*
X154995476Y-104910000D01*
X154947857Y-104957619D01*
X153995476Y-105862380D02*
X154566904Y-105862380D01*
X154281190Y-105862380D02*
X154281190Y-104862380D01*
X154376428Y-105005238D01*
X154471666Y-105100476D01*
X154566904Y-105148095D01*
X153376428Y-104862380D02*
X153281190Y-104862380D01*
X153185952Y-104910000D01*
X153138333Y-104957619D01*
X153090714Y-105052857D01*
X153043095Y-105243333D01*
X153043095Y-105481428D01*
X153090714Y-105671904D01*
X153138333Y-105767142D01*
X153185952Y-105814761D01*
X153281190Y-105862380D01*
X153376428Y-105862380D01*
X153471666Y-105814761D01*
X153519285Y-105767142D01*
X153566904Y-105671904D01*
X153614523Y-105481428D01*
X153614523Y-105243333D01*
X153566904Y-105052857D01*
X153519285Y-104957619D01*
X153471666Y-104910000D01*
X153376428Y-104862380D01*
X144787857Y-116562142D02*
X144835476Y-116609761D01*
X144978333Y-116657380D01*
X145073571Y-116657380D01*
X145216428Y-116609761D01*
X145311666Y-116514523D01*
X145359285Y-116419285D01*
X145406904Y-116228809D01*
X145406904Y-116085952D01*
X145359285Y-115895476D01*
X145311666Y-115800238D01*
X145216428Y-115705000D01*
X145073571Y-115657380D01*
X144978333Y-115657380D01*
X144835476Y-115705000D01*
X144787857Y-115752619D01*
X143835476Y-116657380D02*
X144406904Y-116657380D01*
X144121190Y-116657380D02*
X144121190Y-115657380D01*
X144216428Y-115800238D01*
X144311666Y-115895476D01*
X144406904Y-115943095D01*
X142883095Y-116657380D02*
X143454523Y-116657380D01*
X143168809Y-116657380D02*
X143168809Y-115657380D01*
X143264047Y-115800238D01*
X143359285Y-115895476D01*
X143454523Y-115943095D01*
X155582857Y-121007142D02*
X155630476Y-121054761D01*
X155773333Y-121102380D01*
X155868571Y-121102380D01*
X156011428Y-121054761D01*
X156106666Y-120959523D01*
X156154285Y-120864285D01*
X156201904Y-120673809D01*
X156201904Y-120530952D01*
X156154285Y-120340476D01*
X156106666Y-120245238D01*
X156011428Y-120150000D01*
X155868571Y-120102380D01*
X155773333Y-120102380D01*
X155630476Y-120150000D01*
X155582857Y-120197619D01*
X154630476Y-121102380D02*
X155201904Y-121102380D01*
X154916190Y-121102380D02*
X154916190Y-120102380D01*
X155011428Y-120245238D01*
X155106666Y-120340476D01*
X155201904Y-120388095D01*
X154249523Y-120197619D02*
X154201904Y-120150000D01*
X154106666Y-120102380D01*
X153868571Y-120102380D01*
X153773333Y-120150000D01*
X153725714Y-120197619D01*
X153678095Y-120292857D01*
X153678095Y-120388095D01*
X153725714Y-120530952D01*
X154297142Y-121102380D01*
X153678095Y-121102380D01*
X151772857Y-96242142D02*
X151820476Y-96289761D01*
X151963333Y-96337380D01*
X152058571Y-96337380D01*
X152201428Y-96289761D01*
X152296666Y-96194523D01*
X152344285Y-96099285D01*
X152391904Y-95908809D01*
X152391904Y-95765952D01*
X152344285Y-95575476D01*
X152296666Y-95480238D01*
X152201428Y-95385000D01*
X152058571Y-95337380D01*
X151963333Y-95337380D01*
X151820476Y-95385000D01*
X151772857Y-95432619D01*
X150820476Y-96337380D02*
X151391904Y-96337380D01*
X151106190Y-96337380D02*
X151106190Y-95337380D01*
X151201428Y-95480238D01*
X151296666Y-95575476D01*
X151391904Y-95623095D01*
X150487142Y-95337380D02*
X149820476Y-95337380D01*
X150249047Y-96337380D01*
M02*
