G04 #@! TF.GenerationSoftware,KiCad,Pcbnew,(5.1.2-1)-1*
G04 #@! TF.CreationDate,2019-07-06T18:38:22+02:00*
G04 #@! TF.ProjectId,servonoid,73657276-6f6e-46f6-9964-2e6b69636164,rev?*
G04 #@! TF.SameCoordinates,Original*
G04 #@! TF.FileFunction,Soldermask,Bot*
G04 #@! TF.FilePolarity,Negative*
%FSLAX46Y46*%
G04 Gerber Fmt 4.6, Leading zero omitted, Abs format (unit mm)*
G04 Created by KiCad (PCBNEW (5.1.2-1)-1) date 2019-07-06 18:38:22*
%MOMM*%
%LPD*%
G04 APERTURE LIST*
%ADD10C,0.100000*%
G04 APERTURE END LIST*
D10*
G36*
X172675880Y-124359776D02*
G01*
X173056593Y-124435504D01*
X173466249Y-124605189D01*
X173834929Y-124851534D01*
X174148466Y-125165071D01*
X174394811Y-125533751D01*
X174564496Y-125943407D01*
X174615336Y-126199000D01*
X174651000Y-126378295D01*
X174651000Y-126821705D01*
X174645924Y-126847222D01*
X174564496Y-127256593D01*
X174394811Y-127666249D01*
X174148466Y-128034929D01*
X173834929Y-128348466D01*
X173466249Y-128594811D01*
X173056593Y-128764496D01*
X172675880Y-128840224D01*
X172621705Y-128851000D01*
X172178295Y-128851000D01*
X172124120Y-128840224D01*
X171743407Y-128764496D01*
X171333751Y-128594811D01*
X170965071Y-128348466D01*
X170651534Y-128034929D01*
X170405189Y-127666249D01*
X170235504Y-127256593D01*
X170154076Y-126847222D01*
X170149000Y-126821705D01*
X170149000Y-126378295D01*
X170184664Y-126199000D01*
X170235504Y-125943407D01*
X170405189Y-125533751D01*
X170651534Y-125165071D01*
X170965071Y-124851534D01*
X171333751Y-124605189D01*
X171743407Y-124435504D01*
X172124120Y-124359776D01*
X172178295Y-124349000D01*
X172621705Y-124349000D01*
X172675880Y-124359776D01*
X172675880Y-124359776D01*
G37*
G36*
X132675880Y-124359776D02*
G01*
X133056593Y-124435504D01*
X133466249Y-124605189D01*
X133834929Y-124851534D01*
X134148466Y-125165071D01*
X134394811Y-125533751D01*
X134564496Y-125943407D01*
X134615336Y-126199000D01*
X134651000Y-126378295D01*
X134651000Y-126821705D01*
X134645924Y-126847222D01*
X134564496Y-127256593D01*
X134394811Y-127666249D01*
X134148466Y-128034929D01*
X133834929Y-128348466D01*
X133466249Y-128594811D01*
X133056593Y-128764496D01*
X132675880Y-128840224D01*
X132621705Y-128851000D01*
X132178295Y-128851000D01*
X132124120Y-128840224D01*
X131743407Y-128764496D01*
X131333751Y-128594811D01*
X130965071Y-128348466D01*
X130651534Y-128034929D01*
X130405189Y-127666249D01*
X130235504Y-127256593D01*
X130154076Y-126847222D01*
X130149000Y-126821705D01*
X130149000Y-126378295D01*
X130184664Y-126199000D01*
X130235504Y-125943407D01*
X130405189Y-125533751D01*
X130651534Y-125165071D01*
X130965071Y-124851534D01*
X131333751Y-124605189D01*
X131743407Y-124435504D01*
X132124120Y-124359776D01*
X132178295Y-124349000D01*
X132621705Y-124349000D01*
X132675880Y-124359776D01*
X132675880Y-124359776D01*
G37*
G36*
X163305442Y-126740518D02*
G01*
X163371627Y-126747037D01*
X163541466Y-126798557D01*
X163697991Y-126882222D01*
X163733014Y-126910965D01*
X163835186Y-126994814D01*
X163908075Y-127083631D01*
X163947778Y-127132009D01*
X164031443Y-127288534D01*
X164082963Y-127458373D01*
X164100359Y-127635000D01*
X164082963Y-127811627D01*
X164031443Y-127981466D01*
X163947778Y-128137991D01*
X163923375Y-128167726D01*
X163835186Y-128275185D01*
X163723349Y-128366967D01*
X163697991Y-128387778D01*
X163541466Y-128471443D01*
X163371627Y-128522963D01*
X163305443Y-128529481D01*
X163239260Y-128536000D01*
X163150740Y-128536000D01*
X163084557Y-128529481D01*
X163018373Y-128522963D01*
X162848534Y-128471443D01*
X162692009Y-128387778D01*
X162666651Y-128366967D01*
X162554814Y-128275185D01*
X162466625Y-128167726D01*
X162442222Y-128137991D01*
X162358557Y-127981466D01*
X162307037Y-127811627D01*
X162289641Y-127635000D01*
X162307037Y-127458373D01*
X162358557Y-127288534D01*
X162442222Y-127132009D01*
X162481925Y-127083631D01*
X162554814Y-126994814D01*
X162656986Y-126910965D01*
X162692009Y-126882222D01*
X162848534Y-126798557D01*
X163018373Y-126747037D01*
X163084558Y-126740518D01*
X163150740Y-126734000D01*
X163239260Y-126734000D01*
X163305442Y-126740518D01*
X163305442Y-126740518D01*
G37*
G36*
X160765442Y-126740518D02*
G01*
X160831627Y-126747037D01*
X161001466Y-126798557D01*
X161157991Y-126882222D01*
X161193014Y-126910965D01*
X161295186Y-126994814D01*
X161368075Y-127083631D01*
X161407778Y-127132009D01*
X161491443Y-127288534D01*
X161542963Y-127458373D01*
X161560359Y-127635000D01*
X161542963Y-127811627D01*
X161491443Y-127981466D01*
X161407778Y-128137991D01*
X161383375Y-128167726D01*
X161295186Y-128275185D01*
X161183349Y-128366967D01*
X161157991Y-128387778D01*
X161001466Y-128471443D01*
X160831627Y-128522963D01*
X160765443Y-128529481D01*
X160699260Y-128536000D01*
X160610740Y-128536000D01*
X160544557Y-128529481D01*
X160478373Y-128522963D01*
X160308534Y-128471443D01*
X160152009Y-128387778D01*
X160126651Y-128366967D01*
X160014814Y-128275185D01*
X159926625Y-128167726D01*
X159902222Y-128137991D01*
X159818557Y-127981466D01*
X159767037Y-127811627D01*
X159749641Y-127635000D01*
X159767037Y-127458373D01*
X159818557Y-127288534D01*
X159902222Y-127132009D01*
X159941925Y-127083631D01*
X160014814Y-126994814D01*
X160116986Y-126910965D01*
X160152009Y-126882222D01*
X160308534Y-126798557D01*
X160478373Y-126747037D01*
X160544558Y-126740518D01*
X160610740Y-126734000D01*
X160699260Y-126734000D01*
X160765442Y-126740518D01*
X160765442Y-126740518D01*
G37*
G36*
X159016000Y-128536000D02*
G01*
X157214000Y-128536000D01*
X157214000Y-126734000D01*
X159016000Y-126734000D01*
X159016000Y-128536000D01*
X159016000Y-128536000D01*
G37*
G36*
X165845442Y-126740518D02*
G01*
X165911627Y-126747037D01*
X166081466Y-126798557D01*
X166237991Y-126882222D01*
X166273014Y-126910965D01*
X166375186Y-126994814D01*
X166448075Y-127083631D01*
X166487778Y-127132009D01*
X166571443Y-127288534D01*
X166622963Y-127458373D01*
X166640359Y-127635000D01*
X166622963Y-127811627D01*
X166571443Y-127981466D01*
X166487778Y-128137991D01*
X166463375Y-128167726D01*
X166375186Y-128275185D01*
X166263349Y-128366967D01*
X166237991Y-128387778D01*
X166081466Y-128471443D01*
X165911627Y-128522963D01*
X165845443Y-128529481D01*
X165779260Y-128536000D01*
X165690740Y-128536000D01*
X165624557Y-128529481D01*
X165558373Y-128522963D01*
X165388534Y-128471443D01*
X165232009Y-128387778D01*
X165206651Y-128366967D01*
X165094814Y-128275185D01*
X165006625Y-128167726D01*
X164982222Y-128137991D01*
X164898557Y-127981466D01*
X164847037Y-127811627D01*
X164829641Y-127635000D01*
X164847037Y-127458373D01*
X164898557Y-127288534D01*
X164982222Y-127132009D01*
X165021925Y-127083631D01*
X165094814Y-126994814D01*
X165196986Y-126910965D01*
X165232009Y-126882222D01*
X165388534Y-126798557D01*
X165558373Y-126747037D01*
X165624558Y-126740518D01*
X165690740Y-126734000D01*
X165779260Y-126734000D01*
X165845442Y-126740518D01*
X165845442Y-126740518D01*
G37*
G36*
X178066000Y-128536000D02*
G01*
X176264000Y-128536000D01*
X176264000Y-126734000D01*
X178066000Y-126734000D01*
X178066000Y-128536000D01*
X178066000Y-128536000D01*
G37*
G36*
X179815442Y-126740518D02*
G01*
X179881627Y-126747037D01*
X180051466Y-126798557D01*
X180207991Y-126882222D01*
X180243014Y-126910965D01*
X180345186Y-126994814D01*
X180418075Y-127083631D01*
X180457778Y-127132009D01*
X180541443Y-127288534D01*
X180592963Y-127458373D01*
X180610359Y-127635000D01*
X180592963Y-127811627D01*
X180541443Y-127981466D01*
X180457778Y-128137991D01*
X180433375Y-128167726D01*
X180345186Y-128275185D01*
X180233349Y-128366967D01*
X180207991Y-128387778D01*
X180051466Y-128471443D01*
X179881627Y-128522963D01*
X179815443Y-128529481D01*
X179749260Y-128536000D01*
X179660740Y-128536000D01*
X179594557Y-128529481D01*
X179528373Y-128522963D01*
X179358534Y-128471443D01*
X179202009Y-128387778D01*
X179176651Y-128366967D01*
X179064814Y-128275185D01*
X178976625Y-128167726D01*
X178952222Y-128137991D01*
X178868557Y-127981466D01*
X178817037Y-127811627D01*
X178799641Y-127635000D01*
X178817037Y-127458373D01*
X178868557Y-127288534D01*
X178952222Y-127132009D01*
X178991925Y-127083631D01*
X179064814Y-126994814D01*
X179166986Y-126910965D01*
X179202009Y-126882222D01*
X179358534Y-126798557D01*
X179528373Y-126747037D01*
X179594558Y-126740518D01*
X179660740Y-126734000D01*
X179749260Y-126734000D01*
X179815442Y-126740518D01*
X179815442Y-126740518D01*
G37*
G36*
X182355442Y-126740518D02*
G01*
X182421627Y-126747037D01*
X182591466Y-126798557D01*
X182747991Y-126882222D01*
X182783014Y-126910965D01*
X182885186Y-126994814D01*
X182958075Y-127083631D01*
X182997778Y-127132009D01*
X183081443Y-127288534D01*
X183132963Y-127458373D01*
X183150359Y-127635000D01*
X183132963Y-127811627D01*
X183081443Y-127981466D01*
X182997778Y-128137991D01*
X182973375Y-128167726D01*
X182885186Y-128275185D01*
X182773349Y-128366967D01*
X182747991Y-128387778D01*
X182591466Y-128471443D01*
X182421627Y-128522963D01*
X182355443Y-128529481D01*
X182289260Y-128536000D01*
X182200740Y-128536000D01*
X182134557Y-128529481D01*
X182068373Y-128522963D01*
X181898534Y-128471443D01*
X181742009Y-128387778D01*
X181716651Y-128366967D01*
X181604814Y-128275185D01*
X181516625Y-128167726D01*
X181492222Y-128137991D01*
X181408557Y-127981466D01*
X181357037Y-127811627D01*
X181339641Y-127635000D01*
X181357037Y-127458373D01*
X181408557Y-127288534D01*
X181492222Y-127132009D01*
X181531925Y-127083631D01*
X181604814Y-126994814D01*
X181706986Y-126910965D01*
X181742009Y-126882222D01*
X181898534Y-126798557D01*
X182068373Y-126747037D01*
X182134558Y-126740518D01*
X182200740Y-126734000D01*
X182289260Y-126734000D01*
X182355442Y-126740518D01*
X182355442Y-126740518D01*
G37*
G36*
X152510443Y-126705519D02*
G01*
X152576627Y-126712037D01*
X152746466Y-126763557D01*
X152902991Y-126847222D01*
X152913226Y-126855622D01*
X153040186Y-126959814D01*
X153103013Y-127036370D01*
X153152778Y-127097009D01*
X153236443Y-127253534D01*
X153287963Y-127423373D01*
X153305359Y-127600000D01*
X153287963Y-127776627D01*
X153236443Y-127946466D01*
X153152778Y-128102991D01*
X153137106Y-128122087D01*
X153040186Y-128240186D01*
X152957531Y-128308018D01*
X152902991Y-128352778D01*
X152746466Y-128436443D01*
X152576627Y-128487963D01*
X152510442Y-128494482D01*
X152444260Y-128501000D01*
X152355740Y-128501000D01*
X152289558Y-128494482D01*
X152223373Y-128487963D01*
X152053534Y-128436443D01*
X151897009Y-128352778D01*
X151842469Y-128308018D01*
X151759814Y-128240186D01*
X151662894Y-128122087D01*
X151647222Y-128102991D01*
X151563557Y-127946466D01*
X151512037Y-127776627D01*
X151494641Y-127600000D01*
X151512037Y-127423373D01*
X151563557Y-127253534D01*
X151647222Y-127097009D01*
X151696987Y-127036370D01*
X151759814Y-126959814D01*
X151886774Y-126855622D01*
X151897009Y-126847222D01*
X152053534Y-126763557D01*
X152223373Y-126712037D01*
X152289557Y-126705519D01*
X152355740Y-126699000D01*
X152444260Y-126699000D01*
X152510443Y-126705519D01*
X152510443Y-126705519D01*
G37*
G36*
X149970443Y-126705519D02*
G01*
X150036627Y-126712037D01*
X150206466Y-126763557D01*
X150362991Y-126847222D01*
X150373226Y-126855622D01*
X150500186Y-126959814D01*
X150563013Y-127036370D01*
X150612778Y-127097009D01*
X150696443Y-127253534D01*
X150747963Y-127423373D01*
X150765359Y-127600000D01*
X150747963Y-127776627D01*
X150696443Y-127946466D01*
X150612778Y-128102991D01*
X150597106Y-128122087D01*
X150500186Y-128240186D01*
X150417531Y-128308018D01*
X150362991Y-128352778D01*
X150206466Y-128436443D01*
X150036627Y-128487963D01*
X149970442Y-128494482D01*
X149904260Y-128501000D01*
X149815740Y-128501000D01*
X149749558Y-128494482D01*
X149683373Y-128487963D01*
X149513534Y-128436443D01*
X149357009Y-128352778D01*
X149302469Y-128308018D01*
X149219814Y-128240186D01*
X149122894Y-128122087D01*
X149107222Y-128102991D01*
X149023557Y-127946466D01*
X148972037Y-127776627D01*
X148954641Y-127600000D01*
X148972037Y-127423373D01*
X149023557Y-127253534D01*
X149107222Y-127097009D01*
X149156987Y-127036370D01*
X149219814Y-126959814D01*
X149346774Y-126855622D01*
X149357009Y-126847222D01*
X149513534Y-126763557D01*
X149683373Y-126712037D01*
X149749557Y-126705519D01*
X149815740Y-126699000D01*
X149904260Y-126699000D01*
X149970443Y-126705519D01*
X149970443Y-126705519D01*
G37*
G36*
X147430443Y-126705519D02*
G01*
X147496627Y-126712037D01*
X147666466Y-126763557D01*
X147822991Y-126847222D01*
X147833226Y-126855622D01*
X147960186Y-126959814D01*
X148023013Y-127036370D01*
X148072778Y-127097009D01*
X148156443Y-127253534D01*
X148207963Y-127423373D01*
X148225359Y-127600000D01*
X148207963Y-127776627D01*
X148156443Y-127946466D01*
X148072778Y-128102991D01*
X148057106Y-128122087D01*
X147960186Y-128240186D01*
X147877531Y-128308018D01*
X147822991Y-128352778D01*
X147666466Y-128436443D01*
X147496627Y-128487963D01*
X147430442Y-128494482D01*
X147364260Y-128501000D01*
X147275740Y-128501000D01*
X147209558Y-128494482D01*
X147143373Y-128487963D01*
X146973534Y-128436443D01*
X146817009Y-128352778D01*
X146762469Y-128308018D01*
X146679814Y-128240186D01*
X146582894Y-128122087D01*
X146567222Y-128102991D01*
X146483557Y-127946466D01*
X146432037Y-127776627D01*
X146414641Y-127600000D01*
X146432037Y-127423373D01*
X146483557Y-127253534D01*
X146567222Y-127097009D01*
X146616987Y-127036370D01*
X146679814Y-126959814D01*
X146806774Y-126855622D01*
X146817009Y-126847222D01*
X146973534Y-126763557D01*
X147143373Y-126712037D01*
X147209557Y-126705519D01*
X147275740Y-126699000D01*
X147364260Y-126699000D01*
X147430443Y-126705519D01*
X147430443Y-126705519D01*
G37*
G36*
X144890443Y-126705519D02*
G01*
X144956627Y-126712037D01*
X145126466Y-126763557D01*
X145282991Y-126847222D01*
X145293226Y-126855622D01*
X145420186Y-126959814D01*
X145483013Y-127036370D01*
X145532778Y-127097009D01*
X145616443Y-127253534D01*
X145667963Y-127423373D01*
X145685359Y-127600000D01*
X145667963Y-127776627D01*
X145616443Y-127946466D01*
X145532778Y-128102991D01*
X145517106Y-128122087D01*
X145420186Y-128240186D01*
X145337531Y-128308018D01*
X145282991Y-128352778D01*
X145126466Y-128436443D01*
X144956627Y-128487963D01*
X144890442Y-128494482D01*
X144824260Y-128501000D01*
X144735740Y-128501000D01*
X144669558Y-128494482D01*
X144603373Y-128487963D01*
X144433534Y-128436443D01*
X144277009Y-128352778D01*
X144222469Y-128308018D01*
X144139814Y-128240186D01*
X144042894Y-128122087D01*
X144027222Y-128102991D01*
X143943557Y-127946466D01*
X143892037Y-127776627D01*
X143874641Y-127600000D01*
X143892037Y-127423373D01*
X143943557Y-127253534D01*
X144027222Y-127097009D01*
X144076987Y-127036370D01*
X144139814Y-126959814D01*
X144266774Y-126855622D01*
X144277009Y-126847222D01*
X144433534Y-126763557D01*
X144603373Y-126712037D01*
X144669557Y-126705519D01*
X144735740Y-126699000D01*
X144824260Y-126699000D01*
X144890443Y-126705519D01*
X144890443Y-126705519D01*
G37*
G36*
X142350443Y-126705519D02*
G01*
X142416627Y-126712037D01*
X142586466Y-126763557D01*
X142742991Y-126847222D01*
X142753226Y-126855622D01*
X142880186Y-126959814D01*
X142943013Y-127036370D01*
X142992778Y-127097009D01*
X143076443Y-127253534D01*
X143127963Y-127423373D01*
X143145359Y-127600000D01*
X143127963Y-127776627D01*
X143076443Y-127946466D01*
X142992778Y-128102991D01*
X142977106Y-128122087D01*
X142880186Y-128240186D01*
X142797531Y-128308018D01*
X142742991Y-128352778D01*
X142586466Y-128436443D01*
X142416627Y-128487963D01*
X142350442Y-128494482D01*
X142284260Y-128501000D01*
X142195740Y-128501000D01*
X142129558Y-128494482D01*
X142063373Y-128487963D01*
X141893534Y-128436443D01*
X141737009Y-128352778D01*
X141682469Y-128308018D01*
X141599814Y-128240186D01*
X141502894Y-128122087D01*
X141487222Y-128102991D01*
X141403557Y-127946466D01*
X141352037Y-127776627D01*
X141334641Y-127600000D01*
X141352037Y-127423373D01*
X141403557Y-127253534D01*
X141487222Y-127097009D01*
X141536987Y-127036370D01*
X141599814Y-126959814D01*
X141726774Y-126855622D01*
X141737009Y-126847222D01*
X141893534Y-126763557D01*
X142063373Y-126712037D01*
X142129557Y-126705519D01*
X142195740Y-126699000D01*
X142284260Y-126699000D01*
X142350443Y-126705519D01*
X142350443Y-126705519D01*
G37*
G36*
X140601000Y-128501000D02*
G01*
X138799000Y-128501000D01*
X138799000Y-126699000D01*
X140601000Y-126699000D01*
X140601000Y-128501000D01*
X140601000Y-128501000D01*
G37*
G36*
X125022410Y-125965525D02*
G01*
X125107426Y-125991314D01*
X125185775Y-126033193D01*
X125254449Y-126089551D01*
X125310807Y-126158225D01*
X125352686Y-126236574D01*
X125378475Y-126321590D01*
X125387182Y-126410000D01*
X125378475Y-126498410D01*
X125352686Y-126583426D01*
X125310807Y-126661775D01*
X125261851Y-126721428D01*
X125248238Y-126741802D01*
X125238860Y-126764441D01*
X125234080Y-126788474D01*
X125234080Y-126812978D01*
X125238861Y-126837012D01*
X125248238Y-126859650D01*
X125261852Y-126880025D01*
X125279179Y-126897352D01*
X125299553Y-126910965D01*
X125322192Y-126920343D01*
X125346225Y-126925123D01*
X125370729Y-126925123D01*
X125394763Y-126920342D01*
X125403216Y-126916841D01*
X125556879Y-126870228D01*
X125670882Y-126859000D01*
X126297118Y-126859000D01*
X126411121Y-126870228D01*
X126540671Y-126909527D01*
X126545413Y-126910965D01*
X126557402Y-126914602D01*
X126692204Y-126986655D01*
X126692207Y-126986657D01*
X126692208Y-126986658D01*
X126727956Y-127015996D01*
X126810369Y-127083631D01*
X126907345Y-127201796D01*
X126979398Y-127336598D01*
X127023772Y-127482879D01*
X127038754Y-127635000D01*
X127023772Y-127787121D01*
X126979398Y-127933402D01*
X126907345Y-128068204D01*
X126907343Y-128068207D01*
X126907342Y-128068208D01*
X126810369Y-128186369D01*
X126744795Y-128240185D01*
X126692204Y-128283345D01*
X126557402Y-128355398D01*
X126411121Y-128399772D01*
X126297118Y-128411000D01*
X125670882Y-128411000D01*
X125556879Y-128399772D01*
X125410598Y-128355398D01*
X125275796Y-128283345D01*
X125223206Y-128240185D01*
X125157631Y-128186369D01*
X125060658Y-128068208D01*
X125060657Y-128068207D01*
X125060655Y-128068204D01*
X124988602Y-127933402D01*
X124944228Y-127787121D01*
X124929246Y-127635000D01*
X124944228Y-127482879D01*
X124988602Y-127336598D01*
X125060655Y-127201796D01*
X125095777Y-127159000D01*
X125157631Y-127083631D01*
X125194105Y-127053697D01*
X125211432Y-127036370D01*
X125225046Y-127015996D01*
X125234423Y-126993357D01*
X125239204Y-126969324D01*
X125239204Y-126944820D01*
X125234424Y-126920787D01*
X125225047Y-126898148D01*
X125211433Y-126877773D01*
X125194106Y-126860446D01*
X125173732Y-126846832D01*
X125151093Y-126837455D01*
X125127060Y-126832674D01*
X125102556Y-126832674D01*
X125078523Y-126837454D01*
X125022412Y-126854475D01*
X124956158Y-126861000D01*
X124911842Y-126861000D01*
X124845590Y-126854475D01*
X124760574Y-126828686D01*
X124682225Y-126786807D01*
X124613551Y-126730449D01*
X124557193Y-126661775D01*
X124515314Y-126583426D01*
X124489525Y-126498410D01*
X124480818Y-126410000D01*
X124489525Y-126321590D01*
X124515314Y-126236574D01*
X124557193Y-126158225D01*
X124613551Y-126089551D01*
X124682225Y-126033193D01*
X124760574Y-125991314D01*
X124845590Y-125965525D01*
X124911842Y-125959000D01*
X124956158Y-125959000D01*
X125022410Y-125965525D01*
X125022410Y-125965525D01*
G37*
G36*
X122631715Y-127168058D02*
G01*
X122727753Y-127197191D01*
X122742935Y-127201796D01*
X122749722Y-127203855D01*
X122858468Y-127261981D01*
X122953790Y-127340210D01*
X123032019Y-127435532D01*
X123090145Y-127544278D01*
X123125942Y-127662285D01*
X123138028Y-127785000D01*
X123125942Y-127907715D01*
X123114187Y-127946466D01*
X123091169Y-128022348D01*
X123090145Y-128025722D01*
X123032019Y-128134468D01*
X122953790Y-128229790D01*
X122858468Y-128308019D01*
X122749722Y-128366145D01*
X122631715Y-128401942D01*
X122539746Y-128411000D01*
X121828254Y-128411000D01*
X121736285Y-128401942D01*
X121618278Y-128366145D01*
X121509532Y-128308019D01*
X121414210Y-128229790D01*
X121335981Y-128134468D01*
X121277855Y-128025722D01*
X121276832Y-128022348D01*
X121253813Y-127946466D01*
X121242058Y-127907715D01*
X121229972Y-127785000D01*
X121242058Y-127662285D01*
X121277855Y-127544278D01*
X121335981Y-127435532D01*
X121414210Y-127340210D01*
X121509532Y-127261981D01*
X121618278Y-127203855D01*
X121625066Y-127201796D01*
X121640247Y-127197191D01*
X121736285Y-127168058D01*
X121828254Y-127159000D01*
X122539746Y-127159000D01*
X122631715Y-127168058D01*
X122631715Y-127168058D01*
G37*
G36*
X182355442Y-123565518D02*
G01*
X182421627Y-123572037D01*
X182591466Y-123623557D01*
X182747991Y-123707222D01*
X182783729Y-123736552D01*
X182885186Y-123819814D01*
X182968448Y-123921271D01*
X182997778Y-123957009D01*
X183081443Y-124113534D01*
X183132963Y-124283373D01*
X183150359Y-124460000D01*
X183132963Y-124636627D01*
X183081443Y-124806466D01*
X182997778Y-124962991D01*
X182968448Y-124998729D01*
X182885186Y-125100186D01*
X182806122Y-125165071D01*
X182747991Y-125212778D01*
X182591466Y-125296443D01*
X182421627Y-125347963D01*
X182355442Y-125354482D01*
X182289260Y-125361000D01*
X182200740Y-125361000D01*
X182134558Y-125354482D01*
X182068373Y-125347963D01*
X181898534Y-125296443D01*
X181742009Y-125212778D01*
X181683878Y-125165071D01*
X181604814Y-125100186D01*
X181521552Y-124998729D01*
X181492222Y-124962991D01*
X181408557Y-124806466D01*
X181357037Y-124636627D01*
X181339641Y-124460000D01*
X181357037Y-124283373D01*
X181408557Y-124113534D01*
X181492222Y-123957009D01*
X181521552Y-123921271D01*
X181604814Y-123819814D01*
X181706271Y-123736552D01*
X181742009Y-123707222D01*
X181898534Y-123623557D01*
X182068373Y-123572037D01*
X182134558Y-123565518D01*
X182200740Y-123559000D01*
X182289260Y-123559000D01*
X182355442Y-123565518D01*
X182355442Y-123565518D01*
G37*
G36*
X179815442Y-123565518D02*
G01*
X179881627Y-123572037D01*
X180051466Y-123623557D01*
X180207991Y-123707222D01*
X180243729Y-123736552D01*
X180345186Y-123819814D01*
X180428448Y-123921271D01*
X180457778Y-123957009D01*
X180541443Y-124113534D01*
X180592963Y-124283373D01*
X180610359Y-124460000D01*
X180592963Y-124636627D01*
X180541443Y-124806466D01*
X180457778Y-124962991D01*
X180428448Y-124998729D01*
X180345186Y-125100186D01*
X180266122Y-125165071D01*
X180207991Y-125212778D01*
X180051466Y-125296443D01*
X179881627Y-125347963D01*
X179815442Y-125354482D01*
X179749260Y-125361000D01*
X179660740Y-125361000D01*
X179594558Y-125354482D01*
X179528373Y-125347963D01*
X179358534Y-125296443D01*
X179202009Y-125212778D01*
X179143878Y-125165071D01*
X179064814Y-125100186D01*
X178981552Y-124998729D01*
X178952222Y-124962991D01*
X178868557Y-124806466D01*
X178817037Y-124636627D01*
X178799641Y-124460000D01*
X178817037Y-124283373D01*
X178868557Y-124113534D01*
X178952222Y-123957009D01*
X178981552Y-123921271D01*
X179064814Y-123819814D01*
X179166271Y-123736552D01*
X179202009Y-123707222D01*
X179358534Y-123623557D01*
X179528373Y-123572037D01*
X179594558Y-123565518D01*
X179660740Y-123559000D01*
X179749260Y-123559000D01*
X179815442Y-123565518D01*
X179815442Y-123565518D01*
G37*
G36*
X178066000Y-125361000D02*
G01*
X176264000Y-125361000D01*
X176264000Y-123559000D01*
X178066000Y-123559000D01*
X178066000Y-125361000D01*
X178066000Y-125361000D01*
G37*
G36*
X182355443Y-120390519D02*
G01*
X182421627Y-120397037D01*
X182591466Y-120448557D01*
X182747991Y-120532222D01*
X182783729Y-120561552D01*
X182885186Y-120644814D01*
X182960322Y-120736369D01*
X182997778Y-120782009D01*
X183081443Y-120938534D01*
X183132963Y-121108373D01*
X183150359Y-121285000D01*
X183132963Y-121461627D01*
X183081443Y-121631466D01*
X182997778Y-121787991D01*
X182968448Y-121823729D01*
X182885186Y-121925186D01*
X182783729Y-122008448D01*
X182747991Y-122037778D01*
X182591466Y-122121443D01*
X182421627Y-122172963D01*
X182355442Y-122179482D01*
X182289260Y-122186000D01*
X182200740Y-122186000D01*
X182134558Y-122179482D01*
X182068373Y-122172963D01*
X181898534Y-122121443D01*
X181742009Y-122037778D01*
X181706271Y-122008448D01*
X181604814Y-121925186D01*
X181521552Y-121823729D01*
X181492222Y-121787991D01*
X181408557Y-121631466D01*
X181357037Y-121461627D01*
X181339641Y-121285000D01*
X181357037Y-121108373D01*
X181408557Y-120938534D01*
X181492222Y-120782009D01*
X181529678Y-120736369D01*
X181604814Y-120644814D01*
X181706271Y-120561552D01*
X181742009Y-120532222D01*
X181898534Y-120448557D01*
X182068373Y-120397037D01*
X182134557Y-120390519D01*
X182200740Y-120384000D01*
X182289260Y-120384000D01*
X182355443Y-120390519D01*
X182355443Y-120390519D01*
G37*
G36*
X179815443Y-120390519D02*
G01*
X179881627Y-120397037D01*
X180051466Y-120448557D01*
X180207991Y-120532222D01*
X180243729Y-120561552D01*
X180345186Y-120644814D01*
X180420322Y-120736369D01*
X180457778Y-120782009D01*
X180541443Y-120938534D01*
X180592963Y-121108373D01*
X180610359Y-121285000D01*
X180592963Y-121461627D01*
X180541443Y-121631466D01*
X180457778Y-121787991D01*
X180428448Y-121823729D01*
X180345186Y-121925186D01*
X180243729Y-122008448D01*
X180207991Y-122037778D01*
X180051466Y-122121443D01*
X179881627Y-122172963D01*
X179815442Y-122179482D01*
X179749260Y-122186000D01*
X179660740Y-122186000D01*
X179594558Y-122179482D01*
X179528373Y-122172963D01*
X179358534Y-122121443D01*
X179202009Y-122037778D01*
X179166271Y-122008448D01*
X179064814Y-121925186D01*
X178981552Y-121823729D01*
X178952222Y-121787991D01*
X178868557Y-121631466D01*
X178817037Y-121461627D01*
X178799641Y-121285000D01*
X178817037Y-121108373D01*
X178868557Y-120938534D01*
X178952222Y-120782009D01*
X178989678Y-120736369D01*
X179064814Y-120644814D01*
X179166271Y-120561552D01*
X179202009Y-120532222D01*
X179358534Y-120448557D01*
X179528373Y-120397037D01*
X179594557Y-120390519D01*
X179660740Y-120384000D01*
X179749260Y-120384000D01*
X179815443Y-120390519D01*
X179815443Y-120390519D01*
G37*
G36*
X178066000Y-122186000D02*
G01*
X176264000Y-122186000D01*
X176264000Y-120384000D01*
X178066000Y-120384000D01*
X178066000Y-122186000D01*
X178066000Y-122186000D01*
G37*
G36*
X126411121Y-119420228D02*
G01*
X126557402Y-119464602D01*
X126692204Y-119536655D01*
X126692207Y-119536657D01*
X126692208Y-119536658D01*
X126810369Y-119633631D01*
X126852963Y-119685531D01*
X126907345Y-119751796D01*
X126979398Y-119886598D01*
X127023772Y-120032879D01*
X127038754Y-120185000D01*
X127023772Y-120337121D01*
X126979398Y-120483402D01*
X126907345Y-120618204D01*
X126907343Y-120618207D01*
X126907342Y-120618208D01*
X126810369Y-120736369D01*
X126700371Y-120826643D01*
X126692204Y-120833345D01*
X126557402Y-120905398D01*
X126411121Y-120949772D01*
X126297118Y-120961000D01*
X125670882Y-120961000D01*
X125556879Y-120949772D01*
X125403210Y-120903157D01*
X125394751Y-120899654D01*
X125370717Y-120894876D01*
X125346213Y-120894878D01*
X125322180Y-120899661D01*
X125299542Y-120909041D01*
X125279169Y-120922656D01*
X125261844Y-120939985D01*
X125248232Y-120960361D01*
X125238857Y-120983000D01*
X125234079Y-121007034D01*
X125234081Y-121031538D01*
X125238864Y-121055571D01*
X125248244Y-121078209D01*
X125261851Y-121098572D01*
X125310807Y-121158225D01*
X125352686Y-121236574D01*
X125378475Y-121321590D01*
X125387182Y-121410000D01*
X125378475Y-121498410D01*
X125352686Y-121583426D01*
X125310807Y-121661775D01*
X125254449Y-121730449D01*
X125185775Y-121786807D01*
X125107426Y-121828686D01*
X125022410Y-121854475D01*
X124956158Y-121861000D01*
X124911842Y-121861000D01*
X124845590Y-121854475D01*
X124760574Y-121828686D01*
X124682225Y-121786807D01*
X124613551Y-121730449D01*
X124557193Y-121661775D01*
X124515314Y-121583426D01*
X124489525Y-121498410D01*
X124480818Y-121410000D01*
X124489525Y-121321590D01*
X124515314Y-121236574D01*
X124557193Y-121158225D01*
X124613551Y-121089551D01*
X124682225Y-121033193D01*
X124760574Y-120991314D01*
X124845590Y-120965525D01*
X124911842Y-120959000D01*
X124956158Y-120959000D01*
X125022412Y-120965525D01*
X125078523Y-120982546D01*
X125102556Y-120987326D01*
X125127060Y-120987326D01*
X125151093Y-120982545D01*
X125173732Y-120973168D01*
X125194106Y-120959554D01*
X125211433Y-120942227D01*
X125225047Y-120921852D01*
X125234424Y-120899213D01*
X125239204Y-120875180D01*
X125239204Y-120850676D01*
X125234423Y-120826643D01*
X125225046Y-120804004D01*
X125211432Y-120783630D01*
X125194105Y-120766303D01*
X125157633Y-120736371D01*
X125060655Y-120618204D01*
X124988602Y-120483402D01*
X124944228Y-120337121D01*
X124929246Y-120185000D01*
X124944228Y-120032879D01*
X124988602Y-119886598D01*
X125060655Y-119751796D01*
X125115038Y-119685531D01*
X125157631Y-119633631D01*
X125275792Y-119536658D01*
X125275793Y-119536657D01*
X125275796Y-119536655D01*
X125410598Y-119464602D01*
X125556879Y-119420228D01*
X125670882Y-119409000D01*
X126297118Y-119409000D01*
X126411121Y-119420228D01*
X126411121Y-119420228D01*
G37*
G36*
X159672499Y-120382445D02*
G01*
X159709995Y-120393820D01*
X159744554Y-120412292D01*
X159774847Y-120437153D01*
X159799708Y-120467446D01*
X159818180Y-120502005D01*
X159829555Y-120539501D01*
X159834000Y-120584638D01*
X159834000Y-121223362D01*
X159829555Y-121268499D01*
X159818180Y-121305995D01*
X159799708Y-121340554D01*
X159774847Y-121370847D01*
X159744554Y-121395708D01*
X159709995Y-121414180D01*
X159672499Y-121425555D01*
X159627362Y-121430000D01*
X158888638Y-121430000D01*
X158843501Y-121425555D01*
X158806005Y-121414180D01*
X158771446Y-121395708D01*
X158741153Y-121370847D01*
X158716292Y-121340554D01*
X158697820Y-121305995D01*
X158686445Y-121268499D01*
X158682000Y-121223362D01*
X158682000Y-120584638D01*
X158686445Y-120539501D01*
X158697820Y-120502005D01*
X158716292Y-120467446D01*
X158741153Y-120437153D01*
X158771446Y-120412292D01*
X158806005Y-120393820D01*
X158843501Y-120382445D01*
X158888638Y-120378000D01*
X159627362Y-120378000D01*
X159672499Y-120382445D01*
X159672499Y-120382445D01*
G37*
G36*
X157922499Y-120382445D02*
G01*
X157959995Y-120393820D01*
X157994554Y-120412292D01*
X158024847Y-120437153D01*
X158049708Y-120467446D01*
X158068180Y-120502005D01*
X158079555Y-120539501D01*
X158084000Y-120584638D01*
X158084000Y-121223362D01*
X158079555Y-121268499D01*
X158068180Y-121305995D01*
X158049708Y-121340554D01*
X158024847Y-121370847D01*
X157994554Y-121395708D01*
X157959995Y-121414180D01*
X157922499Y-121425555D01*
X157877362Y-121430000D01*
X157138638Y-121430000D01*
X157093501Y-121425555D01*
X157056005Y-121414180D01*
X157021446Y-121395708D01*
X156991153Y-121370847D01*
X156966292Y-121340554D01*
X156947820Y-121305995D01*
X156936445Y-121268499D01*
X156932000Y-121223362D01*
X156932000Y-120584638D01*
X156936445Y-120539501D01*
X156947820Y-120502005D01*
X156966292Y-120467446D01*
X156991153Y-120437153D01*
X157021446Y-120412292D01*
X157056005Y-120393820D01*
X157093501Y-120382445D01*
X157138638Y-120378000D01*
X157877362Y-120378000D01*
X157922499Y-120382445D01*
X157922499Y-120382445D01*
G37*
G36*
X122631715Y-119418058D02*
G01*
X122749722Y-119453855D01*
X122858468Y-119511981D01*
X122953790Y-119590210D01*
X123032019Y-119685532D01*
X123090145Y-119794278D01*
X123125942Y-119912285D01*
X123138028Y-120035000D01*
X123125942Y-120157715D01*
X123090145Y-120275722D01*
X123032019Y-120384468D01*
X122953790Y-120479790D01*
X122858468Y-120558019D01*
X122749722Y-120616145D01*
X122749719Y-120616146D01*
X122742921Y-120618208D01*
X122631715Y-120651942D01*
X122539746Y-120661000D01*
X121828254Y-120661000D01*
X121736285Y-120651942D01*
X121625079Y-120618208D01*
X121618281Y-120616146D01*
X121618278Y-120616145D01*
X121509532Y-120558019D01*
X121414210Y-120479790D01*
X121335981Y-120384468D01*
X121277855Y-120275722D01*
X121242058Y-120157715D01*
X121229972Y-120035000D01*
X121242058Y-119912285D01*
X121277855Y-119794278D01*
X121335981Y-119685532D01*
X121414210Y-119590210D01*
X121509532Y-119511981D01*
X121618278Y-119453855D01*
X121736285Y-119418058D01*
X121828254Y-119409000D01*
X122539746Y-119409000D01*
X122631715Y-119418058D01*
X122631715Y-119418058D01*
G37*
G36*
X144890499Y-119062445D02*
G01*
X144927995Y-119073820D01*
X144962554Y-119092292D01*
X144992847Y-119117153D01*
X145017708Y-119147446D01*
X145036180Y-119182005D01*
X145047555Y-119219501D01*
X145052000Y-119264638D01*
X145052000Y-120003362D01*
X145047555Y-120048499D01*
X145036180Y-120085995D01*
X145017708Y-120120554D01*
X144992847Y-120150847D01*
X144962554Y-120175708D01*
X144927995Y-120194180D01*
X144890499Y-120205555D01*
X144845362Y-120210000D01*
X144206638Y-120210000D01*
X144161501Y-120205555D01*
X144124005Y-120194180D01*
X144089446Y-120175708D01*
X144059153Y-120150847D01*
X144034292Y-120120554D01*
X144015820Y-120085995D01*
X144004445Y-120048499D01*
X144000000Y-120003362D01*
X144000000Y-119264638D01*
X144004445Y-119219501D01*
X144015820Y-119182005D01*
X144034292Y-119147446D01*
X144059153Y-119117153D01*
X144089446Y-119092292D01*
X144124005Y-119073820D01*
X144161501Y-119062445D01*
X144206638Y-119058000D01*
X144845362Y-119058000D01*
X144890499Y-119062445D01*
X144890499Y-119062445D01*
G37*
G36*
X182355443Y-117215519D02*
G01*
X182421627Y-117222037D01*
X182591466Y-117273557D01*
X182747991Y-117357222D01*
X182781876Y-117385031D01*
X182885186Y-117469814D01*
X182968226Y-117571000D01*
X182997778Y-117607009D01*
X183081443Y-117763534D01*
X183132963Y-117933373D01*
X183150359Y-118110000D01*
X183132963Y-118286627D01*
X183081443Y-118456466D01*
X182997778Y-118612991D01*
X182968448Y-118648729D01*
X182885186Y-118750186D01*
X182783729Y-118833448D01*
X182747991Y-118862778D01*
X182591466Y-118946443D01*
X182421627Y-118997963D01*
X182355443Y-119004481D01*
X182289260Y-119011000D01*
X182200740Y-119011000D01*
X182134557Y-119004481D01*
X182068373Y-118997963D01*
X181898534Y-118946443D01*
X181742009Y-118862778D01*
X181706271Y-118833448D01*
X181604814Y-118750186D01*
X181521552Y-118648729D01*
X181492222Y-118612991D01*
X181408557Y-118456466D01*
X181357037Y-118286627D01*
X181339641Y-118110000D01*
X181357037Y-117933373D01*
X181408557Y-117763534D01*
X181492222Y-117607009D01*
X181521774Y-117571000D01*
X181604814Y-117469814D01*
X181708124Y-117385031D01*
X181742009Y-117357222D01*
X181898534Y-117273557D01*
X182068373Y-117222037D01*
X182134557Y-117215519D01*
X182200740Y-117209000D01*
X182289260Y-117209000D01*
X182355443Y-117215519D01*
X182355443Y-117215519D01*
G37*
G36*
X179815443Y-117215519D02*
G01*
X179881627Y-117222037D01*
X180051466Y-117273557D01*
X180207991Y-117357222D01*
X180241876Y-117385031D01*
X180345186Y-117469814D01*
X180428226Y-117571000D01*
X180457778Y-117607009D01*
X180541443Y-117763534D01*
X180592963Y-117933373D01*
X180610359Y-118110000D01*
X180592963Y-118286627D01*
X180541443Y-118456466D01*
X180457778Y-118612991D01*
X180428448Y-118648729D01*
X180345186Y-118750186D01*
X180243729Y-118833448D01*
X180207991Y-118862778D01*
X180051466Y-118946443D01*
X179881627Y-118997963D01*
X179815443Y-119004481D01*
X179749260Y-119011000D01*
X179660740Y-119011000D01*
X179594557Y-119004481D01*
X179528373Y-118997963D01*
X179358534Y-118946443D01*
X179202009Y-118862778D01*
X179166271Y-118833448D01*
X179064814Y-118750186D01*
X178981552Y-118648729D01*
X178952222Y-118612991D01*
X178868557Y-118456466D01*
X178817037Y-118286627D01*
X178799641Y-118110000D01*
X178817037Y-117933373D01*
X178868557Y-117763534D01*
X178952222Y-117607009D01*
X178981774Y-117571000D01*
X179064814Y-117469814D01*
X179168124Y-117385031D01*
X179202009Y-117357222D01*
X179358534Y-117273557D01*
X179528373Y-117222037D01*
X179594557Y-117215519D01*
X179660740Y-117209000D01*
X179749260Y-117209000D01*
X179815443Y-117215519D01*
X179815443Y-117215519D01*
G37*
G36*
X178066000Y-119011000D02*
G01*
X176264000Y-119011000D01*
X176264000Y-117209000D01*
X178066000Y-117209000D01*
X178066000Y-119011000D01*
X178066000Y-119011000D01*
G37*
G36*
X144890499Y-117312445D02*
G01*
X144927995Y-117323820D01*
X144962554Y-117342292D01*
X144992847Y-117367153D01*
X145017708Y-117397446D01*
X145036180Y-117432005D01*
X145047555Y-117469501D01*
X145052000Y-117514638D01*
X145052000Y-118253362D01*
X145047555Y-118298499D01*
X145036180Y-118335995D01*
X145017708Y-118370554D01*
X144992847Y-118400847D01*
X144962554Y-118425708D01*
X144927995Y-118444180D01*
X144890499Y-118455555D01*
X144845362Y-118460000D01*
X144206638Y-118460000D01*
X144161501Y-118455555D01*
X144124005Y-118444180D01*
X144089446Y-118425708D01*
X144059153Y-118400847D01*
X144034292Y-118370554D01*
X144015820Y-118335995D01*
X144004445Y-118298499D01*
X144000000Y-118253362D01*
X144000000Y-117514638D01*
X144004445Y-117469501D01*
X144015820Y-117432005D01*
X144034292Y-117397446D01*
X144059153Y-117367153D01*
X144089446Y-117342292D01*
X144124005Y-117323820D01*
X144161501Y-117312445D01*
X144206638Y-117308000D01*
X144845362Y-117308000D01*
X144890499Y-117312445D01*
X144890499Y-117312445D01*
G37*
G36*
X169528499Y-114970445D02*
G01*
X169565995Y-114981820D01*
X169600554Y-115000292D01*
X169630847Y-115025153D01*
X169655708Y-115055446D01*
X169674180Y-115090005D01*
X169685555Y-115127501D01*
X169690000Y-115172638D01*
X169690000Y-115911362D01*
X169685555Y-115956499D01*
X169674180Y-115993995D01*
X169655708Y-116028554D01*
X169630847Y-116058847D01*
X169600554Y-116083708D01*
X169565995Y-116102180D01*
X169528499Y-116113555D01*
X169483362Y-116118000D01*
X168844638Y-116118000D01*
X168799501Y-116113555D01*
X168762005Y-116102180D01*
X168727446Y-116083708D01*
X168697153Y-116058847D01*
X168672292Y-116028554D01*
X168653820Y-115993995D01*
X168642445Y-115956499D01*
X168638000Y-115911362D01*
X168638000Y-115172638D01*
X168642445Y-115127501D01*
X168653820Y-115090005D01*
X168672292Y-115055446D01*
X168697153Y-115025153D01*
X168727446Y-115000292D01*
X168762005Y-114981820D01*
X168799501Y-114970445D01*
X168844638Y-114966000D01*
X169483362Y-114966000D01*
X169528499Y-114970445D01*
X169528499Y-114970445D01*
G37*
G36*
X160384499Y-114744445D02*
G01*
X160421995Y-114755820D01*
X160456554Y-114774292D01*
X160486847Y-114799153D01*
X160511708Y-114829446D01*
X160530180Y-114864005D01*
X160541555Y-114901501D01*
X160546000Y-114946638D01*
X160546000Y-115685362D01*
X160541555Y-115730499D01*
X160530180Y-115767995D01*
X160511708Y-115802554D01*
X160486847Y-115832847D01*
X160456554Y-115857708D01*
X160421995Y-115876180D01*
X160384499Y-115887555D01*
X160339362Y-115892000D01*
X159700638Y-115892000D01*
X159655501Y-115887555D01*
X159618005Y-115876180D01*
X159583446Y-115857708D01*
X159553153Y-115832847D01*
X159528292Y-115802554D01*
X159509820Y-115767995D01*
X159498445Y-115730499D01*
X159494000Y-115685362D01*
X159494000Y-114946638D01*
X159498445Y-114901501D01*
X159509820Y-114864005D01*
X159528292Y-114829446D01*
X159553153Y-114799153D01*
X159583446Y-114774292D01*
X159618005Y-114755820D01*
X159655501Y-114744445D01*
X159700638Y-114740000D01*
X160339362Y-114740000D01*
X160384499Y-114744445D01*
X160384499Y-114744445D01*
G37*
G36*
X178066000Y-115836000D02*
G01*
X176264000Y-115836000D01*
X176264000Y-114034000D01*
X178066000Y-114034000D01*
X178066000Y-115836000D01*
X178066000Y-115836000D01*
G37*
G36*
X179815442Y-114040518D02*
G01*
X179881627Y-114047037D01*
X180051466Y-114098557D01*
X180207991Y-114182222D01*
X180236533Y-114205646D01*
X180345186Y-114294814D01*
X180392264Y-114352180D01*
X180457778Y-114432009D01*
X180541443Y-114588534D01*
X180592963Y-114758373D01*
X180610359Y-114935000D01*
X180592963Y-115111627D01*
X180541443Y-115281466D01*
X180457778Y-115437991D01*
X180428448Y-115473729D01*
X180345186Y-115575186D01*
X180279612Y-115629000D01*
X180207991Y-115687778D01*
X180051466Y-115771443D01*
X179881627Y-115822963D01*
X179815443Y-115829481D01*
X179749260Y-115836000D01*
X179660740Y-115836000D01*
X179594557Y-115829481D01*
X179528373Y-115822963D01*
X179358534Y-115771443D01*
X179202009Y-115687778D01*
X179130388Y-115629000D01*
X179064814Y-115575186D01*
X178981552Y-115473729D01*
X178952222Y-115437991D01*
X178868557Y-115281466D01*
X178817037Y-115111627D01*
X178799641Y-114935000D01*
X178817037Y-114758373D01*
X178868557Y-114588534D01*
X178952222Y-114432009D01*
X179017736Y-114352180D01*
X179064814Y-114294814D01*
X179173467Y-114205646D01*
X179202009Y-114182222D01*
X179358534Y-114098557D01*
X179528373Y-114047037D01*
X179594558Y-114040518D01*
X179660740Y-114034000D01*
X179749260Y-114034000D01*
X179815442Y-114040518D01*
X179815442Y-114040518D01*
G37*
G36*
X182355442Y-114040518D02*
G01*
X182421627Y-114047037D01*
X182591466Y-114098557D01*
X182747991Y-114182222D01*
X182776533Y-114205646D01*
X182885186Y-114294814D01*
X182932264Y-114352180D01*
X182997778Y-114432009D01*
X183081443Y-114588534D01*
X183132963Y-114758373D01*
X183150359Y-114935000D01*
X183132963Y-115111627D01*
X183081443Y-115281466D01*
X182997778Y-115437991D01*
X182968448Y-115473729D01*
X182885186Y-115575186D01*
X182819612Y-115629000D01*
X182747991Y-115687778D01*
X182591466Y-115771443D01*
X182421627Y-115822963D01*
X182355443Y-115829481D01*
X182289260Y-115836000D01*
X182200740Y-115836000D01*
X182134557Y-115829481D01*
X182068373Y-115822963D01*
X181898534Y-115771443D01*
X181742009Y-115687778D01*
X181670388Y-115629000D01*
X181604814Y-115575186D01*
X181521552Y-115473729D01*
X181492222Y-115437991D01*
X181408557Y-115281466D01*
X181357037Y-115111627D01*
X181339641Y-114935000D01*
X181357037Y-114758373D01*
X181408557Y-114588534D01*
X181492222Y-114432009D01*
X181557736Y-114352180D01*
X181604814Y-114294814D01*
X181713467Y-114205646D01*
X181742009Y-114182222D01*
X181898534Y-114098557D01*
X182068373Y-114047037D01*
X182134558Y-114040518D01*
X182200740Y-114034000D01*
X182289260Y-114034000D01*
X182355442Y-114040518D01*
X182355442Y-114040518D01*
G37*
G36*
X128536000Y-115836000D02*
G01*
X126734000Y-115836000D01*
X126734000Y-114034000D01*
X128536000Y-114034000D01*
X128536000Y-115836000D01*
X128536000Y-115836000D01*
G37*
G36*
X125205442Y-114040518D02*
G01*
X125271627Y-114047037D01*
X125441466Y-114098557D01*
X125597991Y-114182222D01*
X125626533Y-114205646D01*
X125735186Y-114294814D01*
X125782264Y-114352180D01*
X125847778Y-114432009D01*
X125931443Y-114588534D01*
X125982963Y-114758373D01*
X126000359Y-114935000D01*
X125982963Y-115111627D01*
X125931443Y-115281466D01*
X125847778Y-115437991D01*
X125818448Y-115473729D01*
X125735186Y-115575186D01*
X125669612Y-115629000D01*
X125597991Y-115687778D01*
X125441466Y-115771443D01*
X125271627Y-115822963D01*
X125205443Y-115829481D01*
X125139260Y-115836000D01*
X125050740Y-115836000D01*
X124984557Y-115829481D01*
X124918373Y-115822963D01*
X124748534Y-115771443D01*
X124592009Y-115687778D01*
X124520388Y-115629000D01*
X124454814Y-115575186D01*
X124371552Y-115473729D01*
X124342222Y-115437991D01*
X124258557Y-115281466D01*
X124207037Y-115111627D01*
X124189641Y-114935000D01*
X124207037Y-114758373D01*
X124258557Y-114588534D01*
X124342222Y-114432009D01*
X124407736Y-114352180D01*
X124454814Y-114294814D01*
X124563467Y-114205646D01*
X124592009Y-114182222D01*
X124748534Y-114098557D01*
X124918373Y-114047037D01*
X124984558Y-114040518D01*
X125050740Y-114034000D01*
X125139260Y-114034000D01*
X125205442Y-114040518D01*
X125205442Y-114040518D01*
G37*
G36*
X122665442Y-114040518D02*
G01*
X122731627Y-114047037D01*
X122901466Y-114098557D01*
X123057991Y-114182222D01*
X123086533Y-114205646D01*
X123195186Y-114294814D01*
X123242264Y-114352180D01*
X123307778Y-114432009D01*
X123391443Y-114588534D01*
X123442963Y-114758373D01*
X123460359Y-114935000D01*
X123442963Y-115111627D01*
X123391443Y-115281466D01*
X123307778Y-115437991D01*
X123278448Y-115473729D01*
X123195186Y-115575186D01*
X123129612Y-115629000D01*
X123057991Y-115687778D01*
X122901466Y-115771443D01*
X122731627Y-115822963D01*
X122665443Y-115829481D01*
X122599260Y-115836000D01*
X122510740Y-115836000D01*
X122444557Y-115829481D01*
X122378373Y-115822963D01*
X122208534Y-115771443D01*
X122052009Y-115687778D01*
X121980388Y-115629000D01*
X121914814Y-115575186D01*
X121831552Y-115473729D01*
X121802222Y-115437991D01*
X121718557Y-115281466D01*
X121667037Y-115111627D01*
X121649641Y-114935000D01*
X121667037Y-114758373D01*
X121718557Y-114588534D01*
X121802222Y-114432009D01*
X121867736Y-114352180D01*
X121914814Y-114294814D01*
X122023467Y-114205646D01*
X122052009Y-114182222D01*
X122208534Y-114098557D01*
X122378373Y-114047037D01*
X122444558Y-114040518D01*
X122510740Y-114034000D01*
X122599260Y-114034000D01*
X122665442Y-114040518D01*
X122665442Y-114040518D01*
G37*
G36*
X169528499Y-113220445D02*
G01*
X169565995Y-113231820D01*
X169600554Y-113250292D01*
X169630847Y-113275153D01*
X169655708Y-113305446D01*
X169674180Y-113340005D01*
X169685555Y-113377501D01*
X169690000Y-113422638D01*
X169690000Y-114161362D01*
X169685555Y-114206499D01*
X169674180Y-114243995D01*
X169655708Y-114278554D01*
X169630847Y-114308847D01*
X169600554Y-114333708D01*
X169565995Y-114352180D01*
X169528499Y-114363555D01*
X169483362Y-114368000D01*
X168844638Y-114368000D01*
X168799501Y-114363555D01*
X168762005Y-114352180D01*
X168727446Y-114333708D01*
X168697153Y-114308847D01*
X168672292Y-114278554D01*
X168653820Y-114243995D01*
X168642445Y-114206499D01*
X168638000Y-114161362D01*
X168638000Y-113422638D01*
X168642445Y-113377501D01*
X168653820Y-113340005D01*
X168672292Y-113305446D01*
X168697153Y-113275153D01*
X168727446Y-113250292D01*
X168762005Y-113231820D01*
X168799501Y-113220445D01*
X168844638Y-113216000D01*
X169483362Y-113216000D01*
X169528499Y-113220445D01*
X169528499Y-113220445D01*
G37*
G36*
X160384499Y-112994445D02*
G01*
X160421995Y-113005820D01*
X160456554Y-113024292D01*
X160486847Y-113049153D01*
X160511708Y-113079446D01*
X160530180Y-113114005D01*
X160541555Y-113151501D01*
X160546000Y-113196638D01*
X160546000Y-113935362D01*
X160541555Y-113980499D01*
X160530180Y-114017995D01*
X160511708Y-114052554D01*
X160486847Y-114082847D01*
X160456554Y-114107708D01*
X160421995Y-114126180D01*
X160384499Y-114137555D01*
X160339362Y-114142000D01*
X159700638Y-114142000D01*
X159655501Y-114137555D01*
X159618005Y-114126180D01*
X159583446Y-114107708D01*
X159553153Y-114082847D01*
X159528292Y-114052554D01*
X159509820Y-114017995D01*
X159498445Y-113980499D01*
X159494000Y-113935362D01*
X159494000Y-113196638D01*
X159498445Y-113151501D01*
X159509820Y-113114005D01*
X159528292Y-113079446D01*
X159553153Y-113049153D01*
X159583446Y-113024292D01*
X159618005Y-113005820D01*
X159655501Y-112994445D01*
X159700638Y-112990000D01*
X160339362Y-112990000D01*
X160384499Y-112994445D01*
X160384499Y-112994445D01*
G37*
G36*
X178066000Y-112661000D02*
G01*
X176264000Y-112661000D01*
X176264000Y-110859000D01*
X178066000Y-110859000D01*
X178066000Y-112661000D01*
X178066000Y-112661000D01*
G37*
G36*
X182355442Y-110865518D02*
G01*
X182421627Y-110872037D01*
X182591466Y-110923557D01*
X182747991Y-111007222D01*
X182774527Y-111029000D01*
X182885186Y-111119814D01*
X182968448Y-111221271D01*
X182997778Y-111257009D01*
X183081443Y-111413534D01*
X183132963Y-111583373D01*
X183150359Y-111760000D01*
X183132963Y-111936627D01*
X183081443Y-112106466D01*
X182997778Y-112262991D01*
X182968448Y-112298729D01*
X182885186Y-112400186D01*
X182783729Y-112483448D01*
X182747991Y-112512778D01*
X182591466Y-112596443D01*
X182421627Y-112647963D01*
X182355442Y-112654482D01*
X182289260Y-112661000D01*
X182200740Y-112661000D01*
X182134558Y-112654482D01*
X182068373Y-112647963D01*
X181898534Y-112596443D01*
X181742009Y-112512778D01*
X181706271Y-112483448D01*
X181604814Y-112400186D01*
X181521552Y-112298729D01*
X181492222Y-112262991D01*
X181408557Y-112106466D01*
X181357037Y-111936627D01*
X181339641Y-111760000D01*
X181357037Y-111583373D01*
X181408557Y-111413534D01*
X181492222Y-111257009D01*
X181521552Y-111221271D01*
X181604814Y-111119814D01*
X181715473Y-111029000D01*
X181742009Y-111007222D01*
X181898534Y-110923557D01*
X182068373Y-110872037D01*
X182134558Y-110865518D01*
X182200740Y-110859000D01*
X182289260Y-110859000D01*
X182355442Y-110865518D01*
X182355442Y-110865518D01*
G37*
G36*
X128536000Y-112661000D02*
G01*
X126734000Y-112661000D01*
X126734000Y-110859000D01*
X128536000Y-110859000D01*
X128536000Y-112661000D01*
X128536000Y-112661000D01*
G37*
G36*
X125205442Y-110865518D02*
G01*
X125271627Y-110872037D01*
X125441466Y-110923557D01*
X125597991Y-111007222D01*
X125624527Y-111029000D01*
X125735186Y-111119814D01*
X125818448Y-111221271D01*
X125847778Y-111257009D01*
X125931443Y-111413534D01*
X125982963Y-111583373D01*
X126000359Y-111760000D01*
X125982963Y-111936627D01*
X125931443Y-112106466D01*
X125847778Y-112262991D01*
X125818448Y-112298729D01*
X125735186Y-112400186D01*
X125633729Y-112483448D01*
X125597991Y-112512778D01*
X125441466Y-112596443D01*
X125271627Y-112647963D01*
X125205442Y-112654482D01*
X125139260Y-112661000D01*
X125050740Y-112661000D01*
X124984558Y-112654482D01*
X124918373Y-112647963D01*
X124748534Y-112596443D01*
X124592009Y-112512778D01*
X124556271Y-112483448D01*
X124454814Y-112400186D01*
X124371552Y-112298729D01*
X124342222Y-112262991D01*
X124258557Y-112106466D01*
X124207037Y-111936627D01*
X124189641Y-111760000D01*
X124207037Y-111583373D01*
X124258557Y-111413534D01*
X124342222Y-111257009D01*
X124371552Y-111221271D01*
X124454814Y-111119814D01*
X124565473Y-111029000D01*
X124592009Y-111007222D01*
X124748534Y-110923557D01*
X124918373Y-110872037D01*
X124984558Y-110865518D01*
X125050740Y-110859000D01*
X125139260Y-110859000D01*
X125205442Y-110865518D01*
X125205442Y-110865518D01*
G37*
G36*
X122665442Y-110865518D02*
G01*
X122731627Y-110872037D01*
X122901466Y-110923557D01*
X123057991Y-111007222D01*
X123084527Y-111029000D01*
X123195186Y-111119814D01*
X123278448Y-111221271D01*
X123307778Y-111257009D01*
X123391443Y-111413534D01*
X123442963Y-111583373D01*
X123460359Y-111760000D01*
X123442963Y-111936627D01*
X123391443Y-112106466D01*
X123307778Y-112262991D01*
X123278448Y-112298729D01*
X123195186Y-112400186D01*
X123093729Y-112483448D01*
X123057991Y-112512778D01*
X122901466Y-112596443D01*
X122731627Y-112647963D01*
X122665442Y-112654482D01*
X122599260Y-112661000D01*
X122510740Y-112661000D01*
X122444558Y-112654482D01*
X122378373Y-112647963D01*
X122208534Y-112596443D01*
X122052009Y-112512778D01*
X122016271Y-112483448D01*
X121914814Y-112400186D01*
X121831552Y-112298729D01*
X121802222Y-112262991D01*
X121718557Y-112106466D01*
X121667037Y-111936627D01*
X121649641Y-111760000D01*
X121667037Y-111583373D01*
X121718557Y-111413534D01*
X121802222Y-111257009D01*
X121831552Y-111221271D01*
X121914814Y-111119814D01*
X122025473Y-111029000D01*
X122052009Y-111007222D01*
X122208534Y-110923557D01*
X122378373Y-110872037D01*
X122444558Y-110865518D01*
X122510740Y-110859000D01*
X122599260Y-110859000D01*
X122665442Y-110865518D01*
X122665442Y-110865518D01*
G37*
G36*
X179815442Y-110865518D02*
G01*
X179881627Y-110872037D01*
X180051466Y-110923557D01*
X180207991Y-111007222D01*
X180234527Y-111029000D01*
X180345186Y-111119814D01*
X180428448Y-111221271D01*
X180457778Y-111257009D01*
X180541443Y-111413534D01*
X180592963Y-111583373D01*
X180610359Y-111760000D01*
X180592963Y-111936627D01*
X180541443Y-112106466D01*
X180457778Y-112262991D01*
X180428448Y-112298729D01*
X180345186Y-112400186D01*
X180243729Y-112483448D01*
X180207991Y-112512778D01*
X180051466Y-112596443D01*
X179881627Y-112647963D01*
X179815442Y-112654482D01*
X179749260Y-112661000D01*
X179660740Y-112661000D01*
X179594558Y-112654482D01*
X179528373Y-112647963D01*
X179358534Y-112596443D01*
X179202009Y-112512778D01*
X179166271Y-112483448D01*
X179064814Y-112400186D01*
X178981552Y-112298729D01*
X178952222Y-112262991D01*
X178868557Y-112106466D01*
X178817037Y-111936627D01*
X178799641Y-111760000D01*
X178817037Y-111583373D01*
X178868557Y-111413534D01*
X178952222Y-111257009D01*
X178981552Y-111221271D01*
X179064814Y-111119814D01*
X179175473Y-111029000D01*
X179202009Y-111007222D01*
X179358534Y-110923557D01*
X179528373Y-110872037D01*
X179594558Y-110865518D01*
X179660740Y-110859000D01*
X179749260Y-110859000D01*
X179815442Y-110865518D01*
X179815442Y-110865518D01*
G37*
G36*
X160384499Y-110144445D02*
G01*
X160421995Y-110155820D01*
X160456554Y-110174292D01*
X160486847Y-110199153D01*
X160511708Y-110229446D01*
X160530180Y-110264005D01*
X160541555Y-110301501D01*
X160546000Y-110346638D01*
X160546000Y-111085362D01*
X160541555Y-111130499D01*
X160530180Y-111167995D01*
X160511708Y-111202554D01*
X160486847Y-111232847D01*
X160456554Y-111257708D01*
X160421995Y-111276180D01*
X160384499Y-111287555D01*
X160339362Y-111292000D01*
X159700638Y-111292000D01*
X159655501Y-111287555D01*
X159618005Y-111276180D01*
X159583446Y-111257708D01*
X159553153Y-111232847D01*
X159528292Y-111202554D01*
X159509820Y-111167995D01*
X159498445Y-111130499D01*
X159494000Y-111085362D01*
X159494000Y-110346638D01*
X159498445Y-110301501D01*
X159509820Y-110264005D01*
X159528292Y-110229446D01*
X159553153Y-110199153D01*
X159583446Y-110174292D01*
X159618005Y-110155820D01*
X159655501Y-110144445D01*
X159700638Y-110140000D01*
X160339362Y-110140000D01*
X160384499Y-110144445D01*
X160384499Y-110144445D01*
G37*
G36*
X160384499Y-108394445D02*
G01*
X160421995Y-108405820D01*
X160456554Y-108424292D01*
X160486847Y-108449153D01*
X160511708Y-108479446D01*
X160530180Y-108514005D01*
X160541555Y-108551501D01*
X160546000Y-108596638D01*
X160546000Y-109335362D01*
X160541555Y-109380499D01*
X160530180Y-109417995D01*
X160511708Y-109452554D01*
X160486847Y-109482847D01*
X160456554Y-109507708D01*
X160421995Y-109526180D01*
X160384499Y-109537555D01*
X160339362Y-109542000D01*
X159700638Y-109542000D01*
X159655501Y-109537555D01*
X159618005Y-109526180D01*
X159583446Y-109507708D01*
X159553153Y-109482847D01*
X159528292Y-109452554D01*
X159509820Y-109417995D01*
X159498445Y-109380499D01*
X159494000Y-109335362D01*
X159494000Y-108596638D01*
X159498445Y-108551501D01*
X159509820Y-108514005D01*
X159528292Y-108479446D01*
X159553153Y-108449153D01*
X159583446Y-108424292D01*
X159618005Y-108405820D01*
X159655501Y-108394445D01*
X159700638Y-108390000D01*
X160339362Y-108390000D01*
X160384499Y-108394445D01*
X160384499Y-108394445D01*
G37*
G36*
X122665443Y-107690519D02*
G01*
X122731627Y-107697037D01*
X122901466Y-107748557D01*
X123057991Y-107832222D01*
X123093729Y-107861552D01*
X123195186Y-107944814D01*
X123278448Y-108046271D01*
X123307778Y-108082009D01*
X123391443Y-108238534D01*
X123442963Y-108408373D01*
X123460359Y-108585000D01*
X123442963Y-108761627D01*
X123391443Y-108931466D01*
X123307778Y-109087991D01*
X123278448Y-109123729D01*
X123195186Y-109225186D01*
X123129612Y-109279000D01*
X123057991Y-109337778D01*
X122901466Y-109421443D01*
X122731627Y-109472963D01*
X122665442Y-109479482D01*
X122599260Y-109486000D01*
X122510740Y-109486000D01*
X122444558Y-109479482D01*
X122378373Y-109472963D01*
X122208534Y-109421443D01*
X122052009Y-109337778D01*
X121980388Y-109279000D01*
X121914814Y-109225186D01*
X121831552Y-109123729D01*
X121802222Y-109087991D01*
X121718557Y-108931466D01*
X121667037Y-108761627D01*
X121649641Y-108585000D01*
X121667037Y-108408373D01*
X121718557Y-108238534D01*
X121802222Y-108082009D01*
X121831552Y-108046271D01*
X121914814Y-107944814D01*
X122016271Y-107861552D01*
X122052009Y-107832222D01*
X122208534Y-107748557D01*
X122378373Y-107697037D01*
X122444557Y-107690519D01*
X122510740Y-107684000D01*
X122599260Y-107684000D01*
X122665443Y-107690519D01*
X122665443Y-107690519D01*
G37*
G36*
X125205443Y-107690519D02*
G01*
X125271627Y-107697037D01*
X125441466Y-107748557D01*
X125597991Y-107832222D01*
X125633729Y-107861552D01*
X125735186Y-107944814D01*
X125818448Y-108046271D01*
X125847778Y-108082009D01*
X125931443Y-108238534D01*
X125982963Y-108408373D01*
X126000359Y-108585000D01*
X125982963Y-108761627D01*
X125931443Y-108931466D01*
X125847778Y-109087991D01*
X125818448Y-109123729D01*
X125735186Y-109225186D01*
X125669612Y-109279000D01*
X125597991Y-109337778D01*
X125441466Y-109421443D01*
X125271627Y-109472963D01*
X125205442Y-109479482D01*
X125139260Y-109486000D01*
X125050740Y-109486000D01*
X124984558Y-109479482D01*
X124918373Y-109472963D01*
X124748534Y-109421443D01*
X124592009Y-109337778D01*
X124520388Y-109279000D01*
X124454814Y-109225186D01*
X124371552Y-109123729D01*
X124342222Y-109087991D01*
X124258557Y-108931466D01*
X124207037Y-108761627D01*
X124189641Y-108585000D01*
X124207037Y-108408373D01*
X124258557Y-108238534D01*
X124342222Y-108082009D01*
X124371552Y-108046271D01*
X124454814Y-107944814D01*
X124556271Y-107861552D01*
X124592009Y-107832222D01*
X124748534Y-107748557D01*
X124918373Y-107697037D01*
X124984557Y-107690519D01*
X125050740Y-107684000D01*
X125139260Y-107684000D01*
X125205443Y-107690519D01*
X125205443Y-107690519D01*
G37*
G36*
X182355443Y-107690519D02*
G01*
X182421627Y-107697037D01*
X182591466Y-107748557D01*
X182747991Y-107832222D01*
X182783729Y-107861552D01*
X182885186Y-107944814D01*
X182968448Y-108046271D01*
X182997778Y-108082009D01*
X183081443Y-108238534D01*
X183132963Y-108408373D01*
X183150359Y-108585000D01*
X183132963Y-108761627D01*
X183081443Y-108931466D01*
X182997778Y-109087991D01*
X182968448Y-109123729D01*
X182885186Y-109225186D01*
X182819612Y-109279000D01*
X182747991Y-109337778D01*
X182591466Y-109421443D01*
X182421627Y-109472963D01*
X182355442Y-109479482D01*
X182289260Y-109486000D01*
X182200740Y-109486000D01*
X182134558Y-109479482D01*
X182068373Y-109472963D01*
X181898534Y-109421443D01*
X181742009Y-109337778D01*
X181670388Y-109279000D01*
X181604814Y-109225186D01*
X181521552Y-109123729D01*
X181492222Y-109087991D01*
X181408557Y-108931466D01*
X181357037Y-108761627D01*
X181339641Y-108585000D01*
X181357037Y-108408373D01*
X181408557Y-108238534D01*
X181492222Y-108082009D01*
X181521552Y-108046271D01*
X181604814Y-107944814D01*
X181706271Y-107861552D01*
X181742009Y-107832222D01*
X181898534Y-107748557D01*
X182068373Y-107697037D01*
X182134557Y-107690519D01*
X182200740Y-107684000D01*
X182289260Y-107684000D01*
X182355443Y-107690519D01*
X182355443Y-107690519D01*
G37*
G36*
X179815443Y-107690519D02*
G01*
X179881627Y-107697037D01*
X180051466Y-107748557D01*
X180207991Y-107832222D01*
X180243729Y-107861552D01*
X180345186Y-107944814D01*
X180428448Y-108046271D01*
X180457778Y-108082009D01*
X180541443Y-108238534D01*
X180592963Y-108408373D01*
X180610359Y-108585000D01*
X180592963Y-108761627D01*
X180541443Y-108931466D01*
X180457778Y-109087991D01*
X180428448Y-109123729D01*
X180345186Y-109225186D01*
X180279612Y-109279000D01*
X180207991Y-109337778D01*
X180051466Y-109421443D01*
X179881627Y-109472963D01*
X179815442Y-109479482D01*
X179749260Y-109486000D01*
X179660740Y-109486000D01*
X179594558Y-109479482D01*
X179528373Y-109472963D01*
X179358534Y-109421443D01*
X179202009Y-109337778D01*
X179130388Y-109279000D01*
X179064814Y-109225186D01*
X178981552Y-109123729D01*
X178952222Y-109087991D01*
X178868557Y-108931466D01*
X178817037Y-108761627D01*
X178799641Y-108585000D01*
X178817037Y-108408373D01*
X178868557Y-108238534D01*
X178952222Y-108082009D01*
X178981552Y-108046271D01*
X179064814Y-107944814D01*
X179166271Y-107861552D01*
X179202009Y-107832222D01*
X179358534Y-107748557D01*
X179528373Y-107697037D01*
X179594557Y-107690519D01*
X179660740Y-107684000D01*
X179749260Y-107684000D01*
X179815443Y-107690519D01*
X179815443Y-107690519D01*
G37*
G36*
X178066000Y-109486000D02*
G01*
X176264000Y-109486000D01*
X176264000Y-107684000D01*
X178066000Y-107684000D01*
X178066000Y-109486000D01*
X178066000Y-109486000D01*
G37*
G36*
X128536000Y-109486000D02*
G01*
X126734000Y-109486000D01*
X126734000Y-107684000D01*
X128536000Y-107684000D01*
X128536000Y-109486000D01*
X128536000Y-109486000D01*
G37*
G36*
X178066000Y-106311000D02*
G01*
X176264000Y-106311000D01*
X176264000Y-104509000D01*
X178066000Y-104509000D01*
X178066000Y-106311000D01*
X178066000Y-106311000D01*
G37*
G36*
X128536000Y-106311000D02*
G01*
X126734000Y-106311000D01*
X126734000Y-104509000D01*
X128536000Y-104509000D01*
X128536000Y-106311000D01*
X128536000Y-106311000D01*
G37*
G36*
X125205443Y-104515519D02*
G01*
X125271627Y-104522037D01*
X125441466Y-104573557D01*
X125597991Y-104657222D01*
X125633729Y-104686552D01*
X125735186Y-104769814D01*
X125809894Y-104860847D01*
X125847778Y-104907009D01*
X125931443Y-105063534D01*
X125982963Y-105233373D01*
X126000359Y-105410000D01*
X125982963Y-105586627D01*
X125931443Y-105756466D01*
X125847778Y-105912991D01*
X125832543Y-105931555D01*
X125735186Y-106050186D01*
X125633729Y-106133448D01*
X125597991Y-106162778D01*
X125441466Y-106246443D01*
X125271627Y-106297963D01*
X125205442Y-106304482D01*
X125139260Y-106311000D01*
X125050740Y-106311000D01*
X124984558Y-106304482D01*
X124918373Y-106297963D01*
X124748534Y-106246443D01*
X124592009Y-106162778D01*
X124556271Y-106133448D01*
X124454814Y-106050186D01*
X124357457Y-105931555D01*
X124342222Y-105912991D01*
X124258557Y-105756466D01*
X124207037Y-105586627D01*
X124189641Y-105410000D01*
X124207037Y-105233373D01*
X124258557Y-105063534D01*
X124342222Y-104907009D01*
X124380106Y-104860847D01*
X124454814Y-104769814D01*
X124556271Y-104686552D01*
X124592009Y-104657222D01*
X124748534Y-104573557D01*
X124918373Y-104522037D01*
X124984557Y-104515519D01*
X125050740Y-104509000D01*
X125139260Y-104509000D01*
X125205443Y-104515519D01*
X125205443Y-104515519D01*
G37*
G36*
X122665443Y-104515519D02*
G01*
X122731627Y-104522037D01*
X122901466Y-104573557D01*
X123057991Y-104657222D01*
X123093729Y-104686552D01*
X123195186Y-104769814D01*
X123269894Y-104860847D01*
X123307778Y-104907009D01*
X123391443Y-105063534D01*
X123442963Y-105233373D01*
X123460359Y-105410000D01*
X123442963Y-105586627D01*
X123391443Y-105756466D01*
X123307778Y-105912991D01*
X123292543Y-105931555D01*
X123195186Y-106050186D01*
X123093729Y-106133448D01*
X123057991Y-106162778D01*
X122901466Y-106246443D01*
X122731627Y-106297963D01*
X122665442Y-106304482D01*
X122599260Y-106311000D01*
X122510740Y-106311000D01*
X122444558Y-106304482D01*
X122378373Y-106297963D01*
X122208534Y-106246443D01*
X122052009Y-106162778D01*
X122016271Y-106133448D01*
X121914814Y-106050186D01*
X121817457Y-105931555D01*
X121802222Y-105912991D01*
X121718557Y-105756466D01*
X121667037Y-105586627D01*
X121649641Y-105410000D01*
X121667037Y-105233373D01*
X121718557Y-105063534D01*
X121802222Y-104907009D01*
X121840106Y-104860847D01*
X121914814Y-104769814D01*
X122016271Y-104686552D01*
X122052009Y-104657222D01*
X122208534Y-104573557D01*
X122378373Y-104522037D01*
X122444557Y-104515519D01*
X122510740Y-104509000D01*
X122599260Y-104509000D01*
X122665443Y-104515519D01*
X122665443Y-104515519D01*
G37*
G36*
X179815443Y-104515519D02*
G01*
X179881627Y-104522037D01*
X180051466Y-104573557D01*
X180207991Y-104657222D01*
X180243729Y-104686552D01*
X180345186Y-104769814D01*
X180419894Y-104860847D01*
X180457778Y-104907009D01*
X180541443Y-105063534D01*
X180592963Y-105233373D01*
X180610359Y-105410000D01*
X180592963Y-105586627D01*
X180541443Y-105756466D01*
X180457778Y-105912991D01*
X180442543Y-105931555D01*
X180345186Y-106050186D01*
X180243729Y-106133448D01*
X180207991Y-106162778D01*
X180051466Y-106246443D01*
X179881627Y-106297963D01*
X179815442Y-106304482D01*
X179749260Y-106311000D01*
X179660740Y-106311000D01*
X179594558Y-106304482D01*
X179528373Y-106297963D01*
X179358534Y-106246443D01*
X179202009Y-106162778D01*
X179166271Y-106133448D01*
X179064814Y-106050186D01*
X178967457Y-105931555D01*
X178952222Y-105912991D01*
X178868557Y-105756466D01*
X178817037Y-105586627D01*
X178799641Y-105410000D01*
X178817037Y-105233373D01*
X178868557Y-105063534D01*
X178952222Y-104907009D01*
X178990106Y-104860847D01*
X179064814Y-104769814D01*
X179166271Y-104686552D01*
X179202009Y-104657222D01*
X179358534Y-104573557D01*
X179528373Y-104522037D01*
X179594557Y-104515519D01*
X179660740Y-104509000D01*
X179749260Y-104509000D01*
X179815443Y-104515519D01*
X179815443Y-104515519D01*
G37*
G36*
X182355443Y-104515519D02*
G01*
X182421627Y-104522037D01*
X182591466Y-104573557D01*
X182747991Y-104657222D01*
X182783729Y-104686552D01*
X182885186Y-104769814D01*
X182959894Y-104860847D01*
X182997778Y-104907009D01*
X183081443Y-105063534D01*
X183132963Y-105233373D01*
X183150359Y-105410000D01*
X183132963Y-105586627D01*
X183081443Y-105756466D01*
X182997778Y-105912991D01*
X182982543Y-105931555D01*
X182885186Y-106050186D01*
X182783729Y-106133448D01*
X182747991Y-106162778D01*
X182591466Y-106246443D01*
X182421627Y-106297963D01*
X182355442Y-106304482D01*
X182289260Y-106311000D01*
X182200740Y-106311000D01*
X182134558Y-106304482D01*
X182068373Y-106297963D01*
X181898534Y-106246443D01*
X181742009Y-106162778D01*
X181706271Y-106133448D01*
X181604814Y-106050186D01*
X181507457Y-105931555D01*
X181492222Y-105912991D01*
X181408557Y-105756466D01*
X181357037Y-105586627D01*
X181339641Y-105410000D01*
X181357037Y-105233373D01*
X181408557Y-105063534D01*
X181492222Y-104907009D01*
X181530106Y-104860847D01*
X181604814Y-104769814D01*
X181706271Y-104686552D01*
X181742009Y-104657222D01*
X181898534Y-104573557D01*
X182068373Y-104522037D01*
X182134557Y-104515519D01*
X182200740Y-104509000D01*
X182289260Y-104509000D01*
X182355443Y-104515519D01*
X182355443Y-104515519D01*
G37*
G36*
X157132499Y-104888445D02*
G01*
X157169995Y-104899820D01*
X157204554Y-104918292D01*
X157234847Y-104943153D01*
X157259708Y-104973446D01*
X157278180Y-105008005D01*
X157289555Y-105045501D01*
X157294000Y-105090638D01*
X157294000Y-105729362D01*
X157289555Y-105774499D01*
X157278180Y-105811995D01*
X157259708Y-105846554D01*
X157234847Y-105876847D01*
X157204554Y-105901708D01*
X157169995Y-105920180D01*
X157132499Y-105931555D01*
X157087362Y-105936000D01*
X156348638Y-105936000D01*
X156303501Y-105931555D01*
X156266005Y-105920180D01*
X156231446Y-105901708D01*
X156201153Y-105876847D01*
X156176292Y-105846554D01*
X156157820Y-105811995D01*
X156146445Y-105774499D01*
X156142000Y-105729362D01*
X156142000Y-105090638D01*
X156146445Y-105045501D01*
X156157820Y-105008005D01*
X156176292Y-104973446D01*
X156201153Y-104943153D01*
X156231446Y-104918292D01*
X156266005Y-104899820D01*
X156303501Y-104888445D01*
X156348638Y-104884000D01*
X157087362Y-104884000D01*
X157132499Y-104888445D01*
X157132499Y-104888445D01*
G37*
G36*
X158882499Y-104888445D02*
G01*
X158919995Y-104899820D01*
X158954554Y-104918292D01*
X158984847Y-104943153D01*
X159009708Y-104973446D01*
X159028180Y-105008005D01*
X159039555Y-105045501D01*
X159044000Y-105090638D01*
X159044000Y-105729362D01*
X159039555Y-105774499D01*
X159028180Y-105811995D01*
X159009708Y-105846554D01*
X158984847Y-105876847D01*
X158954554Y-105901708D01*
X158919995Y-105920180D01*
X158882499Y-105931555D01*
X158837362Y-105936000D01*
X158098638Y-105936000D01*
X158053501Y-105931555D01*
X158016005Y-105920180D01*
X157981446Y-105901708D01*
X157951153Y-105876847D01*
X157926292Y-105846554D01*
X157907820Y-105811995D01*
X157896445Y-105774499D01*
X157892000Y-105729362D01*
X157892000Y-105090638D01*
X157896445Y-105045501D01*
X157907820Y-105008005D01*
X157926292Y-104973446D01*
X157951153Y-104943153D01*
X157981446Y-104918292D01*
X158016005Y-104899820D01*
X158053501Y-104888445D01*
X158098638Y-104884000D01*
X158837362Y-104884000D01*
X158882499Y-104888445D01*
X158882499Y-104888445D01*
G37*
G36*
X143952499Y-103872445D02*
G01*
X143989995Y-103883820D01*
X144024554Y-103902292D01*
X144054847Y-103927153D01*
X144079708Y-103957446D01*
X144098180Y-103992005D01*
X144109555Y-104029501D01*
X144114000Y-104074638D01*
X144114000Y-104713362D01*
X144109555Y-104758499D01*
X144098180Y-104795995D01*
X144079708Y-104830554D01*
X144054847Y-104860847D01*
X144024554Y-104885708D01*
X143989995Y-104904180D01*
X143952499Y-104915555D01*
X143907362Y-104920000D01*
X143168638Y-104920000D01*
X143123501Y-104915555D01*
X143086005Y-104904180D01*
X143051446Y-104885708D01*
X143021153Y-104860847D01*
X142996292Y-104830554D01*
X142977820Y-104795995D01*
X142966445Y-104758499D01*
X142962000Y-104713362D01*
X142962000Y-104074638D01*
X142966445Y-104029501D01*
X142977820Y-103992005D01*
X142996292Y-103957446D01*
X143021153Y-103927153D01*
X143051446Y-103902292D01*
X143086005Y-103883820D01*
X143123501Y-103872445D01*
X143168638Y-103868000D01*
X143907362Y-103868000D01*
X143952499Y-103872445D01*
X143952499Y-103872445D01*
G37*
G36*
X145702499Y-103872445D02*
G01*
X145739995Y-103883820D01*
X145774554Y-103902292D01*
X145804847Y-103927153D01*
X145829708Y-103957446D01*
X145848180Y-103992005D01*
X145859555Y-104029501D01*
X145864000Y-104074638D01*
X145864000Y-104713362D01*
X145859555Y-104758499D01*
X145848180Y-104795995D01*
X145829708Y-104830554D01*
X145804847Y-104860847D01*
X145774554Y-104885708D01*
X145739995Y-104904180D01*
X145702499Y-104915555D01*
X145657362Y-104920000D01*
X144918638Y-104920000D01*
X144873501Y-104915555D01*
X144836005Y-104904180D01*
X144801446Y-104885708D01*
X144771153Y-104860847D01*
X144746292Y-104830554D01*
X144727820Y-104795995D01*
X144716445Y-104758499D01*
X144712000Y-104713362D01*
X144712000Y-104074638D01*
X144716445Y-104029501D01*
X144727820Y-103992005D01*
X144746292Y-103957446D01*
X144771153Y-103927153D01*
X144801446Y-103902292D01*
X144836005Y-103883820D01*
X144873501Y-103872445D01*
X144918638Y-103868000D01*
X145657362Y-103868000D01*
X145702499Y-103872445D01*
X145702499Y-103872445D01*
G37*
G36*
X179815442Y-101340518D02*
G01*
X179881627Y-101347037D01*
X180051466Y-101398557D01*
X180207991Y-101482222D01*
X180243729Y-101511552D01*
X180345186Y-101594814D01*
X180428448Y-101696271D01*
X180457778Y-101732009D01*
X180541443Y-101888534D01*
X180592963Y-102058373D01*
X180610359Y-102235000D01*
X180592963Y-102411627D01*
X180541443Y-102581466D01*
X180457778Y-102737991D01*
X180428448Y-102773729D01*
X180345186Y-102875186D01*
X180243729Y-102958448D01*
X180207991Y-102987778D01*
X180051466Y-103071443D01*
X179881627Y-103122963D01*
X179815442Y-103129482D01*
X179749260Y-103136000D01*
X179660740Y-103136000D01*
X179594558Y-103129482D01*
X179528373Y-103122963D01*
X179358534Y-103071443D01*
X179202009Y-102987778D01*
X179166271Y-102958448D01*
X179064814Y-102875186D01*
X178981552Y-102773729D01*
X178952222Y-102737991D01*
X178868557Y-102581466D01*
X178817037Y-102411627D01*
X178799641Y-102235000D01*
X178817037Y-102058373D01*
X178868557Y-101888534D01*
X178952222Y-101732009D01*
X178981552Y-101696271D01*
X179064814Y-101594814D01*
X179166271Y-101511552D01*
X179202009Y-101482222D01*
X179358534Y-101398557D01*
X179528373Y-101347037D01*
X179594558Y-101340518D01*
X179660740Y-101334000D01*
X179749260Y-101334000D01*
X179815442Y-101340518D01*
X179815442Y-101340518D01*
G37*
G36*
X182355442Y-101340518D02*
G01*
X182421627Y-101347037D01*
X182591466Y-101398557D01*
X182747991Y-101482222D01*
X182783729Y-101511552D01*
X182885186Y-101594814D01*
X182968448Y-101696271D01*
X182997778Y-101732009D01*
X183081443Y-101888534D01*
X183132963Y-102058373D01*
X183150359Y-102235000D01*
X183132963Y-102411627D01*
X183081443Y-102581466D01*
X182997778Y-102737991D01*
X182968448Y-102773729D01*
X182885186Y-102875186D01*
X182783729Y-102958448D01*
X182747991Y-102987778D01*
X182591466Y-103071443D01*
X182421627Y-103122963D01*
X182355442Y-103129482D01*
X182289260Y-103136000D01*
X182200740Y-103136000D01*
X182134558Y-103129482D01*
X182068373Y-103122963D01*
X181898534Y-103071443D01*
X181742009Y-102987778D01*
X181706271Y-102958448D01*
X181604814Y-102875186D01*
X181521552Y-102773729D01*
X181492222Y-102737991D01*
X181408557Y-102581466D01*
X181357037Y-102411627D01*
X181339641Y-102235000D01*
X181357037Y-102058373D01*
X181408557Y-101888534D01*
X181492222Y-101732009D01*
X181521552Y-101696271D01*
X181604814Y-101594814D01*
X181706271Y-101511552D01*
X181742009Y-101482222D01*
X181898534Y-101398557D01*
X182068373Y-101347037D01*
X182134558Y-101340518D01*
X182200740Y-101334000D01*
X182289260Y-101334000D01*
X182355442Y-101340518D01*
X182355442Y-101340518D01*
G37*
G36*
X178066000Y-103136000D02*
G01*
X176264000Y-103136000D01*
X176264000Y-101334000D01*
X178066000Y-101334000D01*
X178066000Y-103136000D01*
X178066000Y-103136000D01*
G37*
G36*
X128536000Y-103136000D02*
G01*
X126734000Y-103136000D01*
X126734000Y-101334000D01*
X128536000Y-101334000D01*
X128536000Y-103136000D01*
X128536000Y-103136000D01*
G37*
G36*
X125205442Y-101340518D02*
G01*
X125271627Y-101347037D01*
X125441466Y-101398557D01*
X125597991Y-101482222D01*
X125633729Y-101511552D01*
X125735186Y-101594814D01*
X125818448Y-101696271D01*
X125847778Y-101732009D01*
X125931443Y-101888534D01*
X125982963Y-102058373D01*
X126000359Y-102235000D01*
X125982963Y-102411627D01*
X125931443Y-102581466D01*
X125847778Y-102737991D01*
X125818448Y-102773729D01*
X125735186Y-102875186D01*
X125633729Y-102958448D01*
X125597991Y-102987778D01*
X125441466Y-103071443D01*
X125271627Y-103122963D01*
X125205442Y-103129482D01*
X125139260Y-103136000D01*
X125050740Y-103136000D01*
X124984558Y-103129482D01*
X124918373Y-103122963D01*
X124748534Y-103071443D01*
X124592009Y-102987778D01*
X124556271Y-102958448D01*
X124454814Y-102875186D01*
X124371552Y-102773729D01*
X124342222Y-102737991D01*
X124258557Y-102581466D01*
X124207037Y-102411627D01*
X124189641Y-102235000D01*
X124207037Y-102058373D01*
X124258557Y-101888534D01*
X124342222Y-101732009D01*
X124371552Y-101696271D01*
X124454814Y-101594814D01*
X124556271Y-101511552D01*
X124592009Y-101482222D01*
X124748534Y-101398557D01*
X124918373Y-101347037D01*
X124984558Y-101340518D01*
X125050740Y-101334000D01*
X125139260Y-101334000D01*
X125205442Y-101340518D01*
X125205442Y-101340518D01*
G37*
G36*
X122665442Y-101340518D02*
G01*
X122731627Y-101347037D01*
X122901466Y-101398557D01*
X123057991Y-101482222D01*
X123093729Y-101511552D01*
X123195186Y-101594814D01*
X123278448Y-101696271D01*
X123307778Y-101732009D01*
X123391443Y-101888534D01*
X123442963Y-102058373D01*
X123460359Y-102235000D01*
X123442963Y-102411627D01*
X123391443Y-102581466D01*
X123307778Y-102737991D01*
X123278448Y-102773729D01*
X123195186Y-102875186D01*
X123093729Y-102958448D01*
X123057991Y-102987778D01*
X122901466Y-103071443D01*
X122731627Y-103122963D01*
X122665442Y-103129482D01*
X122599260Y-103136000D01*
X122510740Y-103136000D01*
X122444558Y-103129482D01*
X122378373Y-103122963D01*
X122208534Y-103071443D01*
X122052009Y-102987778D01*
X122016271Y-102958448D01*
X121914814Y-102875186D01*
X121831552Y-102773729D01*
X121802222Y-102737991D01*
X121718557Y-102581466D01*
X121667037Y-102411627D01*
X121649641Y-102235000D01*
X121667037Y-102058373D01*
X121718557Y-101888534D01*
X121802222Y-101732009D01*
X121831552Y-101696271D01*
X121914814Y-101594814D01*
X122016271Y-101511552D01*
X122052009Y-101482222D01*
X122208534Y-101398557D01*
X122378373Y-101347037D01*
X122444558Y-101340518D01*
X122510740Y-101334000D01*
X122599260Y-101334000D01*
X122665442Y-101340518D01*
X122665442Y-101340518D01*
G37*
G36*
X164196823Y-98856313D02*
G01*
X164357242Y-98904976D01*
X164489906Y-98975886D01*
X164505078Y-98983996D01*
X164634659Y-99090341D01*
X164741004Y-99219922D01*
X164741005Y-99219924D01*
X164820024Y-99367758D01*
X164868687Y-99528177D01*
X164885117Y-99695000D01*
X164868687Y-99861823D01*
X164820024Y-100022242D01*
X164749114Y-100154906D01*
X164741004Y-100170078D01*
X164634659Y-100299659D01*
X164505078Y-100406004D01*
X164505076Y-100406005D01*
X164357242Y-100485024D01*
X164196823Y-100533687D01*
X164071804Y-100546000D01*
X163588196Y-100546000D01*
X163463177Y-100533687D01*
X163302758Y-100485024D01*
X163154924Y-100406005D01*
X163154922Y-100406004D01*
X163025341Y-100299659D01*
X162918996Y-100170078D01*
X162910886Y-100154906D01*
X162839976Y-100022242D01*
X162791313Y-99861823D01*
X162774883Y-99695000D01*
X162791313Y-99528177D01*
X162839976Y-99367758D01*
X162918995Y-99219924D01*
X162918996Y-99219922D01*
X163025341Y-99090341D01*
X163154922Y-98983996D01*
X163170094Y-98975886D01*
X163302758Y-98904976D01*
X163463177Y-98856313D01*
X163588196Y-98844000D01*
X164071804Y-98844000D01*
X164196823Y-98856313D01*
X164196823Y-98856313D01*
G37*
G36*
X141336823Y-98856313D02*
G01*
X141497242Y-98904976D01*
X141629906Y-98975886D01*
X141645078Y-98983996D01*
X141774659Y-99090341D01*
X141881004Y-99219922D01*
X141881005Y-99219924D01*
X141960024Y-99367758D01*
X142008687Y-99528177D01*
X142025117Y-99695000D01*
X142008687Y-99861823D01*
X141960024Y-100022242D01*
X141889114Y-100154906D01*
X141881004Y-100170078D01*
X141774659Y-100299659D01*
X141645078Y-100406004D01*
X141645076Y-100406005D01*
X141497242Y-100485024D01*
X141336823Y-100533687D01*
X141211804Y-100546000D01*
X140728196Y-100546000D01*
X140603177Y-100533687D01*
X140442758Y-100485024D01*
X140294924Y-100406005D01*
X140294922Y-100406004D01*
X140165341Y-100299659D01*
X140058996Y-100170078D01*
X140050886Y-100154906D01*
X139979976Y-100022242D01*
X139931313Y-99861823D01*
X139914883Y-99695000D01*
X139931313Y-99528177D01*
X139979976Y-99367758D01*
X140058995Y-99219924D01*
X140058996Y-99219922D01*
X140165341Y-99090341D01*
X140294922Y-98983996D01*
X140310094Y-98975886D01*
X140442758Y-98904976D01*
X140603177Y-98856313D01*
X140728196Y-98844000D01*
X141211804Y-98844000D01*
X141336823Y-98856313D01*
X141336823Y-98856313D01*
G37*
G36*
X182355443Y-98165519D02*
G01*
X182421627Y-98172037D01*
X182591466Y-98223557D01*
X182747991Y-98307222D01*
X182783729Y-98336552D01*
X182885186Y-98419814D01*
X182968448Y-98521271D01*
X182997778Y-98557009D01*
X183081443Y-98713534D01*
X183132963Y-98883373D01*
X183150359Y-99060000D01*
X183132963Y-99236627D01*
X183081443Y-99406466D01*
X182997778Y-99562991D01*
X182968448Y-99598729D01*
X182885186Y-99700186D01*
X182783729Y-99783448D01*
X182747991Y-99812778D01*
X182591466Y-99896443D01*
X182421627Y-99947963D01*
X182355443Y-99954481D01*
X182289260Y-99961000D01*
X182200740Y-99961000D01*
X182134557Y-99954481D01*
X182068373Y-99947963D01*
X181898534Y-99896443D01*
X181742009Y-99812778D01*
X181706271Y-99783448D01*
X181604814Y-99700186D01*
X181521552Y-99598729D01*
X181492222Y-99562991D01*
X181408557Y-99406466D01*
X181357037Y-99236627D01*
X181339641Y-99060000D01*
X181357037Y-98883373D01*
X181408557Y-98713534D01*
X181492222Y-98557009D01*
X181521552Y-98521271D01*
X181604814Y-98419814D01*
X181706271Y-98336552D01*
X181742009Y-98307222D01*
X181898534Y-98223557D01*
X182068373Y-98172037D01*
X182134557Y-98165519D01*
X182200740Y-98159000D01*
X182289260Y-98159000D01*
X182355443Y-98165519D01*
X182355443Y-98165519D01*
G37*
G36*
X179815443Y-98165519D02*
G01*
X179881627Y-98172037D01*
X180051466Y-98223557D01*
X180207991Y-98307222D01*
X180243729Y-98336552D01*
X180345186Y-98419814D01*
X180428448Y-98521271D01*
X180457778Y-98557009D01*
X180541443Y-98713534D01*
X180592963Y-98883373D01*
X180610359Y-99060000D01*
X180592963Y-99236627D01*
X180541443Y-99406466D01*
X180457778Y-99562991D01*
X180428448Y-99598729D01*
X180345186Y-99700186D01*
X180243729Y-99783448D01*
X180207991Y-99812778D01*
X180051466Y-99896443D01*
X179881627Y-99947963D01*
X179815443Y-99954481D01*
X179749260Y-99961000D01*
X179660740Y-99961000D01*
X179594557Y-99954481D01*
X179528373Y-99947963D01*
X179358534Y-99896443D01*
X179202009Y-99812778D01*
X179166271Y-99783448D01*
X179064814Y-99700186D01*
X178981552Y-99598729D01*
X178952222Y-99562991D01*
X178868557Y-99406466D01*
X178817037Y-99236627D01*
X178799641Y-99060000D01*
X178817037Y-98883373D01*
X178868557Y-98713534D01*
X178952222Y-98557009D01*
X178981552Y-98521271D01*
X179064814Y-98419814D01*
X179166271Y-98336552D01*
X179202009Y-98307222D01*
X179358534Y-98223557D01*
X179528373Y-98172037D01*
X179594557Y-98165519D01*
X179660740Y-98159000D01*
X179749260Y-98159000D01*
X179815443Y-98165519D01*
X179815443Y-98165519D01*
G37*
G36*
X178066000Y-99961000D02*
G01*
X176264000Y-99961000D01*
X176264000Y-98159000D01*
X178066000Y-98159000D01*
X178066000Y-99961000D01*
X178066000Y-99961000D01*
G37*
G36*
X122665443Y-98165519D02*
G01*
X122731627Y-98172037D01*
X122901466Y-98223557D01*
X123057991Y-98307222D01*
X123093729Y-98336552D01*
X123195186Y-98419814D01*
X123278448Y-98521271D01*
X123307778Y-98557009D01*
X123391443Y-98713534D01*
X123442963Y-98883373D01*
X123460359Y-99060000D01*
X123442963Y-99236627D01*
X123391443Y-99406466D01*
X123307778Y-99562991D01*
X123278448Y-99598729D01*
X123195186Y-99700186D01*
X123093729Y-99783448D01*
X123057991Y-99812778D01*
X122901466Y-99896443D01*
X122731627Y-99947963D01*
X122665443Y-99954481D01*
X122599260Y-99961000D01*
X122510740Y-99961000D01*
X122444557Y-99954481D01*
X122378373Y-99947963D01*
X122208534Y-99896443D01*
X122052009Y-99812778D01*
X122016271Y-99783448D01*
X121914814Y-99700186D01*
X121831552Y-99598729D01*
X121802222Y-99562991D01*
X121718557Y-99406466D01*
X121667037Y-99236627D01*
X121649641Y-99060000D01*
X121667037Y-98883373D01*
X121718557Y-98713534D01*
X121802222Y-98557009D01*
X121831552Y-98521271D01*
X121914814Y-98419814D01*
X122016271Y-98336552D01*
X122052009Y-98307222D01*
X122208534Y-98223557D01*
X122378373Y-98172037D01*
X122444557Y-98165519D01*
X122510740Y-98159000D01*
X122599260Y-98159000D01*
X122665443Y-98165519D01*
X122665443Y-98165519D01*
G37*
G36*
X125205443Y-98165519D02*
G01*
X125271627Y-98172037D01*
X125441466Y-98223557D01*
X125597991Y-98307222D01*
X125633729Y-98336552D01*
X125735186Y-98419814D01*
X125818448Y-98521271D01*
X125847778Y-98557009D01*
X125931443Y-98713534D01*
X125982963Y-98883373D01*
X126000359Y-99060000D01*
X125982963Y-99236627D01*
X125931443Y-99406466D01*
X125847778Y-99562991D01*
X125818448Y-99598729D01*
X125735186Y-99700186D01*
X125633729Y-99783448D01*
X125597991Y-99812778D01*
X125441466Y-99896443D01*
X125271627Y-99947963D01*
X125205443Y-99954481D01*
X125139260Y-99961000D01*
X125050740Y-99961000D01*
X124984557Y-99954481D01*
X124918373Y-99947963D01*
X124748534Y-99896443D01*
X124592009Y-99812778D01*
X124556271Y-99783448D01*
X124454814Y-99700186D01*
X124371552Y-99598729D01*
X124342222Y-99562991D01*
X124258557Y-99406466D01*
X124207037Y-99236627D01*
X124189641Y-99060000D01*
X124207037Y-98883373D01*
X124258557Y-98713534D01*
X124342222Y-98557009D01*
X124371552Y-98521271D01*
X124454814Y-98419814D01*
X124556271Y-98336552D01*
X124592009Y-98307222D01*
X124748534Y-98223557D01*
X124918373Y-98172037D01*
X124984557Y-98165519D01*
X125050740Y-98159000D01*
X125139260Y-98159000D01*
X125205443Y-98165519D01*
X125205443Y-98165519D01*
G37*
G36*
X128536000Y-99961000D02*
G01*
X126734000Y-99961000D01*
X126734000Y-98159000D01*
X128536000Y-98159000D01*
X128536000Y-99961000D01*
X128536000Y-99961000D01*
G37*
G36*
X141336823Y-96316313D02*
G01*
X141497242Y-96364976D01*
X141629906Y-96435886D01*
X141645078Y-96443996D01*
X141774659Y-96550341D01*
X141881004Y-96679922D01*
X141881005Y-96679924D01*
X141960024Y-96827758D01*
X142008687Y-96988177D01*
X142025117Y-97155000D01*
X142008687Y-97321823D01*
X141960024Y-97482242D01*
X141889114Y-97614906D01*
X141881004Y-97630078D01*
X141774659Y-97759659D01*
X141645078Y-97866004D01*
X141645076Y-97866005D01*
X141497242Y-97945024D01*
X141336823Y-97993687D01*
X141211804Y-98006000D01*
X140728196Y-98006000D01*
X140603177Y-97993687D01*
X140442758Y-97945024D01*
X140294924Y-97866005D01*
X140294922Y-97866004D01*
X140165341Y-97759659D01*
X140058996Y-97630078D01*
X140050886Y-97614906D01*
X139979976Y-97482242D01*
X139931313Y-97321823D01*
X139914883Y-97155000D01*
X139931313Y-96988177D01*
X139979976Y-96827758D01*
X140058995Y-96679924D01*
X140058996Y-96679922D01*
X140165341Y-96550341D01*
X140294922Y-96443996D01*
X140310094Y-96435886D01*
X140442758Y-96364976D01*
X140603177Y-96316313D01*
X140728196Y-96304000D01*
X141211804Y-96304000D01*
X141336823Y-96316313D01*
X141336823Y-96316313D01*
G37*
G36*
X164196823Y-96316313D02*
G01*
X164357242Y-96364976D01*
X164489906Y-96435886D01*
X164505078Y-96443996D01*
X164634659Y-96550341D01*
X164741004Y-96679922D01*
X164741005Y-96679924D01*
X164820024Y-96827758D01*
X164868687Y-96988177D01*
X164885117Y-97155000D01*
X164868687Y-97321823D01*
X164820024Y-97482242D01*
X164749114Y-97614906D01*
X164741004Y-97630078D01*
X164634659Y-97759659D01*
X164505078Y-97866004D01*
X164505076Y-97866005D01*
X164357242Y-97945024D01*
X164196823Y-97993687D01*
X164071804Y-98006000D01*
X163588196Y-98006000D01*
X163463177Y-97993687D01*
X163302758Y-97945024D01*
X163154924Y-97866005D01*
X163154922Y-97866004D01*
X163025341Y-97759659D01*
X162918996Y-97630078D01*
X162910886Y-97614906D01*
X162839976Y-97482242D01*
X162791313Y-97321823D01*
X162774883Y-97155000D01*
X162791313Y-96988177D01*
X162839976Y-96827758D01*
X162918995Y-96679924D01*
X162918996Y-96679922D01*
X163025341Y-96550341D01*
X163154922Y-96443996D01*
X163170094Y-96435886D01*
X163302758Y-96364976D01*
X163463177Y-96316313D01*
X163588196Y-96304000D01*
X164071804Y-96304000D01*
X164196823Y-96316313D01*
X164196823Y-96316313D01*
G37*
G36*
X178066000Y-96786000D02*
G01*
X176264000Y-96786000D01*
X176264000Y-94984000D01*
X178066000Y-94984000D01*
X178066000Y-96786000D01*
X178066000Y-96786000D01*
G37*
G36*
X128536000Y-96786000D02*
G01*
X126734000Y-96786000D01*
X126734000Y-94984000D01*
X128536000Y-94984000D01*
X128536000Y-96786000D01*
X128536000Y-96786000D01*
G37*
G36*
X125205443Y-94990519D02*
G01*
X125271627Y-94997037D01*
X125441466Y-95048557D01*
X125597991Y-95132222D01*
X125633729Y-95161552D01*
X125735186Y-95244814D01*
X125818448Y-95346271D01*
X125847778Y-95382009D01*
X125931443Y-95538534D01*
X125982963Y-95708373D01*
X126000359Y-95885000D01*
X125982963Y-96061627D01*
X125931443Y-96231466D01*
X125847778Y-96387991D01*
X125832543Y-96406555D01*
X125735186Y-96525186D01*
X125633729Y-96608448D01*
X125597991Y-96637778D01*
X125441466Y-96721443D01*
X125271627Y-96772963D01*
X125205442Y-96779482D01*
X125139260Y-96786000D01*
X125050740Y-96786000D01*
X124984558Y-96779482D01*
X124918373Y-96772963D01*
X124748534Y-96721443D01*
X124592009Y-96637778D01*
X124556271Y-96608448D01*
X124454814Y-96525186D01*
X124357457Y-96406555D01*
X124342222Y-96387991D01*
X124258557Y-96231466D01*
X124207037Y-96061627D01*
X124189641Y-95885000D01*
X124207037Y-95708373D01*
X124258557Y-95538534D01*
X124342222Y-95382009D01*
X124371552Y-95346271D01*
X124454814Y-95244814D01*
X124556271Y-95161552D01*
X124592009Y-95132222D01*
X124748534Y-95048557D01*
X124918373Y-94997037D01*
X124984557Y-94990519D01*
X125050740Y-94984000D01*
X125139260Y-94984000D01*
X125205443Y-94990519D01*
X125205443Y-94990519D01*
G37*
G36*
X122665443Y-94990519D02*
G01*
X122731627Y-94997037D01*
X122901466Y-95048557D01*
X123057991Y-95132222D01*
X123093729Y-95161552D01*
X123195186Y-95244814D01*
X123278448Y-95346271D01*
X123307778Y-95382009D01*
X123391443Y-95538534D01*
X123442963Y-95708373D01*
X123460359Y-95885000D01*
X123442963Y-96061627D01*
X123391443Y-96231466D01*
X123307778Y-96387991D01*
X123292543Y-96406555D01*
X123195186Y-96525186D01*
X123093729Y-96608448D01*
X123057991Y-96637778D01*
X122901466Y-96721443D01*
X122731627Y-96772963D01*
X122665442Y-96779482D01*
X122599260Y-96786000D01*
X122510740Y-96786000D01*
X122444558Y-96779482D01*
X122378373Y-96772963D01*
X122208534Y-96721443D01*
X122052009Y-96637778D01*
X122016271Y-96608448D01*
X121914814Y-96525186D01*
X121817457Y-96406555D01*
X121802222Y-96387991D01*
X121718557Y-96231466D01*
X121667037Y-96061627D01*
X121649641Y-95885000D01*
X121667037Y-95708373D01*
X121718557Y-95538534D01*
X121802222Y-95382009D01*
X121831552Y-95346271D01*
X121914814Y-95244814D01*
X122016271Y-95161552D01*
X122052009Y-95132222D01*
X122208534Y-95048557D01*
X122378373Y-94997037D01*
X122444557Y-94990519D01*
X122510740Y-94984000D01*
X122599260Y-94984000D01*
X122665443Y-94990519D01*
X122665443Y-94990519D01*
G37*
G36*
X179815443Y-94990519D02*
G01*
X179881627Y-94997037D01*
X180051466Y-95048557D01*
X180207991Y-95132222D01*
X180243729Y-95161552D01*
X180345186Y-95244814D01*
X180428448Y-95346271D01*
X180457778Y-95382009D01*
X180541443Y-95538534D01*
X180592963Y-95708373D01*
X180610359Y-95885000D01*
X180592963Y-96061627D01*
X180541443Y-96231466D01*
X180457778Y-96387991D01*
X180442543Y-96406555D01*
X180345186Y-96525186D01*
X180243729Y-96608448D01*
X180207991Y-96637778D01*
X180051466Y-96721443D01*
X179881627Y-96772963D01*
X179815442Y-96779482D01*
X179749260Y-96786000D01*
X179660740Y-96786000D01*
X179594558Y-96779482D01*
X179528373Y-96772963D01*
X179358534Y-96721443D01*
X179202009Y-96637778D01*
X179166271Y-96608448D01*
X179064814Y-96525186D01*
X178967457Y-96406555D01*
X178952222Y-96387991D01*
X178868557Y-96231466D01*
X178817037Y-96061627D01*
X178799641Y-95885000D01*
X178817037Y-95708373D01*
X178868557Y-95538534D01*
X178952222Y-95382009D01*
X178981552Y-95346271D01*
X179064814Y-95244814D01*
X179166271Y-95161552D01*
X179202009Y-95132222D01*
X179358534Y-95048557D01*
X179528373Y-94997037D01*
X179594557Y-94990519D01*
X179660740Y-94984000D01*
X179749260Y-94984000D01*
X179815443Y-94990519D01*
X179815443Y-94990519D01*
G37*
G36*
X182355443Y-94990519D02*
G01*
X182421627Y-94997037D01*
X182591466Y-95048557D01*
X182747991Y-95132222D01*
X182783729Y-95161552D01*
X182885186Y-95244814D01*
X182968448Y-95346271D01*
X182997778Y-95382009D01*
X183081443Y-95538534D01*
X183132963Y-95708373D01*
X183150359Y-95885000D01*
X183132963Y-96061627D01*
X183081443Y-96231466D01*
X182997778Y-96387991D01*
X182982543Y-96406555D01*
X182885186Y-96525186D01*
X182783729Y-96608448D01*
X182747991Y-96637778D01*
X182591466Y-96721443D01*
X182421627Y-96772963D01*
X182355442Y-96779482D01*
X182289260Y-96786000D01*
X182200740Y-96786000D01*
X182134558Y-96779482D01*
X182068373Y-96772963D01*
X181898534Y-96721443D01*
X181742009Y-96637778D01*
X181706271Y-96608448D01*
X181604814Y-96525186D01*
X181507457Y-96406555D01*
X181492222Y-96387991D01*
X181408557Y-96231466D01*
X181357037Y-96061627D01*
X181339641Y-95885000D01*
X181357037Y-95708373D01*
X181408557Y-95538534D01*
X181492222Y-95382009D01*
X181521552Y-95346271D01*
X181604814Y-95244814D01*
X181706271Y-95161552D01*
X181742009Y-95132222D01*
X181898534Y-95048557D01*
X182068373Y-94997037D01*
X182134557Y-94990519D01*
X182200740Y-94984000D01*
X182289260Y-94984000D01*
X182355443Y-94990519D01*
X182355443Y-94990519D01*
G37*
G36*
X136685499Y-95363445D02*
G01*
X136722995Y-95374820D01*
X136757554Y-95393292D01*
X136787847Y-95418153D01*
X136812708Y-95448446D01*
X136831180Y-95483005D01*
X136842555Y-95520501D01*
X136847000Y-95565638D01*
X136847000Y-96204362D01*
X136842555Y-96249499D01*
X136831180Y-96286995D01*
X136812708Y-96321554D01*
X136787847Y-96351847D01*
X136757554Y-96376708D01*
X136722995Y-96395180D01*
X136685499Y-96406555D01*
X136640362Y-96411000D01*
X135901638Y-96411000D01*
X135856501Y-96406555D01*
X135819005Y-96395180D01*
X135784446Y-96376708D01*
X135754153Y-96351847D01*
X135729292Y-96321554D01*
X135710820Y-96286995D01*
X135699445Y-96249499D01*
X135695000Y-96204362D01*
X135695000Y-95565638D01*
X135699445Y-95520501D01*
X135710820Y-95483005D01*
X135729292Y-95448446D01*
X135754153Y-95418153D01*
X135784446Y-95393292D01*
X135819005Y-95374820D01*
X135856501Y-95363445D01*
X135901638Y-95359000D01*
X136640362Y-95359000D01*
X136685499Y-95363445D01*
X136685499Y-95363445D01*
G37*
G36*
X134935499Y-95363445D02*
G01*
X134972995Y-95374820D01*
X135007554Y-95393292D01*
X135037847Y-95418153D01*
X135062708Y-95448446D01*
X135081180Y-95483005D01*
X135092555Y-95520501D01*
X135097000Y-95565638D01*
X135097000Y-96204362D01*
X135092555Y-96249499D01*
X135081180Y-96286995D01*
X135062708Y-96321554D01*
X135037847Y-96351847D01*
X135007554Y-96376708D01*
X134972995Y-96395180D01*
X134935499Y-96406555D01*
X134890362Y-96411000D01*
X134151638Y-96411000D01*
X134106501Y-96406555D01*
X134069005Y-96395180D01*
X134034446Y-96376708D01*
X134004153Y-96351847D01*
X133979292Y-96321554D01*
X133960820Y-96286995D01*
X133949445Y-96249499D01*
X133945000Y-96204362D01*
X133945000Y-95565638D01*
X133949445Y-95520501D01*
X133960820Y-95483005D01*
X133979292Y-95448446D01*
X134004153Y-95418153D01*
X134034446Y-95393292D01*
X134069005Y-95374820D01*
X134106501Y-95363445D01*
X134151638Y-95359000D01*
X134890362Y-95359000D01*
X134935499Y-95363445D01*
X134935499Y-95363445D01*
G37*
G36*
X153858499Y-94982445D02*
G01*
X153895995Y-94993820D01*
X153930554Y-95012292D01*
X153960847Y-95037153D01*
X153985708Y-95067446D01*
X154004180Y-95102005D01*
X154015555Y-95139501D01*
X154020000Y-95184638D01*
X154020000Y-95823362D01*
X154015555Y-95868499D01*
X154004180Y-95905995D01*
X153985708Y-95940554D01*
X153960847Y-95970847D01*
X153930554Y-95995708D01*
X153895995Y-96014180D01*
X153858499Y-96025555D01*
X153813362Y-96030000D01*
X153074638Y-96030000D01*
X153029501Y-96025555D01*
X152992005Y-96014180D01*
X152957446Y-95995708D01*
X152927153Y-95970847D01*
X152902292Y-95940554D01*
X152883820Y-95905995D01*
X152872445Y-95868499D01*
X152868000Y-95823362D01*
X152868000Y-95184638D01*
X152872445Y-95139501D01*
X152883820Y-95102005D01*
X152902292Y-95067446D01*
X152927153Y-95037153D01*
X152957446Y-95012292D01*
X152992005Y-94993820D01*
X153029501Y-94982445D01*
X153074638Y-94978000D01*
X153813362Y-94978000D01*
X153858499Y-94982445D01*
X153858499Y-94982445D01*
G37*
G36*
X155608499Y-94982445D02*
G01*
X155645995Y-94993820D01*
X155680554Y-95012292D01*
X155710847Y-95037153D01*
X155735708Y-95067446D01*
X155754180Y-95102005D01*
X155765555Y-95139501D01*
X155770000Y-95184638D01*
X155770000Y-95823362D01*
X155765555Y-95868499D01*
X155754180Y-95905995D01*
X155735708Y-95940554D01*
X155710847Y-95970847D01*
X155680554Y-95995708D01*
X155645995Y-96014180D01*
X155608499Y-96025555D01*
X155563362Y-96030000D01*
X154824638Y-96030000D01*
X154779501Y-96025555D01*
X154742005Y-96014180D01*
X154707446Y-95995708D01*
X154677153Y-95970847D01*
X154652292Y-95940554D01*
X154633820Y-95905995D01*
X154622445Y-95868499D01*
X154618000Y-95823362D01*
X154618000Y-95184638D01*
X154622445Y-95139501D01*
X154633820Y-95102005D01*
X154652292Y-95067446D01*
X154677153Y-95037153D01*
X154707446Y-95012292D01*
X154742005Y-94993820D01*
X154779501Y-94982445D01*
X154824638Y-94978000D01*
X155563362Y-94978000D01*
X155608499Y-94982445D01*
X155608499Y-94982445D01*
G37*
G36*
X141336823Y-93776313D02*
G01*
X141497242Y-93824976D01*
X141629906Y-93895886D01*
X141645078Y-93903996D01*
X141774659Y-94010341D01*
X141881004Y-94139922D01*
X141881005Y-94139924D01*
X141960024Y-94287758D01*
X142008687Y-94448177D01*
X142025117Y-94615000D01*
X142008687Y-94781823D01*
X141960024Y-94942242D01*
X141932455Y-94993820D01*
X141881004Y-95090078D01*
X141774659Y-95219659D01*
X141645078Y-95326004D01*
X141645076Y-95326005D01*
X141497242Y-95405024D01*
X141336823Y-95453687D01*
X141211804Y-95466000D01*
X140728196Y-95466000D01*
X140603177Y-95453687D01*
X140442758Y-95405024D01*
X140294924Y-95326005D01*
X140294922Y-95326004D01*
X140165341Y-95219659D01*
X140058996Y-95090078D01*
X140007545Y-94993820D01*
X139979976Y-94942242D01*
X139931313Y-94781823D01*
X139914883Y-94615000D01*
X139931313Y-94448177D01*
X139979976Y-94287758D01*
X140058995Y-94139924D01*
X140058996Y-94139922D01*
X140165341Y-94010341D01*
X140294922Y-93903996D01*
X140310094Y-93895886D01*
X140442758Y-93824976D01*
X140603177Y-93776313D01*
X140728196Y-93764000D01*
X141211804Y-93764000D01*
X141336823Y-93776313D01*
X141336823Y-93776313D01*
G37*
G36*
X164196823Y-93776313D02*
G01*
X164357242Y-93824976D01*
X164489906Y-93895886D01*
X164505078Y-93903996D01*
X164634659Y-94010341D01*
X164741004Y-94139922D01*
X164741005Y-94139924D01*
X164820024Y-94287758D01*
X164868687Y-94448177D01*
X164885117Y-94615000D01*
X164868687Y-94781823D01*
X164820024Y-94942242D01*
X164792455Y-94993820D01*
X164741004Y-95090078D01*
X164634659Y-95219659D01*
X164505078Y-95326004D01*
X164505076Y-95326005D01*
X164357242Y-95405024D01*
X164196823Y-95453687D01*
X164071804Y-95466000D01*
X163588196Y-95466000D01*
X163463177Y-95453687D01*
X163302758Y-95405024D01*
X163154924Y-95326005D01*
X163154922Y-95326004D01*
X163025341Y-95219659D01*
X162918996Y-95090078D01*
X162867545Y-94993820D01*
X162839976Y-94942242D01*
X162791313Y-94781823D01*
X162774883Y-94615000D01*
X162791313Y-94448177D01*
X162839976Y-94287758D01*
X162918995Y-94139924D01*
X162918996Y-94139922D01*
X163025341Y-94010341D01*
X163154922Y-93903996D01*
X163170094Y-93895886D01*
X163302758Y-93824976D01*
X163463177Y-93776313D01*
X163588196Y-93764000D01*
X164071804Y-93764000D01*
X164196823Y-93776313D01*
X164196823Y-93776313D01*
G37*
G36*
X128536000Y-93611000D02*
G01*
X126734000Y-93611000D01*
X126734000Y-91809000D01*
X128536000Y-91809000D01*
X128536000Y-93611000D01*
X128536000Y-93611000D01*
G37*
G36*
X125205442Y-91815518D02*
G01*
X125271627Y-91822037D01*
X125441466Y-91873557D01*
X125597991Y-91957222D01*
X125633729Y-91986552D01*
X125735186Y-92069814D01*
X125818448Y-92171271D01*
X125847778Y-92207009D01*
X125931443Y-92363534D01*
X125982963Y-92533373D01*
X126000359Y-92710000D01*
X125982963Y-92886627D01*
X125931443Y-93056466D01*
X125847778Y-93212991D01*
X125818448Y-93248729D01*
X125735186Y-93350186D01*
X125633729Y-93433448D01*
X125597991Y-93462778D01*
X125441466Y-93546443D01*
X125271627Y-93597963D01*
X125205442Y-93604482D01*
X125139260Y-93611000D01*
X125050740Y-93611000D01*
X124984557Y-93604481D01*
X124918373Y-93597963D01*
X124748534Y-93546443D01*
X124592009Y-93462778D01*
X124556271Y-93433448D01*
X124454814Y-93350186D01*
X124371552Y-93248729D01*
X124342222Y-93212991D01*
X124258557Y-93056466D01*
X124207037Y-92886627D01*
X124189641Y-92710000D01*
X124207037Y-92533373D01*
X124258557Y-92363534D01*
X124342222Y-92207009D01*
X124371552Y-92171271D01*
X124454814Y-92069814D01*
X124556271Y-91986552D01*
X124592009Y-91957222D01*
X124748534Y-91873557D01*
X124918373Y-91822037D01*
X124984558Y-91815518D01*
X125050740Y-91809000D01*
X125139260Y-91809000D01*
X125205442Y-91815518D01*
X125205442Y-91815518D01*
G37*
G36*
X122665442Y-91815518D02*
G01*
X122731627Y-91822037D01*
X122901466Y-91873557D01*
X123057991Y-91957222D01*
X123093729Y-91986552D01*
X123195186Y-92069814D01*
X123278448Y-92171271D01*
X123307778Y-92207009D01*
X123391443Y-92363534D01*
X123442963Y-92533373D01*
X123460359Y-92710000D01*
X123442963Y-92886627D01*
X123391443Y-93056466D01*
X123307778Y-93212991D01*
X123278448Y-93248729D01*
X123195186Y-93350186D01*
X123093729Y-93433448D01*
X123057991Y-93462778D01*
X122901466Y-93546443D01*
X122731627Y-93597963D01*
X122665443Y-93604481D01*
X122599260Y-93611000D01*
X122510740Y-93611000D01*
X122444557Y-93604481D01*
X122378373Y-93597963D01*
X122208534Y-93546443D01*
X122052009Y-93462778D01*
X122016271Y-93433448D01*
X121914814Y-93350186D01*
X121831552Y-93248729D01*
X121802222Y-93212991D01*
X121718557Y-93056466D01*
X121667037Y-92886627D01*
X121649641Y-92710000D01*
X121667037Y-92533373D01*
X121718557Y-92363534D01*
X121802222Y-92207009D01*
X121831552Y-92171271D01*
X121914814Y-92069814D01*
X122016271Y-91986552D01*
X122052009Y-91957222D01*
X122208534Y-91873557D01*
X122378373Y-91822037D01*
X122444558Y-91815518D01*
X122510740Y-91809000D01*
X122599260Y-91809000D01*
X122665442Y-91815518D01*
X122665442Y-91815518D01*
G37*
G36*
X179815442Y-91815518D02*
G01*
X179881627Y-91822037D01*
X180051466Y-91873557D01*
X180207991Y-91957222D01*
X180243729Y-91986552D01*
X180345186Y-92069814D01*
X180428448Y-92171271D01*
X180457778Y-92207009D01*
X180541443Y-92363534D01*
X180592963Y-92533373D01*
X180610359Y-92710000D01*
X180592963Y-92886627D01*
X180541443Y-93056466D01*
X180457778Y-93212991D01*
X180428448Y-93248729D01*
X180345186Y-93350186D01*
X180243729Y-93433448D01*
X180207991Y-93462778D01*
X180051466Y-93546443D01*
X179881627Y-93597963D01*
X179815442Y-93604482D01*
X179749260Y-93611000D01*
X179660740Y-93611000D01*
X179594557Y-93604481D01*
X179528373Y-93597963D01*
X179358534Y-93546443D01*
X179202009Y-93462778D01*
X179166271Y-93433448D01*
X179064814Y-93350186D01*
X178981552Y-93248729D01*
X178952222Y-93212991D01*
X178868557Y-93056466D01*
X178817037Y-92886627D01*
X178799641Y-92710000D01*
X178817037Y-92533373D01*
X178868557Y-92363534D01*
X178952222Y-92207009D01*
X178981552Y-92171271D01*
X179064814Y-92069814D01*
X179166271Y-91986552D01*
X179202009Y-91957222D01*
X179358534Y-91873557D01*
X179528373Y-91822037D01*
X179594558Y-91815518D01*
X179660740Y-91809000D01*
X179749260Y-91809000D01*
X179815442Y-91815518D01*
X179815442Y-91815518D01*
G37*
G36*
X178066000Y-93611000D02*
G01*
X176264000Y-93611000D01*
X176264000Y-91809000D01*
X178066000Y-91809000D01*
X178066000Y-93611000D01*
X178066000Y-93611000D01*
G37*
G36*
X182355442Y-91815518D02*
G01*
X182421627Y-91822037D01*
X182591466Y-91873557D01*
X182747991Y-91957222D01*
X182783729Y-91986552D01*
X182885186Y-92069814D01*
X182968448Y-92171271D01*
X182997778Y-92207009D01*
X183081443Y-92363534D01*
X183132963Y-92533373D01*
X183150359Y-92710000D01*
X183132963Y-92886627D01*
X183081443Y-93056466D01*
X182997778Y-93212991D01*
X182968448Y-93248729D01*
X182885186Y-93350186D01*
X182783729Y-93433448D01*
X182747991Y-93462778D01*
X182591466Y-93546443D01*
X182421627Y-93597963D01*
X182355442Y-93604482D01*
X182289260Y-93611000D01*
X182200740Y-93611000D01*
X182134557Y-93604481D01*
X182068373Y-93597963D01*
X181898534Y-93546443D01*
X181742009Y-93462778D01*
X181706271Y-93433448D01*
X181604814Y-93350186D01*
X181521552Y-93248729D01*
X181492222Y-93212991D01*
X181408557Y-93056466D01*
X181357037Y-92886627D01*
X181339641Y-92710000D01*
X181357037Y-92533373D01*
X181408557Y-92363534D01*
X181492222Y-92207009D01*
X181521552Y-92171271D01*
X181604814Y-92069814D01*
X181706271Y-91986552D01*
X181742009Y-91957222D01*
X181898534Y-91873557D01*
X182068373Y-91822037D01*
X182134558Y-91815518D01*
X182200740Y-91809000D01*
X182289260Y-91809000D01*
X182355442Y-91815518D01*
X182355442Y-91815518D01*
G37*
G36*
X141336823Y-91236313D02*
G01*
X141497242Y-91284976D01*
X141629906Y-91355886D01*
X141645078Y-91363996D01*
X141774659Y-91470341D01*
X141881004Y-91599922D01*
X141881005Y-91599924D01*
X141960024Y-91747758D01*
X142008687Y-91908177D01*
X142025117Y-92075000D01*
X142008687Y-92241823D01*
X141960024Y-92402242D01*
X141889933Y-92533373D01*
X141881004Y-92550078D01*
X141774659Y-92679659D01*
X141645078Y-92786004D01*
X141645076Y-92786005D01*
X141497242Y-92865024D01*
X141336823Y-92913687D01*
X141211804Y-92926000D01*
X140728196Y-92926000D01*
X140603177Y-92913687D01*
X140442758Y-92865024D01*
X140294924Y-92786005D01*
X140294922Y-92786004D01*
X140165341Y-92679659D01*
X140058996Y-92550078D01*
X140050067Y-92533373D01*
X139979976Y-92402242D01*
X139931313Y-92241823D01*
X139914883Y-92075000D01*
X139931313Y-91908177D01*
X139979976Y-91747758D01*
X140058995Y-91599924D01*
X140058996Y-91599922D01*
X140165341Y-91470341D01*
X140294922Y-91363996D01*
X140310094Y-91355886D01*
X140442758Y-91284976D01*
X140603177Y-91236313D01*
X140728196Y-91224000D01*
X141211804Y-91224000D01*
X141336823Y-91236313D01*
X141336823Y-91236313D01*
G37*
G36*
X164196823Y-91236313D02*
G01*
X164357242Y-91284976D01*
X164489906Y-91355886D01*
X164505078Y-91363996D01*
X164634659Y-91470341D01*
X164741004Y-91599922D01*
X164741005Y-91599924D01*
X164820024Y-91747758D01*
X164868687Y-91908177D01*
X164885117Y-92075000D01*
X164868687Y-92241823D01*
X164820024Y-92402242D01*
X164749933Y-92533373D01*
X164741004Y-92550078D01*
X164634659Y-92679659D01*
X164505078Y-92786004D01*
X164505076Y-92786005D01*
X164357242Y-92865024D01*
X164196823Y-92913687D01*
X164071804Y-92926000D01*
X163588196Y-92926000D01*
X163463177Y-92913687D01*
X163302758Y-92865024D01*
X163154924Y-92786005D01*
X163154922Y-92786004D01*
X163025341Y-92679659D01*
X162918996Y-92550078D01*
X162910067Y-92533373D01*
X162839976Y-92402242D01*
X162791313Y-92241823D01*
X162774883Y-92075000D01*
X162791313Y-91908177D01*
X162839976Y-91747758D01*
X162918995Y-91599924D01*
X162918996Y-91599922D01*
X163025341Y-91470341D01*
X163154922Y-91363996D01*
X163170094Y-91355886D01*
X163302758Y-91284976D01*
X163463177Y-91236313D01*
X163588196Y-91224000D01*
X164071804Y-91224000D01*
X164196823Y-91236313D01*
X164196823Y-91236313D01*
G37*
G36*
X179815443Y-88640519D02*
G01*
X179881627Y-88647037D01*
X180051466Y-88698557D01*
X180207991Y-88782222D01*
X180243729Y-88811552D01*
X180345186Y-88894814D01*
X180428448Y-88996271D01*
X180457778Y-89032009D01*
X180541443Y-89188534D01*
X180592963Y-89358373D01*
X180610359Y-89535000D01*
X180592963Y-89711627D01*
X180541443Y-89881466D01*
X180457778Y-90037991D01*
X180428448Y-90073729D01*
X180345186Y-90175186D01*
X180243729Y-90258448D01*
X180207991Y-90287778D01*
X180051466Y-90371443D01*
X179881627Y-90422963D01*
X179815443Y-90429481D01*
X179749260Y-90436000D01*
X179660740Y-90436000D01*
X179594557Y-90429481D01*
X179528373Y-90422963D01*
X179358534Y-90371443D01*
X179202009Y-90287778D01*
X179166271Y-90258448D01*
X179064814Y-90175186D01*
X178981552Y-90073729D01*
X178952222Y-90037991D01*
X178868557Y-89881466D01*
X178817037Y-89711627D01*
X178799641Y-89535000D01*
X178817037Y-89358373D01*
X178868557Y-89188534D01*
X178952222Y-89032009D01*
X178981552Y-88996271D01*
X179064814Y-88894814D01*
X179166271Y-88811552D01*
X179202009Y-88782222D01*
X179358534Y-88698557D01*
X179528373Y-88647037D01*
X179594557Y-88640519D01*
X179660740Y-88634000D01*
X179749260Y-88634000D01*
X179815443Y-88640519D01*
X179815443Y-88640519D01*
G37*
G36*
X178066000Y-90436000D02*
G01*
X176264000Y-90436000D01*
X176264000Y-88634000D01*
X178066000Y-88634000D01*
X178066000Y-90436000D01*
X178066000Y-90436000D01*
G37*
G36*
X128536000Y-90436000D02*
G01*
X126734000Y-90436000D01*
X126734000Y-88634000D01*
X128536000Y-88634000D01*
X128536000Y-90436000D01*
X128536000Y-90436000D01*
G37*
G36*
X122665443Y-88640519D02*
G01*
X122731627Y-88647037D01*
X122901466Y-88698557D01*
X123057991Y-88782222D01*
X123093729Y-88811552D01*
X123195186Y-88894814D01*
X123278448Y-88996271D01*
X123307778Y-89032009D01*
X123391443Y-89188534D01*
X123442963Y-89358373D01*
X123460359Y-89535000D01*
X123442963Y-89711627D01*
X123391443Y-89881466D01*
X123307778Y-90037991D01*
X123278448Y-90073729D01*
X123195186Y-90175186D01*
X123093729Y-90258448D01*
X123057991Y-90287778D01*
X122901466Y-90371443D01*
X122731627Y-90422963D01*
X122665443Y-90429481D01*
X122599260Y-90436000D01*
X122510740Y-90436000D01*
X122444557Y-90429481D01*
X122378373Y-90422963D01*
X122208534Y-90371443D01*
X122052009Y-90287778D01*
X122016271Y-90258448D01*
X121914814Y-90175186D01*
X121831552Y-90073729D01*
X121802222Y-90037991D01*
X121718557Y-89881466D01*
X121667037Y-89711627D01*
X121649641Y-89535000D01*
X121667037Y-89358373D01*
X121718557Y-89188534D01*
X121802222Y-89032009D01*
X121831552Y-88996271D01*
X121914814Y-88894814D01*
X122016271Y-88811552D01*
X122052009Y-88782222D01*
X122208534Y-88698557D01*
X122378373Y-88647037D01*
X122444557Y-88640519D01*
X122510740Y-88634000D01*
X122599260Y-88634000D01*
X122665443Y-88640519D01*
X122665443Y-88640519D01*
G37*
G36*
X125205443Y-88640519D02*
G01*
X125271627Y-88647037D01*
X125441466Y-88698557D01*
X125597991Y-88782222D01*
X125633729Y-88811552D01*
X125735186Y-88894814D01*
X125818448Y-88996271D01*
X125847778Y-89032009D01*
X125931443Y-89188534D01*
X125982963Y-89358373D01*
X126000359Y-89535000D01*
X125982963Y-89711627D01*
X125931443Y-89881466D01*
X125847778Y-90037991D01*
X125818448Y-90073729D01*
X125735186Y-90175186D01*
X125633729Y-90258448D01*
X125597991Y-90287778D01*
X125441466Y-90371443D01*
X125271627Y-90422963D01*
X125205443Y-90429481D01*
X125139260Y-90436000D01*
X125050740Y-90436000D01*
X124984557Y-90429481D01*
X124918373Y-90422963D01*
X124748534Y-90371443D01*
X124592009Y-90287778D01*
X124556271Y-90258448D01*
X124454814Y-90175186D01*
X124371552Y-90073729D01*
X124342222Y-90037991D01*
X124258557Y-89881466D01*
X124207037Y-89711627D01*
X124189641Y-89535000D01*
X124207037Y-89358373D01*
X124258557Y-89188534D01*
X124342222Y-89032009D01*
X124371552Y-88996271D01*
X124454814Y-88894814D01*
X124556271Y-88811552D01*
X124592009Y-88782222D01*
X124748534Y-88698557D01*
X124918373Y-88647037D01*
X124984557Y-88640519D01*
X125050740Y-88634000D01*
X125139260Y-88634000D01*
X125205443Y-88640519D01*
X125205443Y-88640519D01*
G37*
G36*
X182355443Y-88640519D02*
G01*
X182421627Y-88647037D01*
X182591466Y-88698557D01*
X182747991Y-88782222D01*
X182783729Y-88811552D01*
X182885186Y-88894814D01*
X182968448Y-88996271D01*
X182997778Y-89032009D01*
X183081443Y-89188534D01*
X183132963Y-89358373D01*
X183150359Y-89535000D01*
X183132963Y-89711627D01*
X183081443Y-89881466D01*
X182997778Y-90037991D01*
X182968448Y-90073729D01*
X182885186Y-90175186D01*
X182783729Y-90258448D01*
X182747991Y-90287778D01*
X182591466Y-90371443D01*
X182421627Y-90422963D01*
X182355443Y-90429481D01*
X182289260Y-90436000D01*
X182200740Y-90436000D01*
X182134557Y-90429481D01*
X182068373Y-90422963D01*
X181898534Y-90371443D01*
X181742009Y-90287778D01*
X181706271Y-90258448D01*
X181604814Y-90175186D01*
X181521552Y-90073729D01*
X181492222Y-90037991D01*
X181408557Y-89881466D01*
X181357037Y-89711627D01*
X181339641Y-89535000D01*
X181357037Y-89358373D01*
X181408557Y-89188534D01*
X181492222Y-89032009D01*
X181521552Y-88996271D01*
X181604814Y-88894814D01*
X181706271Y-88811552D01*
X181742009Y-88782222D01*
X181898534Y-88698557D01*
X182068373Y-88647037D01*
X182134557Y-88640519D01*
X182200740Y-88634000D01*
X182289260Y-88634000D01*
X182355443Y-88640519D01*
X182355443Y-88640519D01*
G37*
G36*
X164196823Y-88696313D02*
G01*
X164357242Y-88744976D01*
X164426922Y-88782221D01*
X164505078Y-88823996D01*
X164634659Y-88930341D01*
X164741004Y-89059922D01*
X164741005Y-89059924D01*
X164820024Y-89207758D01*
X164868687Y-89368177D01*
X164885117Y-89535000D01*
X164868687Y-89701823D01*
X164820024Y-89862242D01*
X164809747Y-89881468D01*
X164741004Y-90010078D01*
X164634659Y-90139659D01*
X164505078Y-90246004D01*
X164505076Y-90246005D01*
X164357242Y-90325024D01*
X164196823Y-90373687D01*
X164071804Y-90386000D01*
X163588196Y-90386000D01*
X163463177Y-90373687D01*
X163302758Y-90325024D01*
X163154924Y-90246005D01*
X163154922Y-90246004D01*
X163025341Y-90139659D01*
X162918996Y-90010078D01*
X162850253Y-89881468D01*
X162839976Y-89862242D01*
X162791313Y-89701823D01*
X162774883Y-89535000D01*
X162791313Y-89368177D01*
X162839976Y-89207758D01*
X162918995Y-89059924D01*
X162918996Y-89059922D01*
X163025341Y-88930341D01*
X163154922Y-88823996D01*
X163233078Y-88782221D01*
X163302758Y-88744976D01*
X163463177Y-88696313D01*
X163588196Y-88684000D01*
X164071804Y-88684000D01*
X164196823Y-88696313D01*
X164196823Y-88696313D01*
G37*
G36*
X141336823Y-88696313D02*
G01*
X141497242Y-88744976D01*
X141566922Y-88782221D01*
X141645078Y-88823996D01*
X141774659Y-88930341D01*
X141881004Y-89059922D01*
X141881005Y-89059924D01*
X141960024Y-89207758D01*
X142008687Y-89368177D01*
X142025117Y-89535000D01*
X142008687Y-89701823D01*
X141960024Y-89862242D01*
X141949747Y-89881468D01*
X141881004Y-90010078D01*
X141774659Y-90139659D01*
X141645078Y-90246004D01*
X141645076Y-90246005D01*
X141497242Y-90325024D01*
X141336823Y-90373687D01*
X141211804Y-90386000D01*
X140728196Y-90386000D01*
X140603177Y-90373687D01*
X140442758Y-90325024D01*
X140294924Y-90246005D01*
X140294922Y-90246004D01*
X140165341Y-90139659D01*
X140058996Y-90010078D01*
X139990253Y-89881468D01*
X139979976Y-89862242D01*
X139931313Y-89701823D01*
X139914883Y-89535000D01*
X139931313Y-89368177D01*
X139979976Y-89207758D01*
X140058995Y-89059924D01*
X140058996Y-89059922D01*
X140165341Y-88930341D01*
X140294922Y-88823996D01*
X140373078Y-88782221D01*
X140442758Y-88744976D01*
X140603177Y-88696313D01*
X140728196Y-88684000D01*
X141211804Y-88684000D01*
X141336823Y-88696313D01*
X141336823Y-88696313D01*
G37*
G36*
X167750442Y-86100518D02*
G01*
X167816627Y-86107037D01*
X167986466Y-86158557D01*
X168142991Y-86242222D01*
X168178729Y-86271552D01*
X168280186Y-86354814D01*
X168363448Y-86456271D01*
X168392778Y-86492009D01*
X168476443Y-86648534D01*
X168527963Y-86818373D01*
X168545359Y-86995000D01*
X168527963Y-87171627D01*
X168476443Y-87341466D01*
X168392778Y-87497991D01*
X168363448Y-87533729D01*
X168280186Y-87635186D01*
X168178729Y-87718448D01*
X168142991Y-87747778D01*
X167986466Y-87831443D01*
X167816627Y-87882963D01*
X167750443Y-87889481D01*
X167684260Y-87896000D01*
X167595740Y-87896000D01*
X167529557Y-87889481D01*
X167463373Y-87882963D01*
X167293534Y-87831443D01*
X167137009Y-87747778D01*
X167101271Y-87718448D01*
X166999814Y-87635186D01*
X166916552Y-87533729D01*
X166887222Y-87497991D01*
X166803557Y-87341466D01*
X166752037Y-87171627D01*
X166734641Y-86995000D01*
X166752037Y-86818373D01*
X166803557Y-86648534D01*
X166887222Y-86492009D01*
X166916552Y-86456271D01*
X166999814Y-86354814D01*
X167101271Y-86271552D01*
X167137009Y-86242222D01*
X167293534Y-86158557D01*
X167463373Y-86107037D01*
X167529558Y-86100518D01*
X167595740Y-86094000D01*
X167684260Y-86094000D01*
X167750442Y-86100518D01*
X167750442Y-86100518D01*
G37*
G36*
X164196823Y-86156313D02*
G01*
X164357242Y-86204976D01*
X164426922Y-86242221D01*
X164505078Y-86283996D01*
X164634659Y-86390341D01*
X164741004Y-86519922D01*
X164741005Y-86519924D01*
X164820024Y-86667758D01*
X164868687Y-86828177D01*
X164885117Y-86995000D01*
X164868687Y-87161823D01*
X164820024Y-87322242D01*
X164809747Y-87341468D01*
X164741004Y-87470078D01*
X164634659Y-87599659D01*
X164505078Y-87706004D01*
X164505076Y-87706005D01*
X164357242Y-87785024D01*
X164196823Y-87833687D01*
X164071804Y-87846000D01*
X163588196Y-87846000D01*
X163463177Y-87833687D01*
X163302758Y-87785024D01*
X163154924Y-87706005D01*
X163154922Y-87706004D01*
X163025341Y-87599659D01*
X162918996Y-87470078D01*
X162850253Y-87341468D01*
X162839976Y-87322242D01*
X162791313Y-87161823D01*
X162774883Y-86995000D01*
X162791313Y-86828177D01*
X162839976Y-86667758D01*
X162918995Y-86519924D01*
X162918996Y-86519922D01*
X163025341Y-86390341D01*
X163154922Y-86283996D01*
X163233078Y-86242221D01*
X163302758Y-86204976D01*
X163463177Y-86156313D01*
X163588196Y-86144000D01*
X164071804Y-86144000D01*
X164196823Y-86156313D01*
X164196823Y-86156313D01*
G37*
G36*
X141336823Y-86156313D02*
G01*
X141497242Y-86204976D01*
X141566922Y-86242221D01*
X141645078Y-86283996D01*
X141774659Y-86390341D01*
X141881004Y-86519922D01*
X141881005Y-86519924D01*
X141960024Y-86667758D01*
X142008687Y-86828177D01*
X142025117Y-86995000D01*
X142008687Y-87161823D01*
X141960024Y-87322242D01*
X141949747Y-87341468D01*
X141881004Y-87470078D01*
X141774659Y-87599659D01*
X141645078Y-87706004D01*
X141645076Y-87706005D01*
X141497242Y-87785024D01*
X141336823Y-87833687D01*
X141211804Y-87846000D01*
X140728196Y-87846000D01*
X140603177Y-87833687D01*
X140442758Y-87785024D01*
X140294924Y-87706005D01*
X140294922Y-87706004D01*
X140165341Y-87599659D01*
X140058996Y-87470078D01*
X139990253Y-87341468D01*
X139979976Y-87322242D01*
X139931313Y-87161823D01*
X139914883Y-86995000D01*
X139931313Y-86828177D01*
X139979976Y-86667758D01*
X140058995Y-86519924D01*
X140058996Y-86519922D01*
X140165341Y-86390341D01*
X140294922Y-86283996D01*
X140373078Y-86242221D01*
X140442758Y-86204976D01*
X140603177Y-86156313D01*
X140728196Y-86144000D01*
X141211804Y-86144000D01*
X141336823Y-86156313D01*
X141336823Y-86156313D01*
G37*
G36*
X178066000Y-87261000D02*
G01*
X176264000Y-87261000D01*
X176264000Y-85459000D01*
X178066000Y-85459000D01*
X178066000Y-87261000D01*
X178066000Y-87261000D01*
G37*
G36*
X122665442Y-85465518D02*
G01*
X122731627Y-85472037D01*
X122901466Y-85523557D01*
X123057991Y-85607222D01*
X123093729Y-85636552D01*
X123195186Y-85719814D01*
X123278448Y-85821271D01*
X123307778Y-85857009D01*
X123391443Y-86013534D01*
X123442963Y-86183373D01*
X123460359Y-86360000D01*
X123442963Y-86536627D01*
X123391443Y-86706466D01*
X123307778Y-86862991D01*
X123278448Y-86898729D01*
X123195186Y-87000186D01*
X123093729Y-87083448D01*
X123057991Y-87112778D01*
X122901466Y-87196443D01*
X122731627Y-87247963D01*
X122665442Y-87254482D01*
X122599260Y-87261000D01*
X122510740Y-87261000D01*
X122444558Y-87254482D01*
X122378373Y-87247963D01*
X122208534Y-87196443D01*
X122052009Y-87112778D01*
X122016271Y-87083448D01*
X121914814Y-87000186D01*
X121831552Y-86898729D01*
X121802222Y-86862991D01*
X121718557Y-86706466D01*
X121667037Y-86536627D01*
X121649641Y-86360000D01*
X121667037Y-86183373D01*
X121718557Y-86013534D01*
X121802222Y-85857009D01*
X121831552Y-85821271D01*
X121914814Y-85719814D01*
X122016271Y-85636552D01*
X122052009Y-85607222D01*
X122208534Y-85523557D01*
X122378373Y-85472037D01*
X122444558Y-85465518D01*
X122510740Y-85459000D01*
X122599260Y-85459000D01*
X122665442Y-85465518D01*
X122665442Y-85465518D01*
G37*
G36*
X125205442Y-85465518D02*
G01*
X125271627Y-85472037D01*
X125441466Y-85523557D01*
X125597991Y-85607222D01*
X125633729Y-85636552D01*
X125735186Y-85719814D01*
X125818448Y-85821271D01*
X125847778Y-85857009D01*
X125931443Y-86013534D01*
X125982963Y-86183373D01*
X126000359Y-86360000D01*
X125982963Y-86536627D01*
X125931443Y-86706466D01*
X125847778Y-86862991D01*
X125818448Y-86898729D01*
X125735186Y-87000186D01*
X125633729Y-87083448D01*
X125597991Y-87112778D01*
X125441466Y-87196443D01*
X125271627Y-87247963D01*
X125205442Y-87254482D01*
X125139260Y-87261000D01*
X125050740Y-87261000D01*
X124984558Y-87254482D01*
X124918373Y-87247963D01*
X124748534Y-87196443D01*
X124592009Y-87112778D01*
X124556271Y-87083448D01*
X124454814Y-87000186D01*
X124371552Y-86898729D01*
X124342222Y-86862991D01*
X124258557Y-86706466D01*
X124207037Y-86536627D01*
X124189641Y-86360000D01*
X124207037Y-86183373D01*
X124258557Y-86013534D01*
X124342222Y-85857009D01*
X124371552Y-85821271D01*
X124454814Y-85719814D01*
X124556271Y-85636552D01*
X124592009Y-85607222D01*
X124748534Y-85523557D01*
X124918373Y-85472037D01*
X124984558Y-85465518D01*
X125050740Y-85459000D01*
X125139260Y-85459000D01*
X125205442Y-85465518D01*
X125205442Y-85465518D01*
G37*
G36*
X128536000Y-87261000D02*
G01*
X126734000Y-87261000D01*
X126734000Y-85459000D01*
X128536000Y-85459000D01*
X128536000Y-87261000D01*
X128536000Y-87261000D01*
G37*
G36*
X179815442Y-85465518D02*
G01*
X179881627Y-85472037D01*
X180051466Y-85523557D01*
X180207991Y-85607222D01*
X180243729Y-85636552D01*
X180345186Y-85719814D01*
X180428448Y-85821271D01*
X180457778Y-85857009D01*
X180541443Y-86013534D01*
X180592963Y-86183373D01*
X180610359Y-86360000D01*
X180592963Y-86536627D01*
X180541443Y-86706466D01*
X180457778Y-86862991D01*
X180428448Y-86898729D01*
X180345186Y-87000186D01*
X180243729Y-87083448D01*
X180207991Y-87112778D01*
X180051466Y-87196443D01*
X179881627Y-87247963D01*
X179815442Y-87254482D01*
X179749260Y-87261000D01*
X179660740Y-87261000D01*
X179594558Y-87254482D01*
X179528373Y-87247963D01*
X179358534Y-87196443D01*
X179202009Y-87112778D01*
X179166271Y-87083448D01*
X179064814Y-87000186D01*
X178981552Y-86898729D01*
X178952222Y-86862991D01*
X178868557Y-86706466D01*
X178817037Y-86536627D01*
X178799641Y-86360000D01*
X178817037Y-86183373D01*
X178868557Y-86013534D01*
X178952222Y-85857009D01*
X178981552Y-85821271D01*
X179064814Y-85719814D01*
X179166271Y-85636552D01*
X179202009Y-85607222D01*
X179358534Y-85523557D01*
X179528373Y-85472037D01*
X179594558Y-85465518D01*
X179660740Y-85459000D01*
X179749260Y-85459000D01*
X179815442Y-85465518D01*
X179815442Y-85465518D01*
G37*
G36*
X182355442Y-85465518D02*
G01*
X182421627Y-85472037D01*
X182591466Y-85523557D01*
X182747991Y-85607222D01*
X182783729Y-85636552D01*
X182885186Y-85719814D01*
X182968448Y-85821271D01*
X182997778Y-85857009D01*
X183081443Y-86013534D01*
X183132963Y-86183373D01*
X183150359Y-86360000D01*
X183132963Y-86536627D01*
X183081443Y-86706466D01*
X182997778Y-86862991D01*
X182968448Y-86898729D01*
X182885186Y-87000186D01*
X182783729Y-87083448D01*
X182747991Y-87112778D01*
X182591466Y-87196443D01*
X182421627Y-87247963D01*
X182355442Y-87254482D01*
X182289260Y-87261000D01*
X182200740Y-87261000D01*
X182134558Y-87254482D01*
X182068373Y-87247963D01*
X181898534Y-87196443D01*
X181742009Y-87112778D01*
X181706271Y-87083448D01*
X181604814Y-87000186D01*
X181521552Y-86898729D01*
X181492222Y-86862991D01*
X181408557Y-86706466D01*
X181357037Y-86536627D01*
X181339641Y-86360000D01*
X181357037Y-86183373D01*
X181408557Y-86013534D01*
X181492222Y-85857009D01*
X181521552Y-85821271D01*
X181604814Y-85719814D01*
X181706271Y-85636552D01*
X181742009Y-85607222D01*
X181898534Y-85523557D01*
X182068373Y-85472037D01*
X182134558Y-85465518D01*
X182200740Y-85459000D01*
X182289260Y-85459000D01*
X182355442Y-85465518D01*
X182355442Y-85465518D01*
G37*
G36*
X167750443Y-83560519D02*
G01*
X167816627Y-83567037D01*
X167986466Y-83618557D01*
X168142991Y-83702222D01*
X168173464Y-83727231D01*
X168280186Y-83814814D01*
X168363448Y-83916271D01*
X168392778Y-83952009D01*
X168476443Y-84108534D01*
X168527963Y-84278373D01*
X168545359Y-84455000D01*
X168527963Y-84631627D01*
X168476443Y-84801466D01*
X168392778Y-84957991D01*
X168363448Y-84993729D01*
X168280186Y-85095186D01*
X168178729Y-85178448D01*
X168142991Y-85207778D01*
X167986466Y-85291443D01*
X167816627Y-85342963D01*
X167750442Y-85349482D01*
X167684260Y-85356000D01*
X167595740Y-85356000D01*
X167529558Y-85349482D01*
X167463373Y-85342963D01*
X167293534Y-85291443D01*
X167137009Y-85207778D01*
X167101271Y-85178448D01*
X166999814Y-85095186D01*
X166916552Y-84993729D01*
X166887222Y-84957991D01*
X166803557Y-84801466D01*
X166752037Y-84631627D01*
X166734641Y-84455000D01*
X166752037Y-84278373D01*
X166803557Y-84108534D01*
X166887222Y-83952009D01*
X166916552Y-83916271D01*
X166999814Y-83814814D01*
X167106536Y-83727231D01*
X167137009Y-83702222D01*
X167293534Y-83618557D01*
X167463373Y-83567037D01*
X167529557Y-83560519D01*
X167595740Y-83554000D01*
X167684260Y-83554000D01*
X167750443Y-83560519D01*
X167750443Y-83560519D01*
G37*
G36*
X141336823Y-83616313D02*
G01*
X141497242Y-83664976D01*
X141566922Y-83702221D01*
X141645078Y-83743996D01*
X141774659Y-83850341D01*
X141881004Y-83979922D01*
X141881005Y-83979924D01*
X141960024Y-84127758D01*
X142008687Y-84288177D01*
X142025117Y-84455000D01*
X142008687Y-84621823D01*
X141960024Y-84782242D01*
X141949747Y-84801468D01*
X141881004Y-84930078D01*
X141774659Y-85059659D01*
X141645078Y-85166004D01*
X141645076Y-85166005D01*
X141497242Y-85245024D01*
X141336823Y-85293687D01*
X141211804Y-85306000D01*
X140728196Y-85306000D01*
X140603177Y-85293687D01*
X140442758Y-85245024D01*
X140294924Y-85166005D01*
X140294922Y-85166004D01*
X140165341Y-85059659D01*
X140058996Y-84930078D01*
X139990253Y-84801468D01*
X139979976Y-84782242D01*
X139931313Y-84621823D01*
X139914883Y-84455000D01*
X139931313Y-84288177D01*
X139979976Y-84127758D01*
X140058995Y-83979924D01*
X140058996Y-83979922D01*
X140165341Y-83850341D01*
X140294922Y-83743996D01*
X140373078Y-83702221D01*
X140442758Y-83664976D01*
X140603177Y-83616313D01*
X140728196Y-83604000D01*
X141211804Y-83604000D01*
X141336823Y-83616313D01*
X141336823Y-83616313D01*
G37*
G36*
X164196823Y-83616313D02*
G01*
X164357242Y-83664976D01*
X164426922Y-83702221D01*
X164505078Y-83743996D01*
X164634659Y-83850341D01*
X164741004Y-83979922D01*
X164741005Y-83979924D01*
X164820024Y-84127758D01*
X164868687Y-84288177D01*
X164885117Y-84455000D01*
X164868687Y-84621823D01*
X164820024Y-84782242D01*
X164809747Y-84801468D01*
X164741004Y-84930078D01*
X164634659Y-85059659D01*
X164505078Y-85166004D01*
X164505076Y-85166005D01*
X164357242Y-85245024D01*
X164196823Y-85293687D01*
X164071804Y-85306000D01*
X163588196Y-85306000D01*
X163463177Y-85293687D01*
X163302758Y-85245024D01*
X163154924Y-85166005D01*
X163154922Y-85166004D01*
X163025341Y-85059659D01*
X162918996Y-84930078D01*
X162850253Y-84801468D01*
X162839976Y-84782242D01*
X162791313Y-84621823D01*
X162774883Y-84455000D01*
X162791313Y-84288177D01*
X162839976Y-84127758D01*
X162918995Y-83979924D01*
X162918996Y-83979922D01*
X163025341Y-83850341D01*
X163154922Y-83743996D01*
X163233078Y-83702221D01*
X163302758Y-83664976D01*
X163463177Y-83616313D01*
X163588196Y-83604000D01*
X164071804Y-83604000D01*
X164196823Y-83616313D01*
X164196823Y-83616313D01*
G37*
G36*
X132675880Y-80359776D02*
G01*
X133056593Y-80435504D01*
X133466249Y-80605189D01*
X133834929Y-80851534D01*
X134148466Y-81165071D01*
X134394811Y-81533751D01*
X134564496Y-81943407D01*
X134651000Y-82378296D01*
X134651000Y-82821704D01*
X134564496Y-83256593D01*
X134394811Y-83666249D01*
X134148466Y-84034929D01*
X133834929Y-84348466D01*
X133466249Y-84594811D01*
X133056593Y-84764496D01*
X132675880Y-84840224D01*
X132621705Y-84851000D01*
X132178295Y-84851000D01*
X132124120Y-84840224D01*
X131743407Y-84764496D01*
X131333751Y-84594811D01*
X130965071Y-84348466D01*
X130651534Y-84034929D01*
X130405189Y-83666249D01*
X130235504Y-83256593D01*
X130149000Y-82821704D01*
X130149000Y-82378296D01*
X130235504Y-81943407D01*
X130405189Y-81533751D01*
X130651534Y-81165071D01*
X130965071Y-80851534D01*
X131333751Y-80605189D01*
X131743407Y-80435504D01*
X132124120Y-80359776D01*
X132178295Y-80349000D01*
X132621705Y-80349000D01*
X132675880Y-80359776D01*
X132675880Y-80359776D01*
G37*
G36*
X172675880Y-80359776D02*
G01*
X173056593Y-80435504D01*
X173466249Y-80605189D01*
X173834929Y-80851534D01*
X174148466Y-81165071D01*
X174394811Y-81533751D01*
X174564496Y-81943407D01*
X174651000Y-82378296D01*
X174651000Y-82821704D01*
X174564496Y-83256593D01*
X174394811Y-83666249D01*
X174148466Y-84034929D01*
X173834929Y-84348466D01*
X173466249Y-84594811D01*
X173056593Y-84764496D01*
X172675880Y-84840224D01*
X172621705Y-84851000D01*
X172178295Y-84851000D01*
X172124120Y-84840224D01*
X171743407Y-84764496D01*
X171333751Y-84594811D01*
X170965071Y-84348466D01*
X170651534Y-84034929D01*
X170405189Y-83666249D01*
X170235504Y-83256593D01*
X170149000Y-82821704D01*
X170149000Y-82378296D01*
X170235504Y-81943407D01*
X170405189Y-81533751D01*
X170651534Y-81165071D01*
X170965071Y-80851534D01*
X171333751Y-80605189D01*
X171743407Y-80435504D01*
X172124120Y-80359776D01*
X172178295Y-80349000D01*
X172621705Y-80349000D01*
X172675880Y-80359776D01*
X172675880Y-80359776D01*
G37*
G36*
X142021000Y-82966000D02*
G01*
X139919000Y-82966000D01*
X139919000Y-80864000D01*
X142021000Y-80864000D01*
X142021000Y-82966000D01*
X142021000Y-82966000D01*
G37*
G36*
X179336000Y-82816000D02*
G01*
X177534000Y-82816000D01*
X177534000Y-81014000D01*
X179336000Y-81014000D01*
X179336000Y-82816000D01*
X179336000Y-82816000D01*
G37*
G36*
X123935442Y-81020518D02*
G01*
X124001627Y-81027037D01*
X124171466Y-81078557D01*
X124327991Y-81162222D01*
X124346792Y-81177652D01*
X124465186Y-81274814D01*
X124527709Y-81351000D01*
X124577778Y-81412009D01*
X124661443Y-81568534D01*
X124712963Y-81738373D01*
X124730359Y-81915000D01*
X124712963Y-82091627D01*
X124661443Y-82261466D01*
X124577778Y-82417991D01*
X124548448Y-82453729D01*
X124465186Y-82555186D01*
X124363729Y-82638448D01*
X124327991Y-82667778D01*
X124171466Y-82751443D01*
X124001627Y-82802963D01*
X123935442Y-82809482D01*
X123869260Y-82816000D01*
X123780740Y-82816000D01*
X123714558Y-82809482D01*
X123648373Y-82802963D01*
X123478534Y-82751443D01*
X123322009Y-82667778D01*
X123286271Y-82638448D01*
X123184814Y-82555186D01*
X123101552Y-82453729D01*
X123072222Y-82417991D01*
X122988557Y-82261466D01*
X122937037Y-82091627D01*
X122919641Y-81915000D01*
X122937037Y-81738373D01*
X122988557Y-81568534D01*
X123072222Y-81412009D01*
X123122291Y-81351000D01*
X123184814Y-81274814D01*
X123303208Y-81177652D01*
X123322009Y-81162222D01*
X123478534Y-81078557D01*
X123648373Y-81027037D01*
X123714558Y-81020518D01*
X123780740Y-81014000D01*
X123869260Y-81014000D01*
X123935442Y-81020518D01*
X123935442Y-81020518D01*
G37*
G36*
X127266000Y-82816000D02*
G01*
X125464000Y-82816000D01*
X125464000Y-81014000D01*
X127266000Y-81014000D01*
X127266000Y-82816000D01*
X127266000Y-82816000D01*
G37*
G36*
X168541000Y-82816000D02*
G01*
X166739000Y-82816000D01*
X166739000Y-81014000D01*
X168541000Y-81014000D01*
X168541000Y-82816000D01*
X168541000Y-82816000D01*
G37*
G36*
X181085442Y-81020518D02*
G01*
X181151627Y-81027037D01*
X181321466Y-81078557D01*
X181477991Y-81162222D01*
X181496792Y-81177652D01*
X181615186Y-81274814D01*
X181677709Y-81351000D01*
X181727778Y-81412009D01*
X181811443Y-81568534D01*
X181862963Y-81738373D01*
X181880359Y-81915000D01*
X181862963Y-82091627D01*
X181811443Y-82261466D01*
X181727778Y-82417991D01*
X181698448Y-82453729D01*
X181615186Y-82555186D01*
X181513729Y-82638448D01*
X181477991Y-82667778D01*
X181321466Y-82751443D01*
X181151627Y-82802963D01*
X181085442Y-82809482D01*
X181019260Y-82816000D01*
X180930740Y-82816000D01*
X180864558Y-82809482D01*
X180798373Y-82802963D01*
X180628534Y-82751443D01*
X180472009Y-82667778D01*
X180436271Y-82638448D01*
X180334814Y-82555186D01*
X180251552Y-82453729D01*
X180222222Y-82417991D01*
X180138557Y-82261466D01*
X180087037Y-82091627D01*
X180069641Y-81915000D01*
X180087037Y-81738373D01*
X180138557Y-81568534D01*
X180222222Y-81412009D01*
X180272291Y-81351000D01*
X180334814Y-81274814D01*
X180453208Y-81177652D01*
X180472009Y-81162222D01*
X180628534Y-81078557D01*
X180798373Y-81027037D01*
X180864558Y-81020518D01*
X180930740Y-81014000D01*
X181019260Y-81014000D01*
X181085442Y-81020518D01*
X181085442Y-81020518D01*
G37*
G36*
X164196823Y-81076313D02*
G01*
X164327380Y-81115917D01*
X164346763Y-81121797D01*
X164357242Y-81124976D01*
X164489906Y-81195886D01*
X164505078Y-81203996D01*
X164634659Y-81310341D01*
X164741004Y-81439922D01*
X164741005Y-81439924D01*
X164820024Y-81587758D01*
X164868687Y-81748177D01*
X164885117Y-81915000D01*
X164868687Y-82081823D01*
X164820024Y-82242242D01*
X164809747Y-82261468D01*
X164741004Y-82390078D01*
X164634659Y-82519659D01*
X164505078Y-82626004D01*
X164505076Y-82626005D01*
X164357242Y-82705024D01*
X164196823Y-82753687D01*
X164071804Y-82766000D01*
X163588196Y-82766000D01*
X163463177Y-82753687D01*
X163302758Y-82705024D01*
X163154924Y-82626005D01*
X163154922Y-82626004D01*
X163025341Y-82519659D01*
X162918996Y-82390078D01*
X162850253Y-82261468D01*
X162839976Y-82242242D01*
X162791313Y-82081823D01*
X162774883Y-81915000D01*
X162791313Y-81748177D01*
X162839976Y-81587758D01*
X162918995Y-81439924D01*
X162918996Y-81439922D01*
X163025341Y-81310341D01*
X163154922Y-81203996D01*
X163170094Y-81195886D01*
X163302758Y-81124976D01*
X163313238Y-81121797D01*
X163332620Y-81115917D01*
X163463177Y-81076313D01*
X163588196Y-81064000D01*
X164071804Y-81064000D01*
X164196823Y-81076313D01*
X164196823Y-81076313D01*
G37*
M02*
