G04 #@! TF.GenerationSoftware,KiCad,Pcbnew,(5.1.2-1)-1*
G04 #@! TF.CreationDate,2019-07-06T18:38:22+02:00*
G04 #@! TF.ProjectId,servonoid,73657276-6f6e-46f6-9964-2e6b69636164,rev?*
G04 #@! TF.SameCoordinates,Original*
G04 #@! TF.FileFunction,Copper,L4,Bot*
G04 #@! TF.FilePolarity,Positive*
%FSLAX46Y46*%
G04 Gerber Fmt 4.6, Leading zero omitted, Abs format (unit mm)*
G04 Created by KiCad (PCBNEW (5.1.2-1)-1) date 2019-07-06 18:38:22*
%MOMM*%
%LPD*%
G04 APERTURE LIST*
%ADD10O,2.000000X1.600000*%
%ADD11R,2.000000X2.000000*%
%ADD12C,0.100000*%
%ADD13C,0.950000*%
%ADD14O,2.000000X1.450000*%
%ADD15O,1.800000X1.150000*%
%ADD16R,1.700000X1.700000*%
%ADD17O,1.700000X1.700000*%
%ADD18C,4.400000*%
%ADD19C,0.700000*%
%ADD20C,0.660400*%
%ADD21C,1.000000*%
%ADD22C,0.200000*%
%ADD23C,0.177800*%
G04 APERTURE END LIST*
D10*
X140970000Y-84455000D03*
D11*
X140970000Y-81915000D03*
D10*
X140970000Y-86995000D03*
X140970000Y-89535000D03*
X140970000Y-92075000D03*
X140970000Y-94615000D03*
X140970000Y-97155000D03*
X140970000Y-99695000D03*
X163830000Y-99695000D03*
X163830000Y-97155000D03*
X163830000Y-94615000D03*
X163830000Y-92075000D03*
X163830000Y-89535000D03*
X163830000Y-86995000D03*
X163830000Y-84455000D03*
X163830000Y-81915000D03*
D12*
G36*
X169424779Y-113268144D02*
G01*
X169447834Y-113271563D01*
X169470443Y-113277227D01*
X169492387Y-113285079D01*
X169513457Y-113295044D01*
X169533448Y-113307026D01*
X169552168Y-113320910D01*
X169569438Y-113336562D01*
X169585090Y-113353832D01*
X169598974Y-113372552D01*
X169610956Y-113392543D01*
X169620921Y-113413613D01*
X169628773Y-113435557D01*
X169634437Y-113458166D01*
X169637856Y-113481221D01*
X169639000Y-113504500D01*
X169639000Y-114079500D01*
X169637856Y-114102779D01*
X169634437Y-114125834D01*
X169628773Y-114148443D01*
X169620921Y-114170387D01*
X169610956Y-114191457D01*
X169598974Y-114211448D01*
X169585090Y-114230168D01*
X169569438Y-114247438D01*
X169552168Y-114263090D01*
X169533448Y-114276974D01*
X169513457Y-114288956D01*
X169492387Y-114298921D01*
X169470443Y-114306773D01*
X169447834Y-114312437D01*
X169424779Y-114315856D01*
X169401500Y-114317000D01*
X168926500Y-114317000D01*
X168903221Y-114315856D01*
X168880166Y-114312437D01*
X168857557Y-114306773D01*
X168835613Y-114298921D01*
X168814543Y-114288956D01*
X168794552Y-114276974D01*
X168775832Y-114263090D01*
X168758562Y-114247438D01*
X168742910Y-114230168D01*
X168729026Y-114211448D01*
X168717044Y-114191457D01*
X168707079Y-114170387D01*
X168699227Y-114148443D01*
X168693563Y-114125834D01*
X168690144Y-114102779D01*
X168689000Y-114079500D01*
X168689000Y-113504500D01*
X168690144Y-113481221D01*
X168693563Y-113458166D01*
X168699227Y-113435557D01*
X168707079Y-113413613D01*
X168717044Y-113392543D01*
X168729026Y-113372552D01*
X168742910Y-113353832D01*
X168758562Y-113336562D01*
X168775832Y-113320910D01*
X168794552Y-113307026D01*
X168814543Y-113295044D01*
X168835613Y-113285079D01*
X168857557Y-113277227D01*
X168880166Y-113271563D01*
X168903221Y-113268144D01*
X168926500Y-113267000D01*
X169401500Y-113267000D01*
X169424779Y-113268144D01*
X169424779Y-113268144D01*
G37*
D13*
X169164000Y-113792000D03*
D12*
G36*
X169424779Y-115018144D02*
G01*
X169447834Y-115021563D01*
X169470443Y-115027227D01*
X169492387Y-115035079D01*
X169513457Y-115045044D01*
X169533448Y-115057026D01*
X169552168Y-115070910D01*
X169569438Y-115086562D01*
X169585090Y-115103832D01*
X169598974Y-115122552D01*
X169610956Y-115142543D01*
X169620921Y-115163613D01*
X169628773Y-115185557D01*
X169634437Y-115208166D01*
X169637856Y-115231221D01*
X169639000Y-115254500D01*
X169639000Y-115829500D01*
X169637856Y-115852779D01*
X169634437Y-115875834D01*
X169628773Y-115898443D01*
X169620921Y-115920387D01*
X169610956Y-115941457D01*
X169598974Y-115961448D01*
X169585090Y-115980168D01*
X169569438Y-115997438D01*
X169552168Y-116013090D01*
X169533448Y-116026974D01*
X169513457Y-116038956D01*
X169492387Y-116048921D01*
X169470443Y-116056773D01*
X169447834Y-116062437D01*
X169424779Y-116065856D01*
X169401500Y-116067000D01*
X168926500Y-116067000D01*
X168903221Y-116065856D01*
X168880166Y-116062437D01*
X168857557Y-116056773D01*
X168835613Y-116048921D01*
X168814543Y-116038956D01*
X168794552Y-116026974D01*
X168775832Y-116013090D01*
X168758562Y-115997438D01*
X168742910Y-115980168D01*
X168729026Y-115961448D01*
X168717044Y-115941457D01*
X168707079Y-115920387D01*
X168699227Y-115898443D01*
X168693563Y-115875834D01*
X168690144Y-115852779D01*
X168689000Y-115829500D01*
X168689000Y-115254500D01*
X168690144Y-115231221D01*
X168693563Y-115208166D01*
X168699227Y-115185557D01*
X168707079Y-115163613D01*
X168717044Y-115142543D01*
X168729026Y-115122552D01*
X168742910Y-115103832D01*
X168758562Y-115086562D01*
X168775832Y-115070910D01*
X168794552Y-115057026D01*
X168814543Y-115045044D01*
X168835613Y-115035079D01*
X168857557Y-115027227D01*
X168880166Y-115021563D01*
X168903221Y-115018144D01*
X168926500Y-115017000D01*
X169401500Y-115017000D01*
X169424779Y-115018144D01*
X169424779Y-115018144D01*
G37*
D13*
X169164000Y-115542000D03*
D12*
G36*
X134831779Y-95411144D02*
G01*
X134854834Y-95414563D01*
X134877443Y-95420227D01*
X134899387Y-95428079D01*
X134920457Y-95438044D01*
X134940448Y-95450026D01*
X134959168Y-95463910D01*
X134976438Y-95479562D01*
X134992090Y-95496832D01*
X135005974Y-95515552D01*
X135017956Y-95535543D01*
X135027921Y-95556613D01*
X135035773Y-95578557D01*
X135041437Y-95601166D01*
X135044856Y-95624221D01*
X135046000Y-95647500D01*
X135046000Y-96122500D01*
X135044856Y-96145779D01*
X135041437Y-96168834D01*
X135035773Y-96191443D01*
X135027921Y-96213387D01*
X135017956Y-96234457D01*
X135005974Y-96254448D01*
X134992090Y-96273168D01*
X134976438Y-96290438D01*
X134959168Y-96306090D01*
X134940448Y-96319974D01*
X134920457Y-96331956D01*
X134899387Y-96341921D01*
X134877443Y-96349773D01*
X134854834Y-96355437D01*
X134831779Y-96358856D01*
X134808500Y-96360000D01*
X134233500Y-96360000D01*
X134210221Y-96358856D01*
X134187166Y-96355437D01*
X134164557Y-96349773D01*
X134142613Y-96341921D01*
X134121543Y-96331956D01*
X134101552Y-96319974D01*
X134082832Y-96306090D01*
X134065562Y-96290438D01*
X134049910Y-96273168D01*
X134036026Y-96254448D01*
X134024044Y-96234457D01*
X134014079Y-96213387D01*
X134006227Y-96191443D01*
X134000563Y-96168834D01*
X133997144Y-96145779D01*
X133996000Y-96122500D01*
X133996000Y-95647500D01*
X133997144Y-95624221D01*
X134000563Y-95601166D01*
X134006227Y-95578557D01*
X134014079Y-95556613D01*
X134024044Y-95535543D01*
X134036026Y-95515552D01*
X134049910Y-95496832D01*
X134065562Y-95479562D01*
X134082832Y-95463910D01*
X134101552Y-95450026D01*
X134121543Y-95438044D01*
X134142613Y-95428079D01*
X134164557Y-95420227D01*
X134187166Y-95414563D01*
X134210221Y-95411144D01*
X134233500Y-95410000D01*
X134808500Y-95410000D01*
X134831779Y-95411144D01*
X134831779Y-95411144D01*
G37*
D13*
X134521000Y-95885000D03*
D12*
G36*
X136581779Y-95411144D02*
G01*
X136604834Y-95414563D01*
X136627443Y-95420227D01*
X136649387Y-95428079D01*
X136670457Y-95438044D01*
X136690448Y-95450026D01*
X136709168Y-95463910D01*
X136726438Y-95479562D01*
X136742090Y-95496832D01*
X136755974Y-95515552D01*
X136767956Y-95535543D01*
X136777921Y-95556613D01*
X136785773Y-95578557D01*
X136791437Y-95601166D01*
X136794856Y-95624221D01*
X136796000Y-95647500D01*
X136796000Y-96122500D01*
X136794856Y-96145779D01*
X136791437Y-96168834D01*
X136785773Y-96191443D01*
X136777921Y-96213387D01*
X136767956Y-96234457D01*
X136755974Y-96254448D01*
X136742090Y-96273168D01*
X136726438Y-96290438D01*
X136709168Y-96306090D01*
X136690448Y-96319974D01*
X136670457Y-96331956D01*
X136649387Y-96341921D01*
X136627443Y-96349773D01*
X136604834Y-96355437D01*
X136581779Y-96358856D01*
X136558500Y-96360000D01*
X135983500Y-96360000D01*
X135960221Y-96358856D01*
X135937166Y-96355437D01*
X135914557Y-96349773D01*
X135892613Y-96341921D01*
X135871543Y-96331956D01*
X135851552Y-96319974D01*
X135832832Y-96306090D01*
X135815562Y-96290438D01*
X135799910Y-96273168D01*
X135786026Y-96254448D01*
X135774044Y-96234457D01*
X135764079Y-96213387D01*
X135756227Y-96191443D01*
X135750563Y-96168834D01*
X135747144Y-96145779D01*
X135746000Y-96122500D01*
X135746000Y-95647500D01*
X135747144Y-95624221D01*
X135750563Y-95601166D01*
X135756227Y-95578557D01*
X135764079Y-95556613D01*
X135774044Y-95535543D01*
X135786026Y-95515552D01*
X135799910Y-95496832D01*
X135815562Y-95479562D01*
X135832832Y-95463910D01*
X135851552Y-95450026D01*
X135871543Y-95438044D01*
X135892613Y-95428079D01*
X135914557Y-95420227D01*
X135937166Y-95414563D01*
X135960221Y-95411144D01*
X135983500Y-95410000D01*
X136558500Y-95410000D01*
X136581779Y-95411144D01*
X136581779Y-95411144D01*
G37*
D13*
X136271000Y-95885000D03*
D12*
G36*
X160280779Y-108442144D02*
G01*
X160303834Y-108445563D01*
X160326443Y-108451227D01*
X160348387Y-108459079D01*
X160369457Y-108469044D01*
X160389448Y-108481026D01*
X160408168Y-108494910D01*
X160425438Y-108510562D01*
X160441090Y-108527832D01*
X160454974Y-108546552D01*
X160466956Y-108566543D01*
X160476921Y-108587613D01*
X160484773Y-108609557D01*
X160490437Y-108632166D01*
X160493856Y-108655221D01*
X160495000Y-108678500D01*
X160495000Y-109253500D01*
X160493856Y-109276779D01*
X160490437Y-109299834D01*
X160484773Y-109322443D01*
X160476921Y-109344387D01*
X160466956Y-109365457D01*
X160454974Y-109385448D01*
X160441090Y-109404168D01*
X160425438Y-109421438D01*
X160408168Y-109437090D01*
X160389448Y-109450974D01*
X160369457Y-109462956D01*
X160348387Y-109472921D01*
X160326443Y-109480773D01*
X160303834Y-109486437D01*
X160280779Y-109489856D01*
X160257500Y-109491000D01*
X159782500Y-109491000D01*
X159759221Y-109489856D01*
X159736166Y-109486437D01*
X159713557Y-109480773D01*
X159691613Y-109472921D01*
X159670543Y-109462956D01*
X159650552Y-109450974D01*
X159631832Y-109437090D01*
X159614562Y-109421438D01*
X159598910Y-109404168D01*
X159585026Y-109385448D01*
X159573044Y-109365457D01*
X159563079Y-109344387D01*
X159555227Y-109322443D01*
X159549563Y-109299834D01*
X159546144Y-109276779D01*
X159545000Y-109253500D01*
X159545000Y-108678500D01*
X159546144Y-108655221D01*
X159549563Y-108632166D01*
X159555227Y-108609557D01*
X159563079Y-108587613D01*
X159573044Y-108566543D01*
X159585026Y-108546552D01*
X159598910Y-108527832D01*
X159614562Y-108510562D01*
X159631832Y-108494910D01*
X159650552Y-108481026D01*
X159670543Y-108469044D01*
X159691613Y-108459079D01*
X159713557Y-108451227D01*
X159736166Y-108445563D01*
X159759221Y-108442144D01*
X159782500Y-108441000D01*
X160257500Y-108441000D01*
X160280779Y-108442144D01*
X160280779Y-108442144D01*
G37*
D13*
X160020000Y-108966000D03*
D12*
G36*
X160280779Y-110192144D02*
G01*
X160303834Y-110195563D01*
X160326443Y-110201227D01*
X160348387Y-110209079D01*
X160369457Y-110219044D01*
X160389448Y-110231026D01*
X160408168Y-110244910D01*
X160425438Y-110260562D01*
X160441090Y-110277832D01*
X160454974Y-110296552D01*
X160466956Y-110316543D01*
X160476921Y-110337613D01*
X160484773Y-110359557D01*
X160490437Y-110382166D01*
X160493856Y-110405221D01*
X160495000Y-110428500D01*
X160495000Y-111003500D01*
X160493856Y-111026779D01*
X160490437Y-111049834D01*
X160484773Y-111072443D01*
X160476921Y-111094387D01*
X160466956Y-111115457D01*
X160454974Y-111135448D01*
X160441090Y-111154168D01*
X160425438Y-111171438D01*
X160408168Y-111187090D01*
X160389448Y-111200974D01*
X160369457Y-111212956D01*
X160348387Y-111222921D01*
X160326443Y-111230773D01*
X160303834Y-111236437D01*
X160280779Y-111239856D01*
X160257500Y-111241000D01*
X159782500Y-111241000D01*
X159759221Y-111239856D01*
X159736166Y-111236437D01*
X159713557Y-111230773D01*
X159691613Y-111222921D01*
X159670543Y-111212956D01*
X159650552Y-111200974D01*
X159631832Y-111187090D01*
X159614562Y-111171438D01*
X159598910Y-111154168D01*
X159585026Y-111135448D01*
X159573044Y-111115457D01*
X159563079Y-111094387D01*
X159555227Y-111072443D01*
X159549563Y-111049834D01*
X159546144Y-111026779D01*
X159545000Y-111003500D01*
X159545000Y-110428500D01*
X159546144Y-110405221D01*
X159549563Y-110382166D01*
X159555227Y-110359557D01*
X159563079Y-110337613D01*
X159573044Y-110316543D01*
X159585026Y-110296552D01*
X159598910Y-110277832D01*
X159614562Y-110260562D01*
X159631832Y-110244910D01*
X159650552Y-110231026D01*
X159670543Y-110219044D01*
X159691613Y-110209079D01*
X159713557Y-110201227D01*
X159736166Y-110195563D01*
X159759221Y-110192144D01*
X159782500Y-110191000D01*
X160257500Y-110191000D01*
X160280779Y-110192144D01*
X160280779Y-110192144D01*
G37*
D13*
X160020000Y-110716000D03*
D12*
G36*
X145598779Y-103920144D02*
G01*
X145621834Y-103923563D01*
X145644443Y-103929227D01*
X145666387Y-103937079D01*
X145687457Y-103947044D01*
X145707448Y-103959026D01*
X145726168Y-103972910D01*
X145743438Y-103988562D01*
X145759090Y-104005832D01*
X145772974Y-104024552D01*
X145784956Y-104044543D01*
X145794921Y-104065613D01*
X145802773Y-104087557D01*
X145808437Y-104110166D01*
X145811856Y-104133221D01*
X145813000Y-104156500D01*
X145813000Y-104631500D01*
X145811856Y-104654779D01*
X145808437Y-104677834D01*
X145802773Y-104700443D01*
X145794921Y-104722387D01*
X145784956Y-104743457D01*
X145772974Y-104763448D01*
X145759090Y-104782168D01*
X145743438Y-104799438D01*
X145726168Y-104815090D01*
X145707448Y-104828974D01*
X145687457Y-104840956D01*
X145666387Y-104850921D01*
X145644443Y-104858773D01*
X145621834Y-104864437D01*
X145598779Y-104867856D01*
X145575500Y-104869000D01*
X145000500Y-104869000D01*
X144977221Y-104867856D01*
X144954166Y-104864437D01*
X144931557Y-104858773D01*
X144909613Y-104850921D01*
X144888543Y-104840956D01*
X144868552Y-104828974D01*
X144849832Y-104815090D01*
X144832562Y-104799438D01*
X144816910Y-104782168D01*
X144803026Y-104763448D01*
X144791044Y-104743457D01*
X144781079Y-104722387D01*
X144773227Y-104700443D01*
X144767563Y-104677834D01*
X144764144Y-104654779D01*
X144763000Y-104631500D01*
X144763000Y-104156500D01*
X144764144Y-104133221D01*
X144767563Y-104110166D01*
X144773227Y-104087557D01*
X144781079Y-104065613D01*
X144791044Y-104044543D01*
X144803026Y-104024552D01*
X144816910Y-104005832D01*
X144832562Y-103988562D01*
X144849832Y-103972910D01*
X144868552Y-103959026D01*
X144888543Y-103947044D01*
X144909613Y-103937079D01*
X144931557Y-103929227D01*
X144954166Y-103923563D01*
X144977221Y-103920144D01*
X145000500Y-103919000D01*
X145575500Y-103919000D01*
X145598779Y-103920144D01*
X145598779Y-103920144D01*
G37*
D13*
X145288000Y-104394000D03*
D12*
G36*
X143848779Y-103920144D02*
G01*
X143871834Y-103923563D01*
X143894443Y-103929227D01*
X143916387Y-103937079D01*
X143937457Y-103947044D01*
X143957448Y-103959026D01*
X143976168Y-103972910D01*
X143993438Y-103988562D01*
X144009090Y-104005832D01*
X144022974Y-104024552D01*
X144034956Y-104044543D01*
X144044921Y-104065613D01*
X144052773Y-104087557D01*
X144058437Y-104110166D01*
X144061856Y-104133221D01*
X144063000Y-104156500D01*
X144063000Y-104631500D01*
X144061856Y-104654779D01*
X144058437Y-104677834D01*
X144052773Y-104700443D01*
X144044921Y-104722387D01*
X144034956Y-104743457D01*
X144022974Y-104763448D01*
X144009090Y-104782168D01*
X143993438Y-104799438D01*
X143976168Y-104815090D01*
X143957448Y-104828974D01*
X143937457Y-104840956D01*
X143916387Y-104850921D01*
X143894443Y-104858773D01*
X143871834Y-104864437D01*
X143848779Y-104867856D01*
X143825500Y-104869000D01*
X143250500Y-104869000D01*
X143227221Y-104867856D01*
X143204166Y-104864437D01*
X143181557Y-104858773D01*
X143159613Y-104850921D01*
X143138543Y-104840956D01*
X143118552Y-104828974D01*
X143099832Y-104815090D01*
X143082562Y-104799438D01*
X143066910Y-104782168D01*
X143053026Y-104763448D01*
X143041044Y-104743457D01*
X143031079Y-104722387D01*
X143023227Y-104700443D01*
X143017563Y-104677834D01*
X143014144Y-104654779D01*
X143013000Y-104631500D01*
X143013000Y-104156500D01*
X143014144Y-104133221D01*
X143017563Y-104110166D01*
X143023227Y-104087557D01*
X143031079Y-104065613D01*
X143041044Y-104044543D01*
X143053026Y-104024552D01*
X143066910Y-104005832D01*
X143082562Y-103988562D01*
X143099832Y-103972910D01*
X143118552Y-103959026D01*
X143138543Y-103947044D01*
X143159613Y-103937079D01*
X143181557Y-103929227D01*
X143204166Y-103923563D01*
X143227221Y-103920144D01*
X143250500Y-103919000D01*
X143825500Y-103919000D01*
X143848779Y-103920144D01*
X143848779Y-103920144D01*
G37*
D13*
X143538000Y-104394000D03*
D12*
G36*
X160280779Y-114792144D02*
G01*
X160303834Y-114795563D01*
X160326443Y-114801227D01*
X160348387Y-114809079D01*
X160369457Y-114819044D01*
X160389448Y-114831026D01*
X160408168Y-114844910D01*
X160425438Y-114860562D01*
X160441090Y-114877832D01*
X160454974Y-114896552D01*
X160466956Y-114916543D01*
X160476921Y-114937613D01*
X160484773Y-114959557D01*
X160490437Y-114982166D01*
X160493856Y-115005221D01*
X160495000Y-115028500D01*
X160495000Y-115603500D01*
X160493856Y-115626779D01*
X160490437Y-115649834D01*
X160484773Y-115672443D01*
X160476921Y-115694387D01*
X160466956Y-115715457D01*
X160454974Y-115735448D01*
X160441090Y-115754168D01*
X160425438Y-115771438D01*
X160408168Y-115787090D01*
X160389448Y-115800974D01*
X160369457Y-115812956D01*
X160348387Y-115822921D01*
X160326443Y-115830773D01*
X160303834Y-115836437D01*
X160280779Y-115839856D01*
X160257500Y-115841000D01*
X159782500Y-115841000D01*
X159759221Y-115839856D01*
X159736166Y-115836437D01*
X159713557Y-115830773D01*
X159691613Y-115822921D01*
X159670543Y-115812956D01*
X159650552Y-115800974D01*
X159631832Y-115787090D01*
X159614562Y-115771438D01*
X159598910Y-115754168D01*
X159585026Y-115735448D01*
X159573044Y-115715457D01*
X159563079Y-115694387D01*
X159555227Y-115672443D01*
X159549563Y-115649834D01*
X159546144Y-115626779D01*
X159545000Y-115603500D01*
X159545000Y-115028500D01*
X159546144Y-115005221D01*
X159549563Y-114982166D01*
X159555227Y-114959557D01*
X159563079Y-114937613D01*
X159573044Y-114916543D01*
X159585026Y-114896552D01*
X159598910Y-114877832D01*
X159614562Y-114860562D01*
X159631832Y-114844910D01*
X159650552Y-114831026D01*
X159670543Y-114819044D01*
X159691613Y-114809079D01*
X159713557Y-114801227D01*
X159736166Y-114795563D01*
X159759221Y-114792144D01*
X159782500Y-114791000D01*
X160257500Y-114791000D01*
X160280779Y-114792144D01*
X160280779Y-114792144D01*
G37*
D13*
X160020000Y-115316000D03*
D12*
G36*
X160280779Y-113042144D02*
G01*
X160303834Y-113045563D01*
X160326443Y-113051227D01*
X160348387Y-113059079D01*
X160369457Y-113069044D01*
X160389448Y-113081026D01*
X160408168Y-113094910D01*
X160425438Y-113110562D01*
X160441090Y-113127832D01*
X160454974Y-113146552D01*
X160466956Y-113166543D01*
X160476921Y-113187613D01*
X160484773Y-113209557D01*
X160490437Y-113232166D01*
X160493856Y-113255221D01*
X160495000Y-113278500D01*
X160495000Y-113853500D01*
X160493856Y-113876779D01*
X160490437Y-113899834D01*
X160484773Y-113922443D01*
X160476921Y-113944387D01*
X160466956Y-113965457D01*
X160454974Y-113985448D01*
X160441090Y-114004168D01*
X160425438Y-114021438D01*
X160408168Y-114037090D01*
X160389448Y-114050974D01*
X160369457Y-114062956D01*
X160348387Y-114072921D01*
X160326443Y-114080773D01*
X160303834Y-114086437D01*
X160280779Y-114089856D01*
X160257500Y-114091000D01*
X159782500Y-114091000D01*
X159759221Y-114089856D01*
X159736166Y-114086437D01*
X159713557Y-114080773D01*
X159691613Y-114072921D01*
X159670543Y-114062956D01*
X159650552Y-114050974D01*
X159631832Y-114037090D01*
X159614562Y-114021438D01*
X159598910Y-114004168D01*
X159585026Y-113985448D01*
X159573044Y-113965457D01*
X159563079Y-113944387D01*
X159555227Y-113922443D01*
X159549563Y-113899834D01*
X159546144Y-113876779D01*
X159545000Y-113853500D01*
X159545000Y-113278500D01*
X159546144Y-113255221D01*
X159549563Y-113232166D01*
X159555227Y-113209557D01*
X159563079Y-113187613D01*
X159573044Y-113166543D01*
X159585026Y-113146552D01*
X159598910Y-113127832D01*
X159614562Y-113110562D01*
X159631832Y-113094910D01*
X159650552Y-113081026D01*
X159670543Y-113069044D01*
X159691613Y-113059079D01*
X159713557Y-113051227D01*
X159736166Y-113045563D01*
X159759221Y-113042144D01*
X159782500Y-113041000D01*
X160257500Y-113041000D01*
X160280779Y-113042144D01*
X160280779Y-113042144D01*
G37*
D13*
X160020000Y-113566000D03*
D12*
G36*
X157028779Y-104936144D02*
G01*
X157051834Y-104939563D01*
X157074443Y-104945227D01*
X157096387Y-104953079D01*
X157117457Y-104963044D01*
X157137448Y-104975026D01*
X157156168Y-104988910D01*
X157173438Y-105004562D01*
X157189090Y-105021832D01*
X157202974Y-105040552D01*
X157214956Y-105060543D01*
X157224921Y-105081613D01*
X157232773Y-105103557D01*
X157238437Y-105126166D01*
X157241856Y-105149221D01*
X157243000Y-105172500D01*
X157243000Y-105647500D01*
X157241856Y-105670779D01*
X157238437Y-105693834D01*
X157232773Y-105716443D01*
X157224921Y-105738387D01*
X157214956Y-105759457D01*
X157202974Y-105779448D01*
X157189090Y-105798168D01*
X157173438Y-105815438D01*
X157156168Y-105831090D01*
X157137448Y-105844974D01*
X157117457Y-105856956D01*
X157096387Y-105866921D01*
X157074443Y-105874773D01*
X157051834Y-105880437D01*
X157028779Y-105883856D01*
X157005500Y-105885000D01*
X156430500Y-105885000D01*
X156407221Y-105883856D01*
X156384166Y-105880437D01*
X156361557Y-105874773D01*
X156339613Y-105866921D01*
X156318543Y-105856956D01*
X156298552Y-105844974D01*
X156279832Y-105831090D01*
X156262562Y-105815438D01*
X156246910Y-105798168D01*
X156233026Y-105779448D01*
X156221044Y-105759457D01*
X156211079Y-105738387D01*
X156203227Y-105716443D01*
X156197563Y-105693834D01*
X156194144Y-105670779D01*
X156193000Y-105647500D01*
X156193000Y-105172500D01*
X156194144Y-105149221D01*
X156197563Y-105126166D01*
X156203227Y-105103557D01*
X156211079Y-105081613D01*
X156221044Y-105060543D01*
X156233026Y-105040552D01*
X156246910Y-105021832D01*
X156262562Y-105004562D01*
X156279832Y-104988910D01*
X156298552Y-104975026D01*
X156318543Y-104963044D01*
X156339613Y-104953079D01*
X156361557Y-104945227D01*
X156384166Y-104939563D01*
X156407221Y-104936144D01*
X156430500Y-104935000D01*
X157005500Y-104935000D01*
X157028779Y-104936144D01*
X157028779Y-104936144D01*
G37*
D13*
X156718000Y-105410000D03*
D12*
G36*
X158778779Y-104936144D02*
G01*
X158801834Y-104939563D01*
X158824443Y-104945227D01*
X158846387Y-104953079D01*
X158867457Y-104963044D01*
X158887448Y-104975026D01*
X158906168Y-104988910D01*
X158923438Y-105004562D01*
X158939090Y-105021832D01*
X158952974Y-105040552D01*
X158964956Y-105060543D01*
X158974921Y-105081613D01*
X158982773Y-105103557D01*
X158988437Y-105126166D01*
X158991856Y-105149221D01*
X158993000Y-105172500D01*
X158993000Y-105647500D01*
X158991856Y-105670779D01*
X158988437Y-105693834D01*
X158982773Y-105716443D01*
X158974921Y-105738387D01*
X158964956Y-105759457D01*
X158952974Y-105779448D01*
X158939090Y-105798168D01*
X158923438Y-105815438D01*
X158906168Y-105831090D01*
X158887448Y-105844974D01*
X158867457Y-105856956D01*
X158846387Y-105866921D01*
X158824443Y-105874773D01*
X158801834Y-105880437D01*
X158778779Y-105883856D01*
X158755500Y-105885000D01*
X158180500Y-105885000D01*
X158157221Y-105883856D01*
X158134166Y-105880437D01*
X158111557Y-105874773D01*
X158089613Y-105866921D01*
X158068543Y-105856956D01*
X158048552Y-105844974D01*
X158029832Y-105831090D01*
X158012562Y-105815438D01*
X157996910Y-105798168D01*
X157983026Y-105779448D01*
X157971044Y-105759457D01*
X157961079Y-105738387D01*
X157953227Y-105716443D01*
X157947563Y-105693834D01*
X157944144Y-105670779D01*
X157943000Y-105647500D01*
X157943000Y-105172500D01*
X157944144Y-105149221D01*
X157947563Y-105126166D01*
X157953227Y-105103557D01*
X157961079Y-105081613D01*
X157971044Y-105060543D01*
X157983026Y-105040552D01*
X157996910Y-105021832D01*
X158012562Y-105004562D01*
X158029832Y-104988910D01*
X158048552Y-104975026D01*
X158068543Y-104963044D01*
X158089613Y-104953079D01*
X158111557Y-104945227D01*
X158134166Y-104939563D01*
X158157221Y-104936144D01*
X158180500Y-104935000D01*
X158755500Y-104935000D01*
X158778779Y-104936144D01*
X158778779Y-104936144D01*
G37*
D13*
X158468000Y-105410000D03*
D12*
G36*
X144786779Y-117360144D02*
G01*
X144809834Y-117363563D01*
X144832443Y-117369227D01*
X144854387Y-117377079D01*
X144875457Y-117387044D01*
X144895448Y-117399026D01*
X144914168Y-117412910D01*
X144931438Y-117428562D01*
X144947090Y-117445832D01*
X144960974Y-117464552D01*
X144972956Y-117484543D01*
X144982921Y-117505613D01*
X144990773Y-117527557D01*
X144996437Y-117550166D01*
X144999856Y-117573221D01*
X145001000Y-117596500D01*
X145001000Y-118171500D01*
X144999856Y-118194779D01*
X144996437Y-118217834D01*
X144990773Y-118240443D01*
X144982921Y-118262387D01*
X144972956Y-118283457D01*
X144960974Y-118303448D01*
X144947090Y-118322168D01*
X144931438Y-118339438D01*
X144914168Y-118355090D01*
X144895448Y-118368974D01*
X144875457Y-118380956D01*
X144854387Y-118390921D01*
X144832443Y-118398773D01*
X144809834Y-118404437D01*
X144786779Y-118407856D01*
X144763500Y-118409000D01*
X144288500Y-118409000D01*
X144265221Y-118407856D01*
X144242166Y-118404437D01*
X144219557Y-118398773D01*
X144197613Y-118390921D01*
X144176543Y-118380956D01*
X144156552Y-118368974D01*
X144137832Y-118355090D01*
X144120562Y-118339438D01*
X144104910Y-118322168D01*
X144091026Y-118303448D01*
X144079044Y-118283457D01*
X144069079Y-118262387D01*
X144061227Y-118240443D01*
X144055563Y-118217834D01*
X144052144Y-118194779D01*
X144051000Y-118171500D01*
X144051000Y-117596500D01*
X144052144Y-117573221D01*
X144055563Y-117550166D01*
X144061227Y-117527557D01*
X144069079Y-117505613D01*
X144079044Y-117484543D01*
X144091026Y-117464552D01*
X144104910Y-117445832D01*
X144120562Y-117428562D01*
X144137832Y-117412910D01*
X144156552Y-117399026D01*
X144176543Y-117387044D01*
X144197613Y-117377079D01*
X144219557Y-117369227D01*
X144242166Y-117363563D01*
X144265221Y-117360144D01*
X144288500Y-117359000D01*
X144763500Y-117359000D01*
X144786779Y-117360144D01*
X144786779Y-117360144D01*
G37*
D13*
X144526000Y-117884000D03*
D12*
G36*
X144786779Y-119110144D02*
G01*
X144809834Y-119113563D01*
X144832443Y-119119227D01*
X144854387Y-119127079D01*
X144875457Y-119137044D01*
X144895448Y-119149026D01*
X144914168Y-119162910D01*
X144931438Y-119178562D01*
X144947090Y-119195832D01*
X144960974Y-119214552D01*
X144972956Y-119234543D01*
X144982921Y-119255613D01*
X144990773Y-119277557D01*
X144996437Y-119300166D01*
X144999856Y-119323221D01*
X145001000Y-119346500D01*
X145001000Y-119921500D01*
X144999856Y-119944779D01*
X144996437Y-119967834D01*
X144990773Y-119990443D01*
X144982921Y-120012387D01*
X144972956Y-120033457D01*
X144960974Y-120053448D01*
X144947090Y-120072168D01*
X144931438Y-120089438D01*
X144914168Y-120105090D01*
X144895448Y-120118974D01*
X144875457Y-120130956D01*
X144854387Y-120140921D01*
X144832443Y-120148773D01*
X144809834Y-120154437D01*
X144786779Y-120157856D01*
X144763500Y-120159000D01*
X144288500Y-120159000D01*
X144265221Y-120157856D01*
X144242166Y-120154437D01*
X144219557Y-120148773D01*
X144197613Y-120140921D01*
X144176543Y-120130956D01*
X144156552Y-120118974D01*
X144137832Y-120105090D01*
X144120562Y-120089438D01*
X144104910Y-120072168D01*
X144091026Y-120053448D01*
X144079044Y-120033457D01*
X144069079Y-120012387D01*
X144061227Y-119990443D01*
X144055563Y-119967834D01*
X144052144Y-119944779D01*
X144051000Y-119921500D01*
X144051000Y-119346500D01*
X144052144Y-119323221D01*
X144055563Y-119300166D01*
X144061227Y-119277557D01*
X144069079Y-119255613D01*
X144079044Y-119234543D01*
X144091026Y-119214552D01*
X144104910Y-119195832D01*
X144120562Y-119178562D01*
X144137832Y-119162910D01*
X144156552Y-119149026D01*
X144176543Y-119137044D01*
X144197613Y-119127079D01*
X144219557Y-119119227D01*
X144242166Y-119113563D01*
X144265221Y-119110144D01*
X144288500Y-119109000D01*
X144763500Y-119109000D01*
X144786779Y-119110144D01*
X144786779Y-119110144D01*
G37*
D13*
X144526000Y-119634000D03*
D12*
G36*
X159568779Y-120430144D02*
G01*
X159591834Y-120433563D01*
X159614443Y-120439227D01*
X159636387Y-120447079D01*
X159657457Y-120457044D01*
X159677448Y-120469026D01*
X159696168Y-120482910D01*
X159713438Y-120498562D01*
X159729090Y-120515832D01*
X159742974Y-120534552D01*
X159754956Y-120554543D01*
X159764921Y-120575613D01*
X159772773Y-120597557D01*
X159778437Y-120620166D01*
X159781856Y-120643221D01*
X159783000Y-120666500D01*
X159783000Y-121141500D01*
X159781856Y-121164779D01*
X159778437Y-121187834D01*
X159772773Y-121210443D01*
X159764921Y-121232387D01*
X159754956Y-121253457D01*
X159742974Y-121273448D01*
X159729090Y-121292168D01*
X159713438Y-121309438D01*
X159696168Y-121325090D01*
X159677448Y-121338974D01*
X159657457Y-121350956D01*
X159636387Y-121360921D01*
X159614443Y-121368773D01*
X159591834Y-121374437D01*
X159568779Y-121377856D01*
X159545500Y-121379000D01*
X158970500Y-121379000D01*
X158947221Y-121377856D01*
X158924166Y-121374437D01*
X158901557Y-121368773D01*
X158879613Y-121360921D01*
X158858543Y-121350956D01*
X158838552Y-121338974D01*
X158819832Y-121325090D01*
X158802562Y-121309438D01*
X158786910Y-121292168D01*
X158773026Y-121273448D01*
X158761044Y-121253457D01*
X158751079Y-121232387D01*
X158743227Y-121210443D01*
X158737563Y-121187834D01*
X158734144Y-121164779D01*
X158733000Y-121141500D01*
X158733000Y-120666500D01*
X158734144Y-120643221D01*
X158737563Y-120620166D01*
X158743227Y-120597557D01*
X158751079Y-120575613D01*
X158761044Y-120554543D01*
X158773026Y-120534552D01*
X158786910Y-120515832D01*
X158802562Y-120498562D01*
X158819832Y-120482910D01*
X158838552Y-120469026D01*
X158858543Y-120457044D01*
X158879613Y-120447079D01*
X158901557Y-120439227D01*
X158924166Y-120433563D01*
X158947221Y-120430144D01*
X158970500Y-120429000D01*
X159545500Y-120429000D01*
X159568779Y-120430144D01*
X159568779Y-120430144D01*
G37*
D13*
X159258000Y-120904000D03*
D12*
G36*
X157818779Y-120430144D02*
G01*
X157841834Y-120433563D01*
X157864443Y-120439227D01*
X157886387Y-120447079D01*
X157907457Y-120457044D01*
X157927448Y-120469026D01*
X157946168Y-120482910D01*
X157963438Y-120498562D01*
X157979090Y-120515832D01*
X157992974Y-120534552D01*
X158004956Y-120554543D01*
X158014921Y-120575613D01*
X158022773Y-120597557D01*
X158028437Y-120620166D01*
X158031856Y-120643221D01*
X158033000Y-120666500D01*
X158033000Y-121141500D01*
X158031856Y-121164779D01*
X158028437Y-121187834D01*
X158022773Y-121210443D01*
X158014921Y-121232387D01*
X158004956Y-121253457D01*
X157992974Y-121273448D01*
X157979090Y-121292168D01*
X157963438Y-121309438D01*
X157946168Y-121325090D01*
X157927448Y-121338974D01*
X157907457Y-121350956D01*
X157886387Y-121360921D01*
X157864443Y-121368773D01*
X157841834Y-121374437D01*
X157818779Y-121377856D01*
X157795500Y-121379000D01*
X157220500Y-121379000D01*
X157197221Y-121377856D01*
X157174166Y-121374437D01*
X157151557Y-121368773D01*
X157129613Y-121360921D01*
X157108543Y-121350956D01*
X157088552Y-121338974D01*
X157069832Y-121325090D01*
X157052562Y-121309438D01*
X157036910Y-121292168D01*
X157023026Y-121273448D01*
X157011044Y-121253457D01*
X157001079Y-121232387D01*
X156993227Y-121210443D01*
X156987563Y-121187834D01*
X156984144Y-121164779D01*
X156983000Y-121141500D01*
X156983000Y-120666500D01*
X156984144Y-120643221D01*
X156987563Y-120620166D01*
X156993227Y-120597557D01*
X157001079Y-120575613D01*
X157011044Y-120554543D01*
X157023026Y-120534552D01*
X157036910Y-120515832D01*
X157052562Y-120498562D01*
X157069832Y-120482910D01*
X157088552Y-120469026D01*
X157108543Y-120457044D01*
X157129613Y-120447079D01*
X157151557Y-120439227D01*
X157174166Y-120433563D01*
X157197221Y-120430144D01*
X157220500Y-120429000D01*
X157795500Y-120429000D01*
X157818779Y-120430144D01*
X157818779Y-120430144D01*
G37*
D13*
X157508000Y-120904000D03*
D12*
G36*
X155504779Y-95030144D02*
G01*
X155527834Y-95033563D01*
X155550443Y-95039227D01*
X155572387Y-95047079D01*
X155593457Y-95057044D01*
X155613448Y-95069026D01*
X155632168Y-95082910D01*
X155649438Y-95098562D01*
X155665090Y-95115832D01*
X155678974Y-95134552D01*
X155690956Y-95154543D01*
X155700921Y-95175613D01*
X155708773Y-95197557D01*
X155714437Y-95220166D01*
X155717856Y-95243221D01*
X155719000Y-95266500D01*
X155719000Y-95741500D01*
X155717856Y-95764779D01*
X155714437Y-95787834D01*
X155708773Y-95810443D01*
X155700921Y-95832387D01*
X155690956Y-95853457D01*
X155678974Y-95873448D01*
X155665090Y-95892168D01*
X155649438Y-95909438D01*
X155632168Y-95925090D01*
X155613448Y-95938974D01*
X155593457Y-95950956D01*
X155572387Y-95960921D01*
X155550443Y-95968773D01*
X155527834Y-95974437D01*
X155504779Y-95977856D01*
X155481500Y-95979000D01*
X154906500Y-95979000D01*
X154883221Y-95977856D01*
X154860166Y-95974437D01*
X154837557Y-95968773D01*
X154815613Y-95960921D01*
X154794543Y-95950956D01*
X154774552Y-95938974D01*
X154755832Y-95925090D01*
X154738562Y-95909438D01*
X154722910Y-95892168D01*
X154709026Y-95873448D01*
X154697044Y-95853457D01*
X154687079Y-95832387D01*
X154679227Y-95810443D01*
X154673563Y-95787834D01*
X154670144Y-95764779D01*
X154669000Y-95741500D01*
X154669000Y-95266500D01*
X154670144Y-95243221D01*
X154673563Y-95220166D01*
X154679227Y-95197557D01*
X154687079Y-95175613D01*
X154697044Y-95154543D01*
X154709026Y-95134552D01*
X154722910Y-95115832D01*
X154738562Y-95098562D01*
X154755832Y-95082910D01*
X154774552Y-95069026D01*
X154794543Y-95057044D01*
X154815613Y-95047079D01*
X154837557Y-95039227D01*
X154860166Y-95033563D01*
X154883221Y-95030144D01*
X154906500Y-95029000D01*
X155481500Y-95029000D01*
X155504779Y-95030144D01*
X155504779Y-95030144D01*
G37*
D13*
X155194000Y-95504000D03*
D12*
G36*
X153754779Y-95030144D02*
G01*
X153777834Y-95033563D01*
X153800443Y-95039227D01*
X153822387Y-95047079D01*
X153843457Y-95057044D01*
X153863448Y-95069026D01*
X153882168Y-95082910D01*
X153899438Y-95098562D01*
X153915090Y-95115832D01*
X153928974Y-95134552D01*
X153940956Y-95154543D01*
X153950921Y-95175613D01*
X153958773Y-95197557D01*
X153964437Y-95220166D01*
X153967856Y-95243221D01*
X153969000Y-95266500D01*
X153969000Y-95741500D01*
X153967856Y-95764779D01*
X153964437Y-95787834D01*
X153958773Y-95810443D01*
X153950921Y-95832387D01*
X153940956Y-95853457D01*
X153928974Y-95873448D01*
X153915090Y-95892168D01*
X153899438Y-95909438D01*
X153882168Y-95925090D01*
X153863448Y-95938974D01*
X153843457Y-95950956D01*
X153822387Y-95960921D01*
X153800443Y-95968773D01*
X153777834Y-95974437D01*
X153754779Y-95977856D01*
X153731500Y-95979000D01*
X153156500Y-95979000D01*
X153133221Y-95977856D01*
X153110166Y-95974437D01*
X153087557Y-95968773D01*
X153065613Y-95960921D01*
X153044543Y-95950956D01*
X153024552Y-95938974D01*
X153005832Y-95925090D01*
X152988562Y-95909438D01*
X152972910Y-95892168D01*
X152959026Y-95873448D01*
X152947044Y-95853457D01*
X152937079Y-95832387D01*
X152929227Y-95810443D01*
X152923563Y-95787834D01*
X152920144Y-95764779D01*
X152919000Y-95741500D01*
X152919000Y-95266500D01*
X152920144Y-95243221D01*
X152923563Y-95220166D01*
X152929227Y-95197557D01*
X152937079Y-95175613D01*
X152947044Y-95154543D01*
X152959026Y-95134552D01*
X152972910Y-95115832D01*
X152988562Y-95098562D01*
X153005832Y-95082910D01*
X153024552Y-95069026D01*
X153044543Y-95057044D01*
X153065613Y-95047079D01*
X153087557Y-95039227D01*
X153110166Y-95033563D01*
X153133221Y-95030144D01*
X153156500Y-95029000D01*
X153731500Y-95029000D01*
X153754779Y-95030144D01*
X153754779Y-95030144D01*
G37*
D13*
X153444000Y-95504000D03*
D14*
X125984000Y-120185000D03*
X125984000Y-127635000D03*
D15*
X122184000Y-120035000D03*
X122184000Y-127785000D03*
D16*
X139700000Y-127600000D03*
D17*
X142240000Y-127600000D03*
X144780000Y-127600000D03*
X147320000Y-127600000D03*
X149860000Y-127600000D03*
X152400000Y-127600000D03*
D16*
X177165000Y-127635000D03*
D17*
X179705000Y-127635000D03*
X182245000Y-127635000D03*
X182245000Y-124460000D03*
X179705000Y-124460000D03*
D16*
X177165000Y-124460000D03*
X177165000Y-121285000D03*
D17*
X179705000Y-121285000D03*
X182245000Y-121285000D03*
X182245000Y-118110000D03*
X179705000Y-118110000D03*
D16*
X177165000Y-118110000D03*
X177165000Y-114935000D03*
D17*
X179705000Y-114935000D03*
X182245000Y-114935000D03*
X182245000Y-111760000D03*
X179705000Y-111760000D03*
D16*
X177165000Y-111760000D03*
X177165000Y-108585000D03*
D17*
X179705000Y-108585000D03*
X182245000Y-108585000D03*
D16*
X177165000Y-105410000D03*
D17*
X179705000Y-105410000D03*
X182245000Y-105410000D03*
D16*
X177165000Y-102235000D03*
D17*
X179705000Y-102235000D03*
X182245000Y-102235000D03*
X182245000Y-99060000D03*
X179705000Y-99060000D03*
D16*
X177165000Y-99060000D03*
X177165000Y-95885000D03*
D17*
X179705000Y-95885000D03*
X182245000Y-95885000D03*
X182245000Y-92710000D03*
X179705000Y-92710000D03*
D16*
X177165000Y-92710000D03*
X177165000Y-89535000D03*
D17*
X179705000Y-89535000D03*
X182245000Y-89535000D03*
X182245000Y-86360000D03*
X179705000Y-86360000D03*
D16*
X177165000Y-86360000D03*
D17*
X122555000Y-86360000D03*
X125095000Y-86360000D03*
D16*
X127635000Y-86360000D03*
D17*
X122555000Y-89535000D03*
X125095000Y-89535000D03*
D16*
X127635000Y-89535000D03*
X127635000Y-92710000D03*
D17*
X125095000Y-92710000D03*
X122555000Y-92710000D03*
X122555000Y-95885000D03*
X125095000Y-95885000D03*
D16*
X127635000Y-95885000D03*
D17*
X122555000Y-99060000D03*
X125095000Y-99060000D03*
D16*
X127635000Y-99060000D03*
X127635000Y-102235000D03*
D17*
X125095000Y-102235000D03*
X122555000Y-102235000D03*
X122555000Y-105410000D03*
X125095000Y-105410000D03*
D16*
X127635000Y-105410000D03*
X127635000Y-108585000D03*
D17*
X125095000Y-108585000D03*
X122555000Y-108585000D03*
X122555000Y-111760000D03*
X125095000Y-111760000D03*
D16*
X127635000Y-111760000D03*
X127635000Y-114935000D03*
D17*
X125095000Y-114935000D03*
X122555000Y-114935000D03*
D16*
X158115000Y-127635000D03*
D17*
X160655000Y-127635000D03*
X163195000Y-127635000D03*
X165735000Y-127635000D03*
D18*
X132400000Y-126600000D03*
D19*
X134050000Y-126600000D03*
X133566726Y-127766726D03*
X132400000Y-128250000D03*
X131233274Y-127766726D03*
X130750000Y-126600000D03*
X131233274Y-125433274D03*
X132400000Y-124950000D03*
X133566726Y-125433274D03*
X173566726Y-81433274D03*
X172400000Y-80950000D03*
X171233274Y-81433274D03*
X170750000Y-82600000D03*
X171233274Y-83766726D03*
X172400000Y-84250000D03*
X173566726Y-83766726D03*
X174050000Y-82600000D03*
D18*
X172400000Y-82600000D03*
X172400000Y-126600000D03*
D19*
X174050000Y-126600000D03*
X173566726Y-127766726D03*
X172400000Y-128250000D03*
X171233274Y-127766726D03*
X170750000Y-126600000D03*
X171233274Y-125433274D03*
X172400000Y-124950000D03*
X173566726Y-125433274D03*
X133566726Y-81433274D03*
X132400000Y-80950000D03*
X131233274Y-81433274D03*
X130750000Y-82600000D03*
X131233274Y-83766726D03*
X132400000Y-84250000D03*
X133566726Y-83766726D03*
X134050000Y-82600000D03*
D18*
X132400000Y-82600000D03*
D16*
X167640000Y-81915000D03*
D17*
X167640000Y-84455000D03*
X167640000Y-86995000D03*
D16*
X126365000Y-81915000D03*
D17*
X123825000Y-81915000D03*
X180975000Y-81915000D03*
D16*
X178435000Y-81915000D03*
D20*
X167894000Y-91948000D03*
X167894000Y-92964000D03*
X167132000Y-92456000D03*
X167132000Y-91440000D03*
X167894000Y-90932000D03*
X136144000Y-124714000D03*
X136906000Y-124714000D03*
X137668000Y-124714000D03*
X135382000Y-124714000D03*
X132461000Y-92075000D03*
X133096000Y-91440000D03*
X133096000Y-93980000D03*
X132461000Y-93345000D03*
X133096000Y-92710000D03*
X167894000Y-97282000D03*
X167132000Y-96774000D03*
X167894000Y-96266000D03*
X167132000Y-97790000D03*
X167894000Y-98298000D03*
X137414000Y-104648000D03*
X137414000Y-105664000D03*
X138176000Y-104648000D03*
X138176000Y-105664000D03*
X137541000Y-93345000D03*
X137541000Y-92075000D03*
X136906000Y-92710000D03*
X136906000Y-91440000D03*
X136906000Y-93980000D03*
X158496000Y-104140000D03*
X157988000Y-106934000D03*
X161544000Y-109804203D03*
X158496000Y-109804203D03*
X157734000Y-122174000D03*
X157734000Y-119380000D03*
X161544000Y-114884203D03*
X158496000Y-115062000D03*
X146304000Y-118364000D03*
X143002000Y-118618000D03*
X142240000Y-104394000D03*
X143764000Y-105664000D03*
X170434000Y-113538000D03*
X170180000Y-109220000D03*
X127508000Y-125730000D03*
X124460000Y-125222000D03*
X123444000Y-125222000D03*
X127508000Y-126746000D03*
X148590000Y-99695000D03*
X153670000Y-93980000D03*
X153670000Y-97155000D03*
X145415000Y-88265000D03*
X146050000Y-92710000D03*
X137795000Y-113030000D03*
X141986000Y-121666000D03*
X135128000Y-116332000D03*
X135001000Y-100965000D03*
X135636000Y-100330000D03*
X135001000Y-99695000D03*
X135636000Y-99060000D03*
X135001000Y-98425000D03*
X157149797Y-106934000D03*
X157480000Y-103886000D03*
X161544000Y-108966000D03*
X158496000Y-108966000D03*
X161544000Y-110642406D03*
X158496000Y-110642406D03*
X158750000Y-122174000D03*
X158572203Y-119380000D03*
X161544000Y-114046000D03*
X158496000Y-114046000D03*
X146304000Y-119202203D03*
X143002000Y-119634000D03*
X146304000Y-103886000D03*
X145288000Y-105664000D03*
X167894000Y-114808000D03*
X149860000Y-100965000D03*
X154940000Y-93980000D03*
X154940000Y-97155000D03*
X158750000Y-116840000D03*
X161544000Y-116840000D03*
X155956000Y-119226000D03*
X148082000Y-122936000D03*
X146304000Y-117348000D03*
X153416000Y-112522000D03*
X151892000Y-118872000D03*
X151053797Y-118872000D03*
X150114000Y-118110000D03*
X149506000Y-117448000D03*
X146812000Y-116509797D03*
X147320000Y-108458000D03*
X147066000Y-106934000D03*
X158496000Y-100330000D03*
X158496000Y-99314000D03*
X162052000Y-98552000D03*
X161544000Y-96520000D03*
X146558000Y-110490000D03*
X173736000Y-107696000D03*
X146558000Y-111760000D03*
X173228000Y-110490000D03*
X162204406Y-104140000D03*
X161366203Y-104140000D03*
X160528000Y-104140000D03*
X159512000Y-104140000D03*
X172974000Y-112776000D03*
X148336000Y-115824000D03*
X158496000Y-101346000D03*
X157480000Y-100838000D03*
X153453000Y-114046000D03*
X140716000Y-104394000D03*
X154178000Y-113284000D03*
X142494000Y-107442000D03*
X168402000Y-101600000D03*
X154305000Y-98425000D03*
X170434000Y-100584000D03*
X157480000Y-93980000D03*
X155345000Y-122833000D03*
X130302000Y-107188000D03*
X160323500Y-93521500D03*
X139700000Y-107696000D03*
X137795000Y-111125000D03*
D21*
X133096000Y-94460000D02*
X134521000Y-95885000D01*
X133096000Y-93980000D02*
X133096000Y-94460000D01*
X133096000Y-93980000D02*
X133096000Y-91440000D01*
X132461000Y-92075000D02*
X132461000Y-93345000D01*
X136906000Y-95250000D02*
X136271000Y-95885000D01*
X136906000Y-93980000D02*
X136906000Y-95250000D01*
X136906000Y-93980000D02*
X136906000Y-91440000D01*
X137541000Y-92075000D02*
X137541000Y-93345000D01*
D22*
X157734000Y-121130000D02*
X157508000Y-120904000D01*
X157734000Y-122174000D02*
X157734000Y-121130000D01*
X157734000Y-120678000D02*
X157508000Y-120904000D01*
X157734000Y-119380000D02*
X157734000Y-120678000D01*
X160858203Y-109804203D02*
X161544000Y-109804203D01*
X160020000Y-108966000D02*
X160858203Y-109804203D01*
X159181797Y-109804203D02*
X158496000Y-109804203D01*
X160020000Y-108966000D02*
X159181797Y-109804203D01*
X160451797Y-114884203D02*
X160020000Y-115316000D01*
X161544000Y-114884203D02*
X160451797Y-114884203D01*
X159766000Y-115062000D02*
X160020000Y-115316000D01*
X158496000Y-115062000D02*
X159766000Y-115062000D01*
X145006000Y-118364000D02*
X144526000Y-117884000D01*
X146304000Y-118364000D02*
X145006000Y-118364000D01*
X143792000Y-118618000D02*
X144526000Y-117884000D01*
X143002000Y-118618000D02*
X143792000Y-118618000D01*
X143538000Y-104394000D02*
X142240000Y-104394000D01*
X143538000Y-105438000D02*
X143764000Y-105664000D01*
X143538000Y-104394000D02*
X143538000Y-105438000D01*
X158468000Y-106454000D02*
X157988000Y-106934000D01*
X158468000Y-105410000D02*
X158468000Y-106454000D01*
X169418000Y-113538000D02*
X169164000Y-113792000D01*
X170434000Y-113538000D02*
X169418000Y-113538000D01*
X158496000Y-105382000D02*
X158468000Y-105410000D01*
X158496000Y-104140000D02*
X158496000Y-105382000D01*
X153444000Y-94206000D02*
X153670000Y-93980000D01*
X153444000Y-95504000D02*
X153444000Y-94206000D01*
X153670000Y-95730000D02*
X153444000Y-95504000D01*
X153670000Y-97155000D02*
X153670000Y-95730000D01*
X158572203Y-120218203D02*
X159258000Y-120904000D01*
X158572203Y-119380000D02*
X158572203Y-120218203D01*
X158750000Y-121412000D02*
X159258000Y-120904000D01*
X158750000Y-122174000D02*
X158750000Y-121412000D01*
X161470406Y-110716000D02*
X161544000Y-110642406D01*
X160020000Y-110716000D02*
X161470406Y-110716000D01*
X158569594Y-110716000D02*
X158496000Y-110642406D01*
X160020000Y-110716000D02*
X158569594Y-110716000D01*
X159540000Y-114046000D02*
X160020000Y-113566000D01*
X158496000Y-114046000D02*
X159540000Y-114046000D01*
X160500000Y-114046000D02*
X160020000Y-113566000D01*
X161544000Y-114046000D02*
X160500000Y-114046000D01*
X144957797Y-119202203D02*
X144526000Y-119634000D01*
X146304000Y-119202203D02*
X144957797Y-119202203D01*
X143002000Y-119634000D02*
X144526000Y-119634000D01*
X145288000Y-105664000D02*
X145288000Y-104394000D01*
X145796000Y-104394000D02*
X146304000Y-103886000D01*
X145288000Y-104394000D02*
X145796000Y-104394000D01*
X157149797Y-105841797D02*
X156718000Y-105410000D01*
X157149797Y-106934000D02*
X157149797Y-105841797D01*
X156718000Y-104648000D02*
X157480000Y-103886000D01*
X156718000Y-105410000D02*
X156718000Y-104648000D01*
X166878000Y-115824000D02*
X167894000Y-114808000D01*
X166878000Y-116078000D02*
X166878000Y-115824000D01*
X168430000Y-114808000D02*
X169164000Y-115542000D01*
X167894000Y-114808000D02*
X168430000Y-114808000D01*
X154940000Y-95758000D02*
X155194000Y-95504000D01*
X154940000Y-97155000D02*
X154940000Y-95758000D01*
X155194000Y-94234000D02*
X154940000Y-93980000D01*
X155194000Y-95504000D02*
X155194000Y-94234000D01*
X155956000Y-123121842D02*
X154363842Y-124714000D01*
X155956000Y-119226000D02*
X155956000Y-123121842D01*
X152746000Y-124714000D02*
X149860000Y-127600000D01*
X154363842Y-124714000D02*
X152746000Y-124714000D01*
X146304000Y-117348000D02*
X147320000Y-118364000D01*
X147320000Y-122174000D02*
X148082000Y-122936000D01*
X147320000Y-118364000D02*
X147320000Y-122174000D01*
X173736000Y-111760000D02*
X177165000Y-111760000D01*
X153924000Y-112014000D02*
X173482000Y-112014000D01*
X173482000Y-112014000D02*
X173736000Y-111760000D01*
X153416000Y-112522000D02*
X153924000Y-112014000D01*
X175736573Y-124682573D02*
X175736573Y-126269427D01*
X169672000Y-118618000D02*
X175736573Y-124682573D01*
X177102146Y-127635000D02*
X177165000Y-127635000D01*
X152146000Y-118618000D02*
X169672000Y-118618000D01*
X175736573Y-126269427D02*
X177102146Y-127635000D01*
X151892000Y-118872000D02*
X152146000Y-118618000D01*
X171995190Y-118240190D02*
X168241640Y-118240190D01*
X177165000Y-124460000D02*
X177165000Y-123410000D01*
X177165000Y-123410000D02*
X171995190Y-118240190D01*
X168241640Y-118240190D02*
X156972000Y-118240190D01*
X156972000Y-118240190D02*
X151761810Y-118240190D01*
X151053797Y-118810361D02*
X151053797Y-118872000D01*
X151623968Y-118240190D02*
X151053797Y-118810361D01*
X151761810Y-118240190D02*
X151623968Y-118240190D01*
X176115000Y-121285000D02*
X172686000Y-117856000D01*
X177165000Y-121285000D02*
X176115000Y-121285000D01*
X172686000Y-117856000D02*
X157480000Y-117856000D01*
X150368000Y-117856000D02*
X150114000Y-118110000D01*
X157480000Y-117856000D02*
X150368000Y-117856000D01*
X176503000Y-117448000D02*
X177165000Y-118110000D01*
X150522000Y-117448000D02*
X149506000Y-117448000D01*
X150522000Y-117448000D02*
X176503000Y-117448000D01*
X146812000Y-116509797D02*
X156286203Y-116509797D01*
X156677190Y-116118810D02*
X162519190Y-116118810D01*
X156286203Y-116509797D02*
X156677190Y-116118810D01*
X162519190Y-116118810D02*
X163470570Y-117070190D01*
X173979810Y-117070190D02*
X176115000Y-114935000D01*
X176115000Y-114935000D02*
X177165000Y-114935000D01*
X163470570Y-117070190D02*
X173979810Y-117070190D01*
X173859810Y-106803810D02*
X175641000Y-108585000D01*
X175641000Y-108585000D02*
X177165000Y-108585000D01*
X159552336Y-106803810D02*
X173859810Y-106803810D01*
X158406147Y-107949999D02*
X159552336Y-106803810D01*
X147828000Y-107950000D02*
X158406147Y-107949999D01*
X147828000Y-107950000D02*
X147320000Y-108458000D01*
X163830000Y-105410000D02*
X177165000Y-105410000D01*
X162814000Y-106426000D02*
X163830000Y-105410000D01*
X158249652Y-107572190D02*
X159395842Y-106426000D01*
X147704190Y-107572190D02*
X158249652Y-107572190D01*
X159395842Y-106426000D02*
X162814000Y-106426000D01*
X147066000Y-106934000D02*
X147704190Y-107572190D01*
X161798000Y-102870000D02*
X159258000Y-100330000D01*
X173990000Y-102870000D02*
X161798000Y-102870000D01*
X174625000Y-102235000D02*
X173990000Y-102870000D01*
X159258000Y-100330000D02*
X158496000Y-100330000D01*
X177165000Y-102235000D02*
X174625000Y-102235000D01*
X170942000Y-102362000D02*
X174244000Y-99060000D01*
X174244000Y-99060000D02*
X177165000Y-99060000D01*
X162052000Y-102362000D02*
X170942000Y-102362000D01*
X159612000Y-99922000D02*
X160528000Y-100838000D01*
X160528000Y-100838000D02*
X162052000Y-102362000D01*
X159004000Y-99314000D02*
X159612000Y-99922000D01*
X158496000Y-99314000D02*
X159004000Y-99314000D01*
X165862000Y-98552000D02*
X167132000Y-99822000D01*
X162052000Y-98552000D02*
X165862000Y-98552000D01*
X167132000Y-99822000D02*
X170942000Y-99822000D01*
X170942000Y-99822000D02*
X174879000Y-95885000D01*
X174879000Y-95885000D02*
X177165000Y-95885000D01*
X173990000Y-92710000D02*
X177165000Y-92710000D01*
X161544000Y-96520000D02*
X162179000Y-95885000D01*
X166878000Y-94742000D02*
X165735000Y-95885000D01*
X171958000Y-94742000D02*
X166878000Y-94742000D01*
X162179000Y-95885000D02*
X165735000Y-95885000D01*
X171958000Y-94742000D02*
X173990000Y-92710000D01*
X146558000Y-110490000D02*
X148720190Y-108327810D01*
X148720190Y-108327810D02*
X159004000Y-108327810D01*
X160036240Y-107696000D02*
X163068000Y-107696000D01*
X159635810Y-107696000D02*
X160036240Y-107696000D01*
X159004000Y-108327810D02*
X159635810Y-107696000D01*
X170942000Y-107696000D02*
X163068000Y-107696000D01*
X171958000Y-107696000D02*
X173736000Y-107696000D01*
X171958000Y-107696000D02*
X170942000Y-107696000D01*
X152832018Y-111760000D02*
X146558000Y-111760000D01*
X153073208Y-111518810D02*
X152832018Y-111760000D01*
X166076886Y-111518810D02*
X153073208Y-111518810D01*
X167105696Y-110490000D02*
X166076886Y-111518810D01*
X173228000Y-110490000D02*
X167105696Y-110490000D01*
X160372049Y-102144569D02*
X162204406Y-103976926D01*
X139874411Y-102144569D02*
X160372049Y-102144569D01*
X134942921Y-97213079D02*
X139874411Y-102144569D01*
X162204406Y-103976926D02*
X162204406Y-104140000D01*
X128685000Y-92710000D02*
X133188079Y-97213079D01*
X127635000Y-92710000D02*
X128685000Y-92710000D01*
X133188079Y-97213079D02*
X134942921Y-97213079D01*
X135322379Y-102522379D02*
X128685000Y-95885000D01*
X128685000Y-95885000D02*
X127635000Y-95885000D01*
X161366203Y-104078361D02*
X159810221Y-102522379D01*
X159810221Y-102522379D02*
X135322379Y-102522379D01*
X161366203Y-104140000D02*
X161366203Y-104078361D01*
X128685000Y-99060000D02*
X127635000Y-99060000D01*
X132525189Y-102900189D02*
X128685000Y-99060000D01*
X159288189Y-102900189D02*
X132525189Y-102900189D01*
X160528000Y-104140000D02*
X159288189Y-102900189D01*
X159512000Y-104140000D02*
X158649999Y-103277999D01*
X128685000Y-102235000D02*
X127635000Y-102235000D01*
X129727999Y-103277999D02*
X128685000Y-102235000D01*
X143356001Y-103277999D02*
X129727999Y-103277999D01*
X158649999Y-103277999D02*
X143356001Y-103277999D01*
X157734000Y-112522000D02*
X172720000Y-112522000D01*
X172720000Y-112522000D02*
X172974000Y-112776000D01*
X157353000Y-112522000D02*
X157734000Y-112522000D01*
X157229190Y-112645810D02*
X157353000Y-112522000D01*
X154051000Y-115824000D02*
X157229190Y-112645810D01*
X148336000Y-115824000D02*
X154051000Y-115824000D01*
X157775027Y-101600000D02*
X158029027Y-101346000D01*
X145615000Y-101600000D02*
X157775027Y-101600000D01*
X158029027Y-101346000D02*
X158496000Y-101346000D01*
X141170000Y-97155000D02*
X145615000Y-101600000D01*
X140970000Y-97155000D02*
X141170000Y-97155000D01*
X157480000Y-100838000D02*
X152473000Y-100838000D01*
X141170000Y-89535000D02*
X140970000Y-89535000D01*
X152473000Y-100838000D02*
X141170000Y-89535000D01*
X140716000Y-108458000D02*
X140716000Y-104394000D01*
X146304000Y-114046000D02*
X140716000Y-108458000D01*
X153453000Y-114046000D02*
X146304000Y-114046000D01*
X147182158Y-113284000D02*
X142494000Y-108595842D01*
X154178000Y-113284000D02*
X147182158Y-113284000D01*
X142494000Y-108595842D02*
X142494000Y-107442000D01*
X168017810Y-101984190D02*
X168402000Y-101600000D01*
X162663886Y-101984190D02*
X168017810Y-101984190D01*
X159663497Y-98983801D02*
X162663886Y-101984190D01*
X159104696Y-98425000D02*
X159663497Y-98983801D01*
X154305000Y-98425000D02*
X159104696Y-98425000D01*
X157480000Y-95758000D02*
X157480000Y-94742000D01*
X163068000Y-101346000D02*
X157480000Y-95758000D01*
X166878000Y-101346000D02*
X163068000Y-101346000D01*
X167640000Y-100584000D02*
X166878000Y-101346000D01*
X157480000Y-94742000D02*
X157480000Y-93980000D01*
X170434000Y-100584000D02*
X167640000Y-100584000D01*
X130302000Y-107188000D02*
X135890000Y-112776000D01*
D23*
X154353000Y-123825000D02*
X155345000Y-122833000D01*
D22*
X145415000Y-123825000D02*
X143764000Y-122174000D01*
D23*
X145415000Y-123825000D02*
X154353000Y-123825000D01*
D22*
X143764000Y-122174000D02*
X135890000Y-114300000D01*
X135890000Y-112776000D02*
X135890000Y-114300000D01*
X160323500Y-93521500D02*
X162847810Y-90997190D01*
X176022000Y-83820000D02*
X178054000Y-83820000D01*
X178435000Y-83439000D02*
X178435000Y-81915000D01*
X178054000Y-83820000D02*
X178435000Y-83439000D01*
X166624000Y-89408000D02*
X165034810Y-90997190D01*
X162847810Y-90997190D02*
X165034810Y-90997190D01*
X170434000Y-89408000D02*
X166624000Y-89408000D01*
X170434000Y-89408000D02*
X176022000Y-83820000D01*
X137795000Y-108585000D02*
X137795000Y-111125000D01*
X139700000Y-107696000D02*
X138684000Y-107696000D01*
X138684000Y-107696000D02*
X138557000Y-107823000D01*
X138557000Y-107823000D02*
X137795000Y-108585000D01*
M02*
