M48
; DRILL file {KiCad (5.1.2-1)-1} date 2019 July 06, Saturday 18:38:25
; FORMAT={-:-/ absolute / inch / decimal}
; #@! TF.CreationDate,2019-07-06T18:38:25+02:00
; #@! TF.GenerationSoftware,Kicad,Pcbnew,(5.1.2-1)-1
FMAT,2
INCH
T1C0.0118
T2C0.0157
T3C0.0217
T4C0.0335
T5C0.0394
T6C0.0866
T7C0.0315
%
G90
G05
T1
X4.86Y-4.93
X4.9Y-4.93
X5.02Y-4.95
X5.02Y-4.99
X5.13Y-4.22
X5.215Y-3.625
X5.215Y-3.675
X5.24Y-3.6
X5.24Y-3.65
X5.24Y-3.7
X5.315Y-3.875
X5.315Y-3.925
X5.315Y-3.975
X5.32Y-4.58
X5.33Y-4.91
X5.34Y-3.9
X5.34Y-3.95
X5.36Y-4.91
X5.39Y-3.6
X5.39Y-3.65
X5.39Y-3.7
X5.39Y-4.91
X5.41Y-4.12
X5.41Y-4.16
X5.415Y-3.625
X5.415Y-3.675
X5.42Y-4.91
X5.425Y-4.375
X5.425Y-4.45
X5.44Y-4.12
X5.44Y-4.16
X5.5Y-4.24
X5.54Y-4.11
X5.59Y-4.79
X5.6Y-4.11
X5.61Y-4.23
X5.63Y-4.67
X5.63Y-4.71
X5.66Y-4.16
X5.72Y-4.16
X5.725Y-3.475
X5.75Y-3.65
X5.76Y-4.09
X5.76Y-4.62
X5.76Y-4.66
X5.76Y-4.693
X5.77Y-4.35
X5.77Y-4.4
X5.78Y-4.587
X5.79Y-4.21
X5.8Y-4.27
X5.83Y-4.84
X5.84Y-4.56
X5.85Y-3.925
X5.8861Y-4.6239
X5.9Y-3.975
X5.91Y-4.65
X5.947Y-4.68
X5.98Y-4.68
X6.04Y-4.43
X6.0415Y-4.49
X6.05Y-3.7
X6.05Y-3.825
X6.07Y-4.46
X6.075Y-3.875
X6.1Y-3.7
X6.1Y-3.825
X6.1159Y-4.8359
X6.14Y-4.6939
X6.187Y-4.21
X6.2Y-3.7
X6.2Y-3.97
X6.2Y-4.09
X6.21Y-4.7
X6.21Y-4.81
X6.22Y-4.21
X6.24Y-3.91
X6.24Y-3.95
X6.24Y-3.99
X6.24Y-4.1
X6.24Y-4.29
X6.24Y-4.323
X6.24Y-4.356
X6.24Y-4.49
X6.24Y-4.53
X6.243Y-4.7
X6.25Y-4.6
X6.25Y-4.81
X6.28Y-4.1
X6.3119Y-3.6819
X6.32Y-4.1
X6.353Y-4.1
X6.36Y-3.8
X6.36Y-4.29
X6.36Y-4.323
X6.36Y-4.356
X6.36Y-4.49
X6.36Y-4.523
X6.36Y-4.6
X6.38Y-3.88
X6.386Y-4.1
X6.58Y-3.6
X6.58Y-3.64
X6.58Y-3.81
X6.58Y-3.85
X6.61Y-3.58
X6.61Y-3.62
X6.61Y-3.66
X6.61Y-3.79
X6.61Y-3.83
X6.61Y-3.87
X6.61Y-4.52
X6.63Y-4.0
X6.7Y-4.3
X6.71Y-3.96
X6.71Y-4.47
X6.81Y-4.44
X6.82Y-4.35
X6.84Y-4.24
T2
X6.7224Y-3.252
X6.7415Y-3.206
X6.7415Y-3.2979
X6.7874Y-3.187
X6.7874Y-3.3169
X6.8333Y-3.206
X6.8333Y-3.2979
X6.8524Y-3.252
X5.1476Y-3.252
X5.1667Y-3.206
X5.1667Y-3.2979
X5.2126Y-3.187
X5.2126Y-3.3169
X5.2585Y-3.206
X5.2585Y-3.2979
X5.2776Y-3.252
X5.1476Y-4.9843
X5.1667Y-4.9383
X5.1667Y-5.0302
X5.2126Y-4.9193
X5.2126Y-5.0492
X5.2585Y-4.9383
X5.2585Y-5.0302
X5.2776Y-4.9843
X6.7224Y-4.9843
X6.7415Y-4.9383
X6.7415Y-5.0302
X6.7874Y-4.9193
X6.7874Y-5.0492
X6.8333Y-4.9383
X6.8333Y-5.0302
X6.8524Y-4.9843
T5
X4.825Y-3.9
X4.925Y-3.9
X5.025Y-3.9
X6.975Y-3.775
X7.075Y-3.775
X7.175Y-3.775
X6.6Y-3.225
X6.6Y-3.325
X6.6Y-3.425
X6.225Y-5.025
X6.325Y-5.025
X6.425Y-5.025
X6.525Y-5.025
X6.975Y-4.15
X7.075Y-4.15
X7.175Y-4.15
X6.975Y-4.4
X7.075Y-4.4
X7.175Y-4.4
X6.975Y-3.525
X7.075Y-3.525
X7.175Y-3.525
X6.975Y-4.525
X7.075Y-4.525
X7.175Y-4.525
X5.5Y-5.0236
X5.6Y-5.0236
X5.7Y-5.0236
X5.8Y-5.0236
X5.9Y-5.0236
X6.0Y-5.0236
X6.975Y-4.275
X7.075Y-4.275
X7.175Y-4.275
X4.825Y-3.775
X4.925Y-3.775
X5.025Y-3.775
X4.825Y-3.4
X4.925Y-3.4
X5.025Y-3.4
X4.825Y-4.4
X4.925Y-4.4
X5.025Y-4.4
X6.975Y-3.9
X7.075Y-3.9
X7.175Y-3.9
X4.825Y-4.15
X4.925Y-4.15
X5.025Y-4.15
X4.825Y-3.65
X4.925Y-3.65
X5.025Y-3.65
X6.975Y-4.025
X7.075Y-4.025
X7.175Y-4.025
X4.825Y-3.525
X4.925Y-3.525
X5.025Y-3.525
X4.825Y-4.275
X4.925Y-4.275
X5.025Y-4.275
X7.025Y-3.225
X7.125Y-3.225
X6.975Y-5.025
X7.075Y-5.025
X7.175Y-5.025
X6.975Y-3.4
X7.075Y-3.4
X7.175Y-3.4
X6.975Y-4.65
X7.075Y-4.65
X7.175Y-4.65
X5.55Y-3.225
X5.55Y-3.325
X5.55Y-3.425
X5.55Y-3.525
X5.55Y-3.625
X5.55Y-3.725
X5.55Y-3.825
X5.55Y-3.925
X6.45Y-3.225
X6.45Y-3.325
X6.45Y-3.425
X6.45Y-3.525
X6.45Y-3.625
X6.45Y-3.725
X6.45Y-3.825
X6.45Y-3.925
X4.825Y-4.525
X4.925Y-4.525
X5.025Y-4.525
X4.825Y-4.025
X4.925Y-4.025
X5.025Y-4.025
X4.875Y-3.225
X4.975Y-3.225
X6.975Y-3.65
X7.075Y-3.65
X7.175Y-3.65
X6.975Y-4.775
X7.075Y-4.775
X7.175Y-4.775
X6.975Y-4.9
X7.075Y-4.9
X7.175Y-4.9
T6
X6.7874Y-3.252
X5.2126Y-3.252
X5.2126Y-4.9843
X6.7874Y-4.9843
T7
X4.9187Y-4.7799
X4.9187Y-4.9768
T3
G00X4.8232Y-4.7258
M15
G01X4.7976Y-4.7258
M16
G05
G00X4.8232Y-5.0309
M15
G01X4.7976Y-5.0309
M16
G05
T4
G00X4.9708Y-4.7317
M15
G01X4.9492Y-4.7317
M16
G05
G00X4.9708Y-5.025
M15
G01X4.9492Y-5.025
M16
G05
T0
M30
