G04 #@! TF.GenerationSoftware,KiCad,Pcbnew,(5.1.2-1)-1*
G04 #@! TF.CreationDate,2019-07-06T18:38:22+02:00*
G04 #@! TF.ProjectId,servonoid,73657276-6f6e-46f6-9964-2e6b69636164,rev?*
G04 #@! TF.SameCoordinates,Original*
G04 #@! TF.FileFunction,Legend,Top*
G04 #@! TF.FilePolarity,Positive*
%FSLAX46Y46*%
G04 Gerber Fmt 4.6, Leading zero omitted, Abs format (unit mm)*
G04 Created by KiCad (PCBNEW (5.1.2-1)-1) date 2019-07-06 18:38:22*
%MOMM*%
%LPD*%
G04 APERTURE LIST*
%ADD10C,0.175000*%
%ADD11C,0.120000*%
%ADD12C,0.150000*%
G04 APERTURE END LIST*
D10*
X162933523Y-121788880D02*
X162933523Y-120788880D01*
X162933523Y-121265071D02*
X163504952Y-121265071D01*
X163504952Y-121788880D02*
X163504952Y-120788880D01*
X164314476Y-121265071D02*
X164457333Y-121312690D01*
X164504952Y-121360309D01*
X164552571Y-121455547D01*
X164552571Y-121598404D01*
X164504952Y-121693642D01*
X164457333Y-121741261D01*
X164362095Y-121788880D01*
X163981142Y-121788880D01*
X163981142Y-120788880D01*
X164314476Y-120788880D01*
X164409714Y-120836500D01*
X164457333Y-120884119D01*
X164504952Y-120979357D01*
X164504952Y-121074595D01*
X164457333Y-121169833D01*
X164409714Y-121217452D01*
X164314476Y-121265071D01*
X163981142Y-121265071D01*
X165171619Y-120788880D02*
X165362095Y-120788880D01*
X165457333Y-120836500D01*
X165552571Y-120931738D01*
X165600190Y-121122214D01*
X165600190Y-121455547D01*
X165552571Y-121646023D01*
X165457333Y-121741261D01*
X165362095Y-121788880D01*
X165171619Y-121788880D01*
X165076380Y-121741261D01*
X164981142Y-121646023D01*
X164933523Y-121455547D01*
X164933523Y-121122214D01*
X164981142Y-120931738D01*
X165076380Y-120836500D01*
X165171619Y-120788880D01*
X165885904Y-120788880D02*
X166457333Y-120788880D01*
X166171619Y-121788880D02*
X166171619Y-120788880D01*
X167409714Y-120788880D02*
X167743047Y-121788880D01*
X168076380Y-120788880D01*
X168933523Y-121788880D02*
X168362095Y-121788880D01*
X168647809Y-121788880D02*
X168647809Y-120788880D01*
X168552571Y-120931738D01*
X168457333Y-121026976D01*
X168362095Y-121074595D01*
X169362095Y-121693642D02*
X169409714Y-121741261D01*
X169362095Y-121788880D01*
X169314476Y-121741261D01*
X169362095Y-121693642D01*
X169362095Y-121788880D01*
X170028761Y-120788880D02*
X170124000Y-120788880D01*
X170219238Y-120836500D01*
X170266857Y-120884119D01*
X170314476Y-120979357D01*
X170362095Y-121169833D01*
X170362095Y-121407928D01*
X170314476Y-121598404D01*
X170266857Y-121693642D01*
X170219238Y-121741261D01*
X170124000Y-121788880D01*
X170028761Y-121788880D01*
X169933523Y-121741261D01*
X169885904Y-121693642D01*
X169838285Y-121598404D01*
X169790666Y-121407928D01*
X169790666Y-121169833D01*
X169838285Y-120979357D01*
X169885904Y-120884119D01*
X169933523Y-120836500D01*
X170028761Y-120788880D01*
X163671619Y-122511500D02*
X163576380Y-122463880D01*
X163433523Y-122463880D01*
X163290666Y-122511500D01*
X163195428Y-122606738D01*
X163147809Y-122701976D01*
X163100190Y-122892452D01*
X163100190Y-123035309D01*
X163147809Y-123225785D01*
X163195428Y-123321023D01*
X163290666Y-123416261D01*
X163433523Y-123463880D01*
X163528761Y-123463880D01*
X163671619Y-123416261D01*
X163719238Y-123368642D01*
X163719238Y-123035309D01*
X163528761Y-123035309D01*
X164100190Y-123178166D02*
X164576380Y-123178166D01*
X164004952Y-123463880D02*
X164338285Y-122463880D01*
X164671619Y-123463880D01*
X165338285Y-122940071D02*
X165481142Y-122987690D01*
X165528761Y-123035309D01*
X165576380Y-123130547D01*
X165576380Y-123273404D01*
X165528761Y-123368642D01*
X165481142Y-123416261D01*
X165385904Y-123463880D01*
X165004952Y-123463880D01*
X165004952Y-122463880D01*
X165338285Y-122463880D01*
X165433523Y-122511500D01*
X165481142Y-122559119D01*
X165528761Y-122654357D01*
X165528761Y-122749595D01*
X165481142Y-122844833D01*
X165433523Y-122892452D01*
X165338285Y-122940071D01*
X165004952Y-122940071D01*
X166719238Y-122559119D02*
X166766857Y-122511500D01*
X166862095Y-122463880D01*
X167100190Y-122463880D01*
X167195428Y-122511500D01*
X167243047Y-122559119D01*
X167290666Y-122654357D01*
X167290666Y-122749595D01*
X167243047Y-122892452D01*
X166671619Y-123463880D01*
X167290666Y-123463880D01*
X167909714Y-122463880D02*
X168004952Y-122463880D01*
X168100190Y-122511500D01*
X168147809Y-122559119D01*
X168195428Y-122654357D01*
X168243047Y-122844833D01*
X168243047Y-123082928D01*
X168195428Y-123273404D01*
X168147809Y-123368642D01*
X168100190Y-123416261D01*
X168004952Y-123463880D01*
X167909714Y-123463880D01*
X167814476Y-123416261D01*
X167766857Y-123368642D01*
X167719238Y-123273404D01*
X167671619Y-123082928D01*
X167671619Y-122844833D01*
X167719238Y-122654357D01*
X167766857Y-122559119D01*
X167814476Y-122511500D01*
X167909714Y-122463880D01*
X169195428Y-123463880D02*
X168624000Y-123463880D01*
X168909714Y-123463880D02*
X168909714Y-122463880D01*
X168814476Y-122606738D01*
X168719238Y-122701976D01*
X168624000Y-122749595D01*
X169671619Y-123463880D02*
X169862095Y-123463880D01*
X169957333Y-123416261D01*
X170004952Y-123368642D01*
X170100190Y-123225785D01*
X170147809Y-123035309D01*
X170147809Y-122654357D01*
X170100190Y-122559119D01*
X170052571Y-122511500D01*
X169957333Y-122463880D01*
X169766857Y-122463880D01*
X169671619Y-122511500D01*
X169624000Y-122559119D01*
X169576380Y-122654357D01*
X169576380Y-122892452D01*
X169624000Y-122987690D01*
X169671619Y-123035309D01*
X169766857Y-123082928D01*
X169957333Y-123082928D01*
X170052571Y-123035309D01*
X170100190Y-122987690D01*
X170147809Y-122892452D01*
D11*
X128973733Y-117346000D02*
X129316267Y-117346000D01*
X128973733Y-118366000D02*
X129316267Y-118366000D01*
X142010000Y-108035000D02*
X165330000Y-108035000D01*
X139470000Y-101135000D02*
X139470000Y-75705000D01*
X165330000Y-108035000D02*
X165330000Y-75705000D01*
X163210000Y-73575000D02*
X141600000Y-73575000D01*
D12*
G36*
X138430000Y-81280000D02*
G01*
X138430000Y-82550000D01*
X139065000Y-81915000D01*
X138430000Y-81280000D01*
G37*
X138430000Y-81280000D02*
X138430000Y-82550000D01*
X139065000Y-81915000D01*
X138430000Y-81280000D01*
D11*
X139470000Y-101135000D02*
X142010000Y-101135000D01*
X142010000Y-101135000D02*
X142010000Y-108035000D01*
X139470000Y-75705000D02*
G75*
G02X141600000Y-73575000I2130000J0D01*
G01*
X163200000Y-73575000D02*
G75*
G02X165330000Y-75705000I0J-2130000D01*
G01*
X131736000Y-101360000D02*
X132996000Y-101360000D01*
X138556000Y-101360000D02*
X137296000Y-101360000D01*
X131736000Y-97600000D02*
X131736000Y-101360000D01*
X138556000Y-95350000D02*
X138556000Y-101360000D01*
X145935000Y-106055000D02*
X145235000Y-106055000D01*
X145235000Y-106055000D02*
X145235000Y-106755000D01*
X158755000Y-106055000D02*
X159455000Y-106055000D01*
X159455000Y-106055000D02*
X159455000Y-106755000D01*
X145935000Y-120275000D02*
X145235000Y-120275000D01*
X145235000Y-120275000D02*
X145235000Y-119575000D01*
X158755000Y-120275000D02*
X159455000Y-120275000D01*
X159455000Y-120275000D02*
X159455000Y-119575000D01*
X159455000Y-119575000D02*
X160820000Y-119575000D01*
X131736000Y-93310000D02*
X134086000Y-93310000D01*
X138556000Y-93310000D02*
X136206000Y-93310000D01*
X138556000Y-87554437D02*
X138556000Y-93310000D01*
X131736000Y-87554437D02*
X131736000Y-93310000D01*
X132800437Y-86490000D02*
X134086000Y-86490000D01*
X137491563Y-86490000D02*
X136206000Y-86490000D01*
X137491563Y-86490000D02*
X138556000Y-87554437D01*
X132800437Y-86490000D02*
X131736000Y-87554437D01*
X136993500Y-85462500D02*
X136993500Y-86250000D01*
X137387250Y-85856250D02*
X136599750Y-85856250D01*
X167835733Y-109730000D02*
X168178267Y-109730000D01*
X167835733Y-108710000D02*
X168178267Y-108710000D01*
X147543733Y-101475000D02*
X147886267Y-101475000D01*
X147543733Y-100455000D02*
X147886267Y-100455000D01*
X141226000Y-120591733D02*
X141226000Y-120934267D01*
X140206000Y-120591733D02*
X140206000Y-120934267D01*
X156085000Y-84866267D02*
X156085000Y-84523733D01*
X155065000Y-84866267D02*
X155065000Y-84523733D01*
X151640000Y-84523733D02*
X151640000Y-84866267D01*
X150620000Y-84523733D02*
X150620000Y-84866267D01*
X146461267Y-86485000D02*
X146118733Y-86485000D01*
X146461267Y-87505000D02*
X146118733Y-87505000D01*
X147830000Y-92143733D02*
X147830000Y-92486267D01*
X146810000Y-92143733D02*
X146810000Y-92486267D01*
X122072000Y-117006000D02*
X125222000Y-117006000D01*
X122072000Y-118706000D02*
X125222000Y-118706000D01*
X122072000Y-117006000D02*
X122072000Y-118706000D01*
X137375000Y-125374000D02*
X135675000Y-125374000D01*
X135675000Y-125374000D02*
X135675000Y-128524000D01*
X137375000Y-125374000D02*
X137375000Y-128524000D01*
D12*
X124784000Y-119760000D02*
X123384000Y-119760000D01*
X120984000Y-119760000D02*
X120834000Y-119760000D01*
X120834000Y-119760000D02*
X120834000Y-120060000D01*
X120834000Y-120060000D02*
X120384000Y-120060000D01*
X120384000Y-127760000D02*
X120834000Y-127760000D01*
X120834000Y-127760000D02*
X120834000Y-128060000D01*
X120834000Y-128060000D02*
X120984000Y-128060000D01*
X123384000Y-128060000D02*
X124784000Y-128060000D01*
X126959000Y-122835000D02*
X126959000Y-122110000D01*
X126959000Y-122110000D02*
X126534000Y-122110000D01*
X126534000Y-122110000D02*
X126534000Y-121110000D01*
X126534000Y-125710000D02*
X126534000Y-126710000D01*
D11*
X153730000Y-128930000D02*
X153730000Y-126270000D01*
X140970000Y-128930000D02*
X153730000Y-128930000D01*
X140970000Y-126270000D02*
X153730000Y-126270000D01*
X140970000Y-128930000D02*
X140970000Y-126270000D01*
X139700000Y-128930000D02*
X138370000Y-128930000D01*
X138370000Y-128930000D02*
X138370000Y-127600000D01*
X183575000Y-128965000D02*
X183575000Y-126305000D01*
X178435000Y-128965000D02*
X183575000Y-128965000D01*
X178435000Y-126305000D02*
X183575000Y-126305000D01*
X178435000Y-128965000D02*
X178435000Y-126305000D01*
X177165000Y-128965000D02*
X175835000Y-128965000D01*
X175835000Y-128965000D02*
X175835000Y-127635000D01*
X175835000Y-125790000D02*
X175835000Y-124460000D01*
X177165000Y-125790000D02*
X175835000Y-125790000D01*
X178435000Y-125790000D02*
X178435000Y-123130000D01*
X178435000Y-123130000D02*
X183575000Y-123130000D01*
X178435000Y-125790000D02*
X183575000Y-125790000D01*
X183575000Y-125790000D02*
X183575000Y-123130000D01*
X183575000Y-122615000D02*
X183575000Y-119955000D01*
X178435000Y-122615000D02*
X183575000Y-122615000D01*
X178435000Y-119955000D02*
X183575000Y-119955000D01*
X178435000Y-122615000D02*
X178435000Y-119955000D01*
X177165000Y-122615000D02*
X175835000Y-122615000D01*
X175835000Y-122615000D02*
X175835000Y-121285000D01*
X175835000Y-119440000D02*
X175835000Y-118110000D01*
X177165000Y-119440000D02*
X175835000Y-119440000D01*
X178435000Y-119440000D02*
X178435000Y-116780000D01*
X178435000Y-116780000D02*
X183575000Y-116780000D01*
X178435000Y-119440000D02*
X183575000Y-119440000D01*
X183575000Y-119440000D02*
X183575000Y-116780000D01*
X183575000Y-116265000D02*
X183575000Y-113605000D01*
X178435000Y-116265000D02*
X183575000Y-116265000D01*
X178435000Y-113605000D02*
X183575000Y-113605000D01*
X178435000Y-116265000D02*
X178435000Y-113605000D01*
X177165000Y-116265000D02*
X175835000Y-116265000D01*
X175835000Y-116265000D02*
X175835000Y-114935000D01*
X175835000Y-113090000D02*
X175835000Y-111760000D01*
X177165000Y-113090000D02*
X175835000Y-113090000D01*
X178435000Y-113090000D02*
X178435000Y-110430000D01*
X178435000Y-110430000D02*
X183575000Y-110430000D01*
X178435000Y-113090000D02*
X183575000Y-113090000D01*
X183575000Y-113090000D02*
X183575000Y-110430000D01*
X183575000Y-109915000D02*
X183575000Y-107255000D01*
X178435000Y-109915000D02*
X183575000Y-109915000D01*
X178435000Y-107255000D02*
X183575000Y-107255000D01*
X178435000Y-109915000D02*
X178435000Y-107255000D01*
X177165000Y-109915000D02*
X175835000Y-109915000D01*
X175835000Y-109915000D02*
X175835000Y-108585000D01*
X183575000Y-106740000D02*
X183575000Y-104080000D01*
X178435000Y-106740000D02*
X183575000Y-106740000D01*
X178435000Y-104080000D02*
X183575000Y-104080000D01*
X178435000Y-106740000D02*
X178435000Y-104080000D01*
X177165000Y-106740000D02*
X175835000Y-106740000D01*
X175835000Y-106740000D02*
X175835000Y-105410000D01*
X183575000Y-103565000D02*
X183575000Y-100905000D01*
X178435000Y-103565000D02*
X183575000Y-103565000D01*
X178435000Y-100905000D02*
X183575000Y-100905000D01*
X178435000Y-103565000D02*
X178435000Y-100905000D01*
X177165000Y-103565000D02*
X175835000Y-103565000D01*
X175835000Y-103565000D02*
X175835000Y-102235000D01*
X175835000Y-100390000D02*
X175835000Y-99060000D01*
X177165000Y-100390000D02*
X175835000Y-100390000D01*
X178435000Y-100390000D02*
X178435000Y-97730000D01*
X178435000Y-97730000D02*
X183575000Y-97730000D01*
X178435000Y-100390000D02*
X183575000Y-100390000D01*
X183575000Y-100390000D02*
X183575000Y-97730000D01*
X183575000Y-97215000D02*
X183575000Y-94555000D01*
X178435000Y-97215000D02*
X183575000Y-97215000D01*
X178435000Y-94555000D02*
X183575000Y-94555000D01*
X178435000Y-97215000D02*
X178435000Y-94555000D01*
X177165000Y-97215000D02*
X175835000Y-97215000D01*
X175835000Y-97215000D02*
X175835000Y-95885000D01*
X175835000Y-94040000D02*
X175835000Y-92710000D01*
X177165000Y-94040000D02*
X175835000Y-94040000D01*
X178435000Y-94040000D02*
X178435000Y-91380000D01*
X178435000Y-91380000D02*
X183575000Y-91380000D01*
X178435000Y-94040000D02*
X183575000Y-94040000D01*
X183575000Y-94040000D02*
X183575000Y-91380000D01*
X183575000Y-90865000D02*
X183575000Y-88205000D01*
X178435000Y-90865000D02*
X183575000Y-90865000D01*
X178435000Y-88205000D02*
X183575000Y-88205000D01*
X178435000Y-90865000D02*
X178435000Y-88205000D01*
X177165000Y-90865000D02*
X175835000Y-90865000D01*
X175835000Y-90865000D02*
X175835000Y-89535000D01*
X175835000Y-87690000D02*
X175835000Y-86360000D01*
X177165000Y-87690000D02*
X175835000Y-87690000D01*
X178435000Y-87690000D02*
X178435000Y-85030000D01*
X178435000Y-85030000D02*
X183575000Y-85030000D01*
X178435000Y-87690000D02*
X183575000Y-87690000D01*
X183575000Y-87690000D02*
X183575000Y-85030000D01*
X128965000Y-85030000D02*
X128965000Y-86360000D01*
X127635000Y-85030000D02*
X128965000Y-85030000D01*
X126365000Y-85030000D02*
X126365000Y-87690000D01*
X126365000Y-87690000D02*
X121225000Y-87690000D01*
X126365000Y-85030000D02*
X121225000Y-85030000D01*
X121225000Y-85030000D02*
X121225000Y-87690000D01*
X128965000Y-88205000D02*
X128965000Y-89535000D01*
X127635000Y-88205000D02*
X128965000Y-88205000D01*
X126365000Y-88205000D02*
X126365000Y-90865000D01*
X126365000Y-90865000D02*
X121225000Y-90865000D01*
X126365000Y-88205000D02*
X121225000Y-88205000D01*
X121225000Y-88205000D02*
X121225000Y-90865000D01*
X121225000Y-91380000D02*
X121225000Y-94040000D01*
X126365000Y-91380000D02*
X121225000Y-91380000D01*
X126365000Y-94040000D02*
X121225000Y-94040000D01*
X126365000Y-91380000D02*
X126365000Y-94040000D01*
X127635000Y-91380000D02*
X128965000Y-91380000D01*
X128965000Y-91380000D02*
X128965000Y-92710000D01*
X128965000Y-94555000D02*
X128965000Y-95885000D01*
X127635000Y-94555000D02*
X128965000Y-94555000D01*
X126365000Y-94555000D02*
X126365000Y-97215000D01*
X126365000Y-97215000D02*
X121225000Y-97215000D01*
X126365000Y-94555000D02*
X121225000Y-94555000D01*
X121225000Y-94555000D02*
X121225000Y-97215000D01*
X128965000Y-97730000D02*
X128965000Y-99060000D01*
X127635000Y-97730000D02*
X128965000Y-97730000D01*
X126365000Y-97730000D02*
X126365000Y-100390000D01*
X126365000Y-100390000D02*
X121225000Y-100390000D01*
X126365000Y-97730000D02*
X121225000Y-97730000D01*
X121225000Y-97730000D02*
X121225000Y-100390000D01*
X121225000Y-100905000D02*
X121225000Y-103565000D01*
X126365000Y-100905000D02*
X121225000Y-100905000D01*
X126365000Y-103565000D02*
X121225000Y-103565000D01*
X126365000Y-100905000D02*
X126365000Y-103565000D01*
X127635000Y-100905000D02*
X128965000Y-100905000D01*
X128965000Y-100905000D02*
X128965000Y-102235000D01*
X128965000Y-104080000D02*
X128965000Y-105410000D01*
X127635000Y-104080000D02*
X128965000Y-104080000D01*
X126365000Y-104080000D02*
X126365000Y-106740000D01*
X126365000Y-106740000D02*
X121225000Y-106740000D01*
X126365000Y-104080000D02*
X121225000Y-104080000D01*
X121225000Y-104080000D02*
X121225000Y-106740000D01*
X121225000Y-107255000D02*
X121225000Y-109915000D01*
X126365000Y-107255000D02*
X121225000Y-107255000D01*
X126365000Y-109915000D02*
X121225000Y-109915000D01*
X126365000Y-107255000D02*
X126365000Y-109915000D01*
X127635000Y-107255000D02*
X128965000Y-107255000D01*
X128965000Y-107255000D02*
X128965000Y-108585000D01*
X128965000Y-110430000D02*
X128965000Y-111760000D01*
X127635000Y-110430000D02*
X128965000Y-110430000D01*
X126365000Y-110430000D02*
X126365000Y-113090000D01*
X126365000Y-113090000D02*
X121225000Y-113090000D01*
X126365000Y-110430000D02*
X121225000Y-110430000D01*
X121225000Y-110430000D02*
X121225000Y-113090000D01*
X121225000Y-113605000D02*
X121225000Y-116265000D01*
X126365000Y-113605000D02*
X121225000Y-113605000D01*
X126365000Y-116265000D02*
X121225000Y-116265000D01*
X126365000Y-113605000D02*
X126365000Y-116265000D01*
X127635000Y-113605000D02*
X128965000Y-113605000D01*
X128965000Y-113605000D02*
X128965000Y-114935000D01*
X156776267Y-124970000D02*
X156433733Y-124970000D01*
X156776267Y-123950000D02*
X156433733Y-123950000D01*
X151833733Y-101475000D02*
X152176267Y-101475000D01*
X151833733Y-100455000D02*
X152176267Y-100455000D01*
X132783733Y-117096000D02*
X133126267Y-117096000D01*
X132783733Y-116076000D02*
X133126267Y-116076000D01*
X129415000Y-127223733D02*
X129415000Y-127566267D01*
X128395000Y-127223733D02*
X128395000Y-127566267D01*
X165610000Y-103065733D02*
X165610000Y-103408267D01*
X164590000Y-103065733D02*
X164590000Y-103408267D01*
X160526000Y-89377733D02*
X160526000Y-89720267D01*
X161546000Y-89377733D02*
X161546000Y-89720267D01*
D12*
X149365000Y-90285000D02*
X149365000Y-94685000D01*
X154890000Y-88710000D02*
X154890000Y-94685000D01*
D11*
X166178000Y-112638000D02*
X166178000Y-112108000D01*
X166178000Y-112108000D02*
X169778000Y-112108000D01*
X169778000Y-112108000D02*
X169778000Y-112638000D01*
X166178000Y-115178000D02*
X166178000Y-114438000D01*
X170018000Y-116978000D02*
X169778000Y-116978000D01*
X169778000Y-116978000D02*
X169778000Y-117508000D01*
X169778000Y-117508000D02*
X166178000Y-117508000D01*
X166178000Y-117508000D02*
X166178000Y-116978000D01*
X169778000Y-114438000D02*
X169778000Y-115178000D01*
X169778000Y-115178000D02*
X170018000Y-115178000D01*
X152176267Y-98804000D02*
X151833733Y-98804000D01*
X152176267Y-99824000D02*
X151833733Y-99824000D01*
X156970000Y-92006267D02*
X156970000Y-91663733D01*
X157990000Y-92006267D02*
X157990000Y-91663733D01*
X167065000Y-128965000D02*
X167065000Y-126305000D01*
X159385000Y-128965000D02*
X167065000Y-128965000D01*
X159385000Y-126305000D02*
X167065000Y-126305000D01*
X159385000Y-128965000D02*
X159385000Y-126305000D01*
X158115000Y-128965000D02*
X156785000Y-128965000D01*
X156785000Y-128965000D02*
X156785000Y-127635000D01*
X144016000Y-97312267D02*
X144016000Y-96969733D01*
X145036000Y-97312267D02*
X145036000Y-96969733D01*
X166310000Y-88325000D02*
X168970000Y-88325000D01*
X166310000Y-83185000D02*
X166310000Y-88325000D01*
X168970000Y-83185000D02*
X168970000Y-88325000D01*
X166310000Y-83185000D02*
X168970000Y-83185000D01*
X166310000Y-81915000D02*
X166310000Y-80585000D01*
X166310000Y-80585000D02*
X167640000Y-80585000D01*
X122495000Y-80585000D02*
X122495000Y-83245000D01*
X125095000Y-80585000D02*
X122495000Y-80585000D01*
X125095000Y-83245000D02*
X122495000Y-83245000D01*
X125095000Y-80585000D02*
X125095000Y-83245000D01*
X126365000Y-80585000D02*
X127695000Y-80585000D01*
X127695000Y-80585000D02*
X127695000Y-81915000D01*
X177105000Y-83245000D02*
X177105000Y-81915000D01*
X178435000Y-83245000D02*
X177105000Y-83245000D01*
X179705000Y-83245000D02*
X179705000Y-80585000D01*
X179705000Y-80585000D02*
X182305000Y-80585000D01*
X179705000Y-83245000D02*
X182305000Y-83245000D01*
X182305000Y-83245000D02*
X182305000Y-80585000D01*
X166262000Y-98058000D02*
X168612000Y-98058000D01*
X173082000Y-98058000D02*
X170732000Y-98058000D01*
X173082000Y-92302437D02*
X173082000Y-98058000D01*
X166262000Y-92302437D02*
X166262000Y-98058000D01*
X167326437Y-91238000D02*
X168612000Y-91238000D01*
X172017563Y-91238000D02*
X170732000Y-91238000D01*
X172017563Y-91238000D02*
X173082000Y-92302437D01*
X167326437Y-91238000D02*
X166262000Y-92302437D01*
X171519500Y-90210500D02*
X171519500Y-90998000D01*
X171913250Y-90604250D02*
X171125750Y-90604250D01*
X135097733Y-104646000D02*
X135440267Y-104646000D01*
X135097733Y-105666000D02*
X135440267Y-105666000D01*
X136323000Y-110390000D02*
X133863000Y-110390000D01*
X133863000Y-110390000D02*
X133863000Y-111860000D01*
X133863000Y-111860000D02*
X136323000Y-111860000D01*
X135323733Y-112520000D02*
X135666267Y-112520000D01*
X135323733Y-113540000D02*
X135666267Y-113540000D01*
D12*
X130167142Y-119832380D02*
X129833809Y-119356190D01*
X129595714Y-119832380D02*
X129595714Y-118832380D01*
X129976666Y-118832380D01*
X130071904Y-118880000D01*
X130119523Y-118927619D01*
X130167142Y-119022857D01*
X130167142Y-119165714D01*
X130119523Y-119260952D01*
X130071904Y-119308571D01*
X129976666Y-119356190D01*
X129595714Y-119356190D01*
X131119523Y-119832380D02*
X130548095Y-119832380D01*
X130833809Y-119832380D02*
X130833809Y-118832380D01*
X130738571Y-118975238D01*
X130643333Y-119070476D01*
X130548095Y-119118095D01*
X132071904Y-119832380D02*
X131500476Y-119832380D01*
X131786190Y-119832380D02*
X131786190Y-118832380D01*
X131690952Y-118975238D01*
X131595714Y-119070476D01*
X131500476Y-119118095D01*
X137414095Y-80224380D02*
X137414095Y-81033904D01*
X137461714Y-81129142D01*
X137509333Y-81176761D01*
X137604571Y-81224380D01*
X137795047Y-81224380D01*
X137890285Y-81176761D01*
X137937904Y-81129142D01*
X137985523Y-81033904D01*
X137985523Y-80224380D01*
X138890285Y-80557714D02*
X138890285Y-81224380D01*
X138652190Y-80176761D02*
X138414095Y-80891047D01*
X139033142Y-80891047D01*
X131532380Y-103631904D02*
X132341904Y-103631904D01*
X132437142Y-103584285D01*
X132484761Y-103536666D01*
X132532380Y-103441428D01*
X132532380Y-103250952D01*
X132484761Y-103155714D01*
X132437142Y-103108095D01*
X132341904Y-103060476D01*
X131532380Y-103060476D01*
X132532380Y-102060476D02*
X132532380Y-102631904D01*
X132532380Y-102346190D02*
X131532380Y-102346190D01*
X131675238Y-102441428D01*
X131770476Y-102536666D01*
X131818095Y-102631904D01*
X151583095Y-122037380D02*
X151583095Y-122846904D01*
X151630714Y-122942142D01*
X151678333Y-122989761D01*
X151773571Y-123037380D01*
X151964047Y-123037380D01*
X152059285Y-122989761D01*
X152106904Y-122942142D01*
X152154523Y-122846904D01*
X152154523Y-122037380D01*
X152583095Y-122132619D02*
X152630714Y-122085000D01*
X152725952Y-122037380D01*
X152964047Y-122037380D01*
X153059285Y-122085000D01*
X153106904Y-122132619D01*
X153154523Y-122227857D01*
X153154523Y-122323095D01*
X153106904Y-122465952D01*
X152535476Y-123037380D01*
X153154523Y-123037380D01*
X137247333Y-84685142D02*
X137199714Y-84732761D01*
X137056857Y-84780380D01*
X136961619Y-84780380D01*
X136818761Y-84732761D01*
X136723523Y-84637523D01*
X136675904Y-84542285D01*
X136628285Y-84351809D01*
X136628285Y-84208952D01*
X136675904Y-84018476D01*
X136723523Y-83923238D01*
X136818761Y-83828000D01*
X136961619Y-83780380D01*
X137056857Y-83780380D01*
X137199714Y-83828000D01*
X137247333Y-83875619D01*
X137628285Y-83875619D02*
X137675904Y-83828000D01*
X137771142Y-83780380D01*
X138009238Y-83780380D01*
X138104476Y-83828000D01*
X138152095Y-83875619D01*
X138199714Y-83970857D01*
X138199714Y-84066095D01*
X138152095Y-84208952D01*
X137580666Y-84780380D01*
X138199714Y-84780380D01*
X167840333Y-108147142D02*
X167792714Y-108194761D01*
X167649857Y-108242380D01*
X167554619Y-108242380D01*
X167411761Y-108194761D01*
X167316523Y-108099523D01*
X167268904Y-108004285D01*
X167221285Y-107813809D01*
X167221285Y-107670952D01*
X167268904Y-107480476D01*
X167316523Y-107385238D01*
X167411761Y-107290000D01*
X167554619Y-107242380D01*
X167649857Y-107242380D01*
X167792714Y-107290000D01*
X167840333Y-107337619D01*
X168697476Y-107575714D02*
X168697476Y-108242380D01*
X168459380Y-107194761D02*
X168221285Y-107909047D01*
X168840333Y-107909047D01*
X147548333Y-99892142D02*
X147500714Y-99939761D01*
X147357857Y-99987380D01*
X147262619Y-99987380D01*
X147119761Y-99939761D01*
X147024523Y-99844523D01*
X146976904Y-99749285D01*
X146929285Y-99558809D01*
X146929285Y-99415952D01*
X146976904Y-99225476D01*
X147024523Y-99130238D01*
X147119761Y-99035000D01*
X147262619Y-98987380D01*
X147357857Y-98987380D01*
X147500714Y-99035000D01*
X147548333Y-99082619D01*
X148453095Y-98987380D02*
X147976904Y-98987380D01*
X147929285Y-99463571D01*
X147976904Y-99415952D01*
X148072142Y-99368333D01*
X148310238Y-99368333D01*
X148405476Y-99415952D01*
X148453095Y-99463571D01*
X148500714Y-99558809D01*
X148500714Y-99796904D01*
X148453095Y-99892142D01*
X148405476Y-99939761D01*
X148310238Y-99987380D01*
X148072142Y-99987380D01*
X147976904Y-99939761D01*
X147929285Y-99892142D01*
X139803142Y-120054666D02*
X139850761Y-120102285D01*
X139898380Y-120245142D01*
X139898380Y-120340380D01*
X139850761Y-120483238D01*
X139755523Y-120578476D01*
X139660285Y-120626095D01*
X139469809Y-120673714D01*
X139326952Y-120673714D01*
X139136476Y-120626095D01*
X139041238Y-120578476D01*
X138946000Y-120483238D01*
X138898380Y-120340380D01*
X138898380Y-120245142D01*
X138946000Y-120102285D01*
X138993619Y-120054666D01*
X138898380Y-119197523D02*
X138898380Y-119388000D01*
X138946000Y-119483238D01*
X138993619Y-119530857D01*
X139136476Y-119626095D01*
X139326952Y-119673714D01*
X139707904Y-119673714D01*
X139803142Y-119626095D01*
X139850761Y-119578476D01*
X139898380Y-119483238D01*
X139898380Y-119292761D01*
X139850761Y-119197523D01*
X139803142Y-119149904D01*
X139707904Y-119102285D01*
X139469809Y-119102285D01*
X139374571Y-119149904D01*
X139326952Y-119197523D01*
X139279333Y-119292761D01*
X139279333Y-119483238D01*
X139326952Y-119578476D01*
X139374571Y-119626095D01*
X139469809Y-119673714D01*
X154502142Y-85337857D02*
X154549761Y-85385476D01*
X154597380Y-85528333D01*
X154597380Y-85623571D01*
X154549761Y-85766428D01*
X154454523Y-85861666D01*
X154359285Y-85909285D01*
X154168809Y-85956904D01*
X154025952Y-85956904D01*
X153835476Y-85909285D01*
X153740238Y-85861666D01*
X153645000Y-85766428D01*
X153597380Y-85623571D01*
X153597380Y-85528333D01*
X153645000Y-85385476D01*
X153692619Y-85337857D01*
X154597380Y-84385476D02*
X154597380Y-84956904D01*
X154597380Y-84671190D02*
X153597380Y-84671190D01*
X153740238Y-84766428D01*
X153835476Y-84861666D01*
X153883095Y-84956904D01*
X153597380Y-84052142D02*
X153597380Y-83433095D01*
X153978333Y-83766428D01*
X153978333Y-83623571D01*
X154025952Y-83528333D01*
X154073571Y-83480714D01*
X154168809Y-83433095D01*
X154406904Y-83433095D01*
X154502142Y-83480714D01*
X154549761Y-83528333D01*
X154597380Y-83623571D01*
X154597380Y-83909285D01*
X154549761Y-84004523D01*
X154502142Y-84052142D01*
X149963142Y-85337857D02*
X150010761Y-85385476D01*
X150058380Y-85528333D01*
X150058380Y-85623571D01*
X150010761Y-85766428D01*
X149915523Y-85861666D01*
X149820285Y-85909285D01*
X149629809Y-85956904D01*
X149486952Y-85956904D01*
X149296476Y-85909285D01*
X149201238Y-85861666D01*
X149106000Y-85766428D01*
X149058380Y-85623571D01*
X149058380Y-85528333D01*
X149106000Y-85385476D01*
X149153619Y-85337857D01*
X150058380Y-84385476D02*
X150058380Y-84956904D01*
X150058380Y-84671190D02*
X149058380Y-84671190D01*
X149201238Y-84766428D01*
X149296476Y-84861666D01*
X149344095Y-84956904D01*
X149391714Y-83528333D02*
X150058380Y-83528333D01*
X149010761Y-83766428D02*
X149725047Y-84004523D01*
X149725047Y-83385476D01*
X145407142Y-85701142D02*
X145359523Y-85748761D01*
X145216666Y-85796380D01*
X145121428Y-85796380D01*
X144978571Y-85748761D01*
X144883333Y-85653523D01*
X144835714Y-85558285D01*
X144788095Y-85367809D01*
X144788095Y-85224952D01*
X144835714Y-85034476D01*
X144883333Y-84939238D01*
X144978571Y-84844000D01*
X145121428Y-84796380D01*
X145216666Y-84796380D01*
X145359523Y-84844000D01*
X145407142Y-84891619D01*
X146359523Y-85796380D02*
X145788095Y-85796380D01*
X146073809Y-85796380D02*
X146073809Y-84796380D01*
X145978571Y-84939238D01*
X145883333Y-85034476D01*
X145788095Y-85082095D01*
X147264285Y-84796380D02*
X146788095Y-84796380D01*
X146740476Y-85272571D01*
X146788095Y-85224952D01*
X146883333Y-85177333D01*
X147121428Y-85177333D01*
X147216666Y-85224952D01*
X147264285Y-85272571D01*
X147311904Y-85367809D01*
X147311904Y-85605904D01*
X147264285Y-85701142D01*
X147216666Y-85748761D01*
X147121428Y-85796380D01*
X146883333Y-85796380D01*
X146788095Y-85748761D01*
X146740476Y-85701142D01*
X146423142Y-90273142D02*
X146375523Y-90320761D01*
X146232666Y-90368380D01*
X146137428Y-90368380D01*
X145994571Y-90320761D01*
X145899333Y-90225523D01*
X145851714Y-90130285D01*
X145804095Y-89939809D01*
X145804095Y-89796952D01*
X145851714Y-89606476D01*
X145899333Y-89511238D01*
X145994571Y-89416000D01*
X146137428Y-89368380D01*
X146232666Y-89368380D01*
X146375523Y-89416000D01*
X146423142Y-89463619D01*
X147375523Y-90368380D02*
X146804095Y-90368380D01*
X147089809Y-90368380D02*
X147089809Y-89368380D01*
X146994571Y-89511238D01*
X146899333Y-89606476D01*
X146804095Y-89654095D01*
X148232666Y-89368380D02*
X148042190Y-89368380D01*
X147946952Y-89416000D01*
X147899333Y-89463619D01*
X147804095Y-89606476D01*
X147756476Y-89796952D01*
X147756476Y-90177904D01*
X147804095Y-90273142D01*
X147851714Y-90320761D01*
X147946952Y-90368380D01*
X148137428Y-90368380D01*
X148232666Y-90320761D01*
X148280285Y-90273142D01*
X148327904Y-90177904D01*
X148327904Y-89939809D01*
X148280285Y-89844571D01*
X148232666Y-89796952D01*
X148137428Y-89749333D01*
X147946952Y-89749333D01*
X147851714Y-89796952D01*
X147804095Y-89844571D01*
X147756476Y-89939809D01*
X121610380Y-118594095D02*
X120610380Y-118594095D01*
X120610380Y-118356000D01*
X120658000Y-118213142D01*
X120753238Y-118117904D01*
X120848476Y-118070285D01*
X121038952Y-118022666D01*
X121181809Y-118022666D01*
X121372285Y-118070285D01*
X121467523Y-118117904D01*
X121562761Y-118213142D01*
X121610380Y-118356000D01*
X121610380Y-118594095D01*
X121610380Y-117070285D02*
X121610380Y-117641714D01*
X121610380Y-117356000D02*
X120610380Y-117356000D01*
X120753238Y-117451238D01*
X120848476Y-117546476D01*
X120896095Y-117641714D01*
X135913904Y-123896380D02*
X135913904Y-122896380D01*
X136152000Y-122896380D01*
X136294857Y-122944000D01*
X136390095Y-123039238D01*
X136437714Y-123134476D01*
X136485333Y-123324952D01*
X136485333Y-123467809D01*
X136437714Y-123658285D01*
X136390095Y-123753523D01*
X136294857Y-123848761D01*
X136152000Y-123896380D01*
X135913904Y-123896380D01*
X136866285Y-122991619D02*
X136913904Y-122944000D01*
X137009142Y-122896380D01*
X137247238Y-122896380D01*
X137342476Y-122944000D01*
X137390095Y-122991619D01*
X137437714Y-123086857D01*
X137437714Y-123182095D01*
X137390095Y-123324952D01*
X136818666Y-123896380D01*
X137437714Y-123896380D01*
X127722380Y-120475333D02*
X128436666Y-120475333D01*
X128579523Y-120522952D01*
X128674761Y-120618190D01*
X128722380Y-120761047D01*
X128722380Y-120856285D01*
X127817619Y-120046761D02*
X127770000Y-119999142D01*
X127722380Y-119903904D01*
X127722380Y-119665809D01*
X127770000Y-119570571D01*
X127817619Y-119522952D01*
X127912857Y-119475333D01*
X128008095Y-119475333D01*
X128150952Y-119522952D01*
X128722380Y-120094380D01*
X128722380Y-119475333D01*
X139366666Y-124674380D02*
X139366666Y-125388666D01*
X139319047Y-125531523D01*
X139223809Y-125626761D01*
X139080952Y-125674380D01*
X138985714Y-125674380D01*
X139747619Y-124674380D02*
X140366666Y-124674380D01*
X140033333Y-125055333D01*
X140176190Y-125055333D01*
X140271428Y-125102952D01*
X140319047Y-125150571D01*
X140366666Y-125245809D01*
X140366666Y-125483904D01*
X140319047Y-125579142D01*
X140271428Y-125626761D01*
X140176190Y-125674380D01*
X139890476Y-125674380D01*
X139795238Y-125626761D01*
X139747619Y-125579142D01*
X175458380Y-129262095D02*
X174458380Y-129262095D01*
X174458380Y-128881142D01*
X174506000Y-128785904D01*
X174553619Y-128738285D01*
X174648857Y-128690666D01*
X174791714Y-128690666D01*
X174886952Y-128738285D01*
X174934571Y-128785904D01*
X174982190Y-128881142D01*
X174982190Y-129262095D01*
X174458380Y-128071619D02*
X174458380Y-127976380D01*
X174506000Y-127881142D01*
X174553619Y-127833523D01*
X174648857Y-127785904D01*
X174839333Y-127738285D01*
X175077428Y-127738285D01*
X175267904Y-127785904D01*
X175363142Y-127833523D01*
X175410761Y-127881142D01*
X175458380Y-127976380D01*
X175458380Y-128071619D01*
X175410761Y-128166857D01*
X175363142Y-128214476D01*
X175267904Y-128262095D01*
X175077428Y-128309714D01*
X174839333Y-128309714D01*
X174648857Y-128262095D01*
X174553619Y-128214476D01*
X174506000Y-128166857D01*
X174458380Y-128071619D01*
X175204380Y-124690095D02*
X174204380Y-124690095D01*
X174204380Y-124309142D01*
X174252000Y-124213904D01*
X174299619Y-124166285D01*
X174394857Y-124118666D01*
X174537714Y-124118666D01*
X174632952Y-124166285D01*
X174680571Y-124213904D01*
X174728190Y-124309142D01*
X174728190Y-124690095D01*
X175204380Y-123166285D02*
X175204380Y-123737714D01*
X175204380Y-123452000D02*
X174204380Y-123452000D01*
X174347238Y-123547238D01*
X174442476Y-123642476D01*
X174490095Y-123737714D01*
X175204380Y-122023095D02*
X174204380Y-122023095D01*
X174204380Y-121642142D01*
X174252000Y-121546904D01*
X174299619Y-121499285D01*
X174394857Y-121451666D01*
X174537714Y-121451666D01*
X174632952Y-121499285D01*
X174680571Y-121546904D01*
X174728190Y-121642142D01*
X174728190Y-122023095D01*
X174299619Y-121070714D02*
X174252000Y-121023095D01*
X174204380Y-120927857D01*
X174204380Y-120689761D01*
X174252000Y-120594523D01*
X174299619Y-120546904D01*
X174394857Y-120499285D01*
X174490095Y-120499285D01*
X174632952Y-120546904D01*
X175204380Y-121118333D01*
X175204380Y-120499285D01*
X175204380Y-118848095D02*
X174204380Y-118848095D01*
X174204380Y-118467142D01*
X174252000Y-118371904D01*
X174299619Y-118324285D01*
X174394857Y-118276666D01*
X174537714Y-118276666D01*
X174632952Y-118324285D01*
X174680571Y-118371904D01*
X174728190Y-118467142D01*
X174728190Y-118848095D01*
X174204380Y-117943333D02*
X174204380Y-117324285D01*
X174585333Y-117657619D01*
X174585333Y-117514761D01*
X174632952Y-117419523D01*
X174680571Y-117371904D01*
X174775809Y-117324285D01*
X175013904Y-117324285D01*
X175109142Y-117371904D01*
X175156761Y-117419523D01*
X175204380Y-117514761D01*
X175204380Y-117800476D01*
X175156761Y-117895714D01*
X175109142Y-117943333D01*
X175204380Y-115546095D02*
X174204380Y-115546095D01*
X174204380Y-115165142D01*
X174252000Y-115069904D01*
X174299619Y-115022285D01*
X174394857Y-114974666D01*
X174537714Y-114974666D01*
X174632952Y-115022285D01*
X174680571Y-115069904D01*
X174728190Y-115165142D01*
X174728190Y-115546095D01*
X174537714Y-114117523D02*
X175204380Y-114117523D01*
X174156761Y-114355619D02*
X174871047Y-114593714D01*
X174871047Y-113974666D01*
X175204380Y-112498095D02*
X174204380Y-112498095D01*
X174204380Y-112117142D01*
X174252000Y-112021904D01*
X174299619Y-111974285D01*
X174394857Y-111926666D01*
X174537714Y-111926666D01*
X174632952Y-111974285D01*
X174680571Y-112021904D01*
X174728190Y-112117142D01*
X174728190Y-112498095D01*
X174204380Y-111021904D02*
X174204380Y-111498095D01*
X174680571Y-111545714D01*
X174632952Y-111498095D01*
X174585333Y-111402857D01*
X174585333Y-111164761D01*
X174632952Y-111069523D01*
X174680571Y-111021904D01*
X174775809Y-110974285D01*
X175013904Y-110974285D01*
X175109142Y-111021904D01*
X175156761Y-111069523D01*
X175204380Y-111164761D01*
X175204380Y-111402857D01*
X175156761Y-111498095D01*
X175109142Y-111545714D01*
X175204380Y-109323095D02*
X174204380Y-109323095D01*
X174204380Y-108942142D01*
X174252000Y-108846904D01*
X174299619Y-108799285D01*
X174394857Y-108751666D01*
X174537714Y-108751666D01*
X174632952Y-108799285D01*
X174680571Y-108846904D01*
X174728190Y-108942142D01*
X174728190Y-109323095D01*
X174204380Y-107894523D02*
X174204380Y-108085000D01*
X174252000Y-108180238D01*
X174299619Y-108227857D01*
X174442476Y-108323095D01*
X174632952Y-108370714D01*
X175013904Y-108370714D01*
X175109142Y-108323095D01*
X175156761Y-108275476D01*
X175204380Y-108180238D01*
X175204380Y-107989761D01*
X175156761Y-107894523D01*
X175109142Y-107846904D01*
X175013904Y-107799285D01*
X174775809Y-107799285D01*
X174680571Y-107846904D01*
X174632952Y-107894523D01*
X174585333Y-107989761D01*
X174585333Y-108180238D01*
X174632952Y-108275476D01*
X174680571Y-108323095D01*
X174775809Y-108370714D01*
X175204380Y-106148095D02*
X174204380Y-106148095D01*
X174204380Y-105767142D01*
X174252000Y-105671904D01*
X174299619Y-105624285D01*
X174394857Y-105576666D01*
X174537714Y-105576666D01*
X174632952Y-105624285D01*
X174680571Y-105671904D01*
X174728190Y-105767142D01*
X174728190Y-106148095D01*
X174204380Y-105243333D02*
X174204380Y-104576666D01*
X175204380Y-105005238D01*
X175204380Y-102973095D02*
X174204380Y-102973095D01*
X174204380Y-102592142D01*
X174252000Y-102496904D01*
X174299619Y-102449285D01*
X174394857Y-102401666D01*
X174537714Y-102401666D01*
X174632952Y-102449285D01*
X174680571Y-102496904D01*
X174728190Y-102592142D01*
X174728190Y-102973095D01*
X174632952Y-101830238D02*
X174585333Y-101925476D01*
X174537714Y-101973095D01*
X174442476Y-102020714D01*
X174394857Y-102020714D01*
X174299619Y-101973095D01*
X174252000Y-101925476D01*
X174204380Y-101830238D01*
X174204380Y-101639761D01*
X174252000Y-101544523D01*
X174299619Y-101496904D01*
X174394857Y-101449285D01*
X174442476Y-101449285D01*
X174537714Y-101496904D01*
X174585333Y-101544523D01*
X174632952Y-101639761D01*
X174632952Y-101830238D01*
X174680571Y-101925476D01*
X174728190Y-101973095D01*
X174823428Y-102020714D01*
X175013904Y-102020714D01*
X175109142Y-101973095D01*
X175156761Y-101925476D01*
X175204380Y-101830238D01*
X175204380Y-101639761D01*
X175156761Y-101544523D01*
X175109142Y-101496904D01*
X175013904Y-101449285D01*
X174823428Y-101449285D01*
X174728190Y-101496904D01*
X174680571Y-101544523D01*
X174632952Y-101639761D01*
X175204380Y-99798095D02*
X174204380Y-99798095D01*
X174204380Y-99417142D01*
X174252000Y-99321904D01*
X174299619Y-99274285D01*
X174394857Y-99226666D01*
X174537714Y-99226666D01*
X174632952Y-99274285D01*
X174680571Y-99321904D01*
X174728190Y-99417142D01*
X174728190Y-99798095D01*
X175204380Y-98750476D02*
X175204380Y-98560000D01*
X175156761Y-98464761D01*
X175109142Y-98417142D01*
X174966285Y-98321904D01*
X174775809Y-98274285D01*
X174394857Y-98274285D01*
X174299619Y-98321904D01*
X174252000Y-98369523D01*
X174204380Y-98464761D01*
X174204380Y-98655238D01*
X174252000Y-98750476D01*
X174299619Y-98798095D01*
X174394857Y-98845714D01*
X174632952Y-98845714D01*
X174728190Y-98798095D01*
X174775809Y-98750476D01*
X174823428Y-98655238D01*
X174823428Y-98464761D01*
X174775809Y-98369523D01*
X174728190Y-98321904D01*
X174632952Y-98274285D01*
X175204380Y-97099285D02*
X174204380Y-97099285D01*
X174204380Y-96718333D01*
X174252000Y-96623095D01*
X174299619Y-96575476D01*
X174394857Y-96527857D01*
X174537714Y-96527857D01*
X174632952Y-96575476D01*
X174680571Y-96623095D01*
X174728190Y-96718333D01*
X174728190Y-97099285D01*
X175204380Y-95575476D02*
X175204380Y-96146904D01*
X175204380Y-95861190D02*
X174204380Y-95861190D01*
X174347238Y-95956428D01*
X174442476Y-96051666D01*
X174490095Y-96146904D01*
X174204380Y-94956428D02*
X174204380Y-94861190D01*
X174252000Y-94765952D01*
X174299619Y-94718333D01*
X174394857Y-94670714D01*
X174585333Y-94623095D01*
X174823428Y-94623095D01*
X175013904Y-94670714D01*
X175109142Y-94718333D01*
X175156761Y-94765952D01*
X175204380Y-94861190D01*
X175204380Y-94956428D01*
X175156761Y-95051666D01*
X175109142Y-95099285D01*
X175013904Y-95146904D01*
X174823428Y-95194523D01*
X174585333Y-95194523D01*
X174394857Y-95146904D01*
X174299619Y-95099285D01*
X174252000Y-95051666D01*
X174204380Y-94956428D01*
X175204380Y-93924285D02*
X174204380Y-93924285D01*
X174204380Y-93543333D01*
X174252000Y-93448095D01*
X174299619Y-93400476D01*
X174394857Y-93352857D01*
X174537714Y-93352857D01*
X174632952Y-93400476D01*
X174680571Y-93448095D01*
X174728190Y-93543333D01*
X174728190Y-93924285D01*
X175204380Y-92400476D02*
X175204380Y-92971904D01*
X175204380Y-92686190D02*
X174204380Y-92686190D01*
X174347238Y-92781428D01*
X174442476Y-92876666D01*
X174490095Y-92971904D01*
X175204380Y-91448095D02*
X175204380Y-92019523D01*
X175204380Y-91733809D02*
X174204380Y-91733809D01*
X174347238Y-91829047D01*
X174442476Y-91924285D01*
X174490095Y-92019523D01*
X175204380Y-90749285D02*
X174204380Y-90749285D01*
X174204380Y-90368333D01*
X174252000Y-90273095D01*
X174299619Y-90225476D01*
X174394857Y-90177857D01*
X174537714Y-90177857D01*
X174632952Y-90225476D01*
X174680571Y-90273095D01*
X174728190Y-90368333D01*
X174728190Y-90749285D01*
X175204380Y-89225476D02*
X175204380Y-89796904D01*
X175204380Y-89511190D02*
X174204380Y-89511190D01*
X174347238Y-89606428D01*
X174442476Y-89701666D01*
X174490095Y-89796904D01*
X174299619Y-88844523D02*
X174252000Y-88796904D01*
X174204380Y-88701666D01*
X174204380Y-88463571D01*
X174252000Y-88368333D01*
X174299619Y-88320714D01*
X174394857Y-88273095D01*
X174490095Y-88273095D01*
X174632952Y-88320714D01*
X175204380Y-88892142D01*
X175204380Y-88273095D01*
X175204380Y-87574285D02*
X174204380Y-87574285D01*
X174204380Y-87193333D01*
X174252000Y-87098095D01*
X174299619Y-87050476D01*
X174394857Y-87002857D01*
X174537714Y-87002857D01*
X174632952Y-87050476D01*
X174680571Y-87098095D01*
X174728190Y-87193333D01*
X174728190Y-87574285D01*
X175204380Y-86050476D02*
X175204380Y-86621904D01*
X175204380Y-86336190D02*
X174204380Y-86336190D01*
X174347238Y-86431428D01*
X174442476Y-86526666D01*
X174490095Y-86621904D01*
X174204380Y-85717142D02*
X174204380Y-85098095D01*
X174585333Y-85431428D01*
X174585333Y-85288571D01*
X174632952Y-85193333D01*
X174680571Y-85145714D01*
X174775809Y-85098095D01*
X175013904Y-85098095D01*
X175109142Y-85145714D01*
X175156761Y-85193333D01*
X175204380Y-85288571D01*
X175204380Y-85574285D01*
X175156761Y-85669523D01*
X175109142Y-85717142D01*
X130500380Y-87574285D02*
X129500380Y-87574285D01*
X129500380Y-87193333D01*
X129548000Y-87098095D01*
X129595619Y-87050476D01*
X129690857Y-87002857D01*
X129833714Y-87002857D01*
X129928952Y-87050476D01*
X129976571Y-87098095D01*
X130024190Y-87193333D01*
X130024190Y-87574285D01*
X130500380Y-86050476D02*
X130500380Y-86621904D01*
X130500380Y-86336190D02*
X129500380Y-86336190D01*
X129643238Y-86431428D01*
X129738476Y-86526666D01*
X129786095Y-86621904D01*
X129833714Y-85193333D02*
X130500380Y-85193333D01*
X129452761Y-85431428D02*
X130167047Y-85669523D01*
X130167047Y-85050476D01*
X130500380Y-90749285D02*
X129500380Y-90749285D01*
X129500380Y-90368333D01*
X129548000Y-90273095D01*
X129595619Y-90225476D01*
X129690857Y-90177857D01*
X129833714Y-90177857D01*
X129928952Y-90225476D01*
X129976571Y-90273095D01*
X130024190Y-90368333D01*
X130024190Y-90749285D01*
X130500380Y-89225476D02*
X130500380Y-89796904D01*
X130500380Y-89511190D02*
X129500380Y-89511190D01*
X129643238Y-89606428D01*
X129738476Y-89701666D01*
X129786095Y-89796904D01*
X129500380Y-88320714D02*
X129500380Y-88796904D01*
X129976571Y-88844523D01*
X129928952Y-88796904D01*
X129881333Y-88701666D01*
X129881333Y-88463571D01*
X129928952Y-88368333D01*
X129976571Y-88320714D01*
X130071809Y-88273095D01*
X130309904Y-88273095D01*
X130405142Y-88320714D01*
X130452761Y-88368333D01*
X130500380Y-88463571D01*
X130500380Y-88701666D01*
X130452761Y-88796904D01*
X130405142Y-88844523D01*
X130500380Y-93924285D02*
X129500380Y-93924285D01*
X129500380Y-93543333D01*
X129548000Y-93448095D01*
X129595619Y-93400476D01*
X129690857Y-93352857D01*
X129833714Y-93352857D01*
X129928952Y-93400476D01*
X129976571Y-93448095D01*
X130024190Y-93543333D01*
X130024190Y-93924285D01*
X130500380Y-92400476D02*
X130500380Y-92971904D01*
X130500380Y-92686190D02*
X129500380Y-92686190D01*
X129643238Y-92781428D01*
X129738476Y-92876666D01*
X129786095Y-92971904D01*
X129500380Y-91543333D02*
X129500380Y-91733809D01*
X129548000Y-91829047D01*
X129595619Y-91876666D01*
X129738476Y-91971904D01*
X129928952Y-92019523D01*
X130309904Y-92019523D01*
X130405142Y-91971904D01*
X130452761Y-91924285D01*
X130500380Y-91829047D01*
X130500380Y-91638571D01*
X130452761Y-91543333D01*
X130405142Y-91495714D01*
X130309904Y-91448095D01*
X130071809Y-91448095D01*
X129976571Y-91495714D01*
X129928952Y-91543333D01*
X129881333Y-91638571D01*
X129881333Y-91829047D01*
X129928952Y-91924285D01*
X129976571Y-91971904D01*
X130071809Y-92019523D01*
X130500380Y-97099285D02*
X129500380Y-97099285D01*
X129500380Y-96718333D01*
X129548000Y-96623095D01*
X129595619Y-96575476D01*
X129690857Y-96527857D01*
X129833714Y-96527857D01*
X129928952Y-96575476D01*
X129976571Y-96623095D01*
X130024190Y-96718333D01*
X130024190Y-97099285D01*
X130500380Y-95575476D02*
X130500380Y-96146904D01*
X130500380Y-95861190D02*
X129500380Y-95861190D01*
X129643238Y-95956428D01*
X129738476Y-96051666D01*
X129786095Y-96146904D01*
X129500380Y-95242142D02*
X129500380Y-94575476D01*
X130500380Y-95004047D01*
X130500380Y-100274285D02*
X129500380Y-100274285D01*
X129500380Y-99893333D01*
X129548000Y-99798095D01*
X129595619Y-99750476D01*
X129690857Y-99702857D01*
X129833714Y-99702857D01*
X129928952Y-99750476D01*
X129976571Y-99798095D01*
X130024190Y-99893333D01*
X130024190Y-100274285D01*
X130500380Y-98750476D02*
X130500380Y-99321904D01*
X130500380Y-99036190D02*
X129500380Y-99036190D01*
X129643238Y-99131428D01*
X129738476Y-99226666D01*
X129786095Y-99321904D01*
X129928952Y-98179047D02*
X129881333Y-98274285D01*
X129833714Y-98321904D01*
X129738476Y-98369523D01*
X129690857Y-98369523D01*
X129595619Y-98321904D01*
X129548000Y-98274285D01*
X129500380Y-98179047D01*
X129500380Y-97988571D01*
X129548000Y-97893333D01*
X129595619Y-97845714D01*
X129690857Y-97798095D01*
X129738476Y-97798095D01*
X129833714Y-97845714D01*
X129881333Y-97893333D01*
X129928952Y-97988571D01*
X129928952Y-98179047D01*
X129976571Y-98274285D01*
X130024190Y-98321904D01*
X130119428Y-98369523D01*
X130309904Y-98369523D01*
X130405142Y-98321904D01*
X130452761Y-98274285D01*
X130500380Y-98179047D01*
X130500380Y-97988571D01*
X130452761Y-97893333D01*
X130405142Y-97845714D01*
X130309904Y-97798095D01*
X130119428Y-97798095D01*
X130024190Y-97845714D01*
X129976571Y-97893333D01*
X129928952Y-97988571D01*
X130500380Y-103449285D02*
X129500380Y-103449285D01*
X129500380Y-103068333D01*
X129548000Y-102973095D01*
X129595619Y-102925476D01*
X129690857Y-102877857D01*
X129833714Y-102877857D01*
X129928952Y-102925476D01*
X129976571Y-102973095D01*
X130024190Y-103068333D01*
X130024190Y-103449285D01*
X130500380Y-101925476D02*
X130500380Y-102496904D01*
X130500380Y-102211190D02*
X129500380Y-102211190D01*
X129643238Y-102306428D01*
X129738476Y-102401666D01*
X129786095Y-102496904D01*
X130500380Y-101449285D02*
X130500380Y-101258809D01*
X130452761Y-101163571D01*
X130405142Y-101115952D01*
X130262285Y-101020714D01*
X130071809Y-100973095D01*
X129690857Y-100973095D01*
X129595619Y-101020714D01*
X129548000Y-101068333D01*
X129500380Y-101163571D01*
X129500380Y-101354047D01*
X129548000Y-101449285D01*
X129595619Y-101496904D01*
X129690857Y-101544523D01*
X129928952Y-101544523D01*
X130024190Y-101496904D01*
X130071809Y-101449285D01*
X130119428Y-101354047D01*
X130119428Y-101163571D01*
X130071809Y-101068333D01*
X130024190Y-101020714D01*
X129928952Y-100973095D01*
X130500380Y-106624285D02*
X129500380Y-106624285D01*
X129500380Y-106243333D01*
X129548000Y-106148095D01*
X129595619Y-106100476D01*
X129690857Y-106052857D01*
X129833714Y-106052857D01*
X129928952Y-106100476D01*
X129976571Y-106148095D01*
X130024190Y-106243333D01*
X130024190Y-106624285D01*
X129595619Y-105671904D02*
X129548000Y-105624285D01*
X129500380Y-105529047D01*
X129500380Y-105290952D01*
X129548000Y-105195714D01*
X129595619Y-105148095D01*
X129690857Y-105100476D01*
X129786095Y-105100476D01*
X129928952Y-105148095D01*
X130500380Y-105719523D01*
X130500380Y-105100476D01*
X129500380Y-104481428D02*
X129500380Y-104386190D01*
X129548000Y-104290952D01*
X129595619Y-104243333D01*
X129690857Y-104195714D01*
X129881333Y-104148095D01*
X130119428Y-104148095D01*
X130309904Y-104195714D01*
X130405142Y-104243333D01*
X130452761Y-104290952D01*
X130500380Y-104386190D01*
X130500380Y-104481428D01*
X130452761Y-104576666D01*
X130405142Y-104624285D01*
X130309904Y-104671904D01*
X130119428Y-104719523D01*
X129881333Y-104719523D01*
X129690857Y-104671904D01*
X129595619Y-104624285D01*
X129548000Y-104576666D01*
X129500380Y-104481428D01*
X130500380Y-109799285D02*
X129500380Y-109799285D01*
X129500380Y-109418333D01*
X129548000Y-109323095D01*
X129595619Y-109275476D01*
X129690857Y-109227857D01*
X129833714Y-109227857D01*
X129928952Y-109275476D01*
X129976571Y-109323095D01*
X130024190Y-109418333D01*
X130024190Y-109799285D01*
X129595619Y-108846904D02*
X129548000Y-108799285D01*
X129500380Y-108704047D01*
X129500380Y-108465952D01*
X129548000Y-108370714D01*
X129595619Y-108323095D01*
X129690857Y-108275476D01*
X129786095Y-108275476D01*
X129928952Y-108323095D01*
X130500380Y-108894523D01*
X130500380Y-108275476D01*
X130500380Y-107323095D02*
X130500380Y-107894523D01*
X130500380Y-107608809D02*
X129500380Y-107608809D01*
X129643238Y-107704047D01*
X129738476Y-107799285D01*
X129786095Y-107894523D01*
X130500380Y-112974285D02*
X129500380Y-112974285D01*
X129500380Y-112593333D01*
X129548000Y-112498095D01*
X129595619Y-112450476D01*
X129690857Y-112402857D01*
X129833714Y-112402857D01*
X129928952Y-112450476D01*
X129976571Y-112498095D01*
X130024190Y-112593333D01*
X130024190Y-112974285D01*
X129595619Y-112021904D02*
X129548000Y-111974285D01*
X129500380Y-111879047D01*
X129500380Y-111640952D01*
X129548000Y-111545714D01*
X129595619Y-111498095D01*
X129690857Y-111450476D01*
X129786095Y-111450476D01*
X129928952Y-111498095D01*
X130500380Y-112069523D01*
X130500380Y-111450476D01*
X129595619Y-111069523D02*
X129548000Y-111021904D01*
X129500380Y-110926666D01*
X129500380Y-110688571D01*
X129548000Y-110593333D01*
X129595619Y-110545714D01*
X129690857Y-110498095D01*
X129786095Y-110498095D01*
X129928952Y-110545714D01*
X130500380Y-111117142D01*
X130500380Y-110498095D01*
X130500380Y-116149285D02*
X129500380Y-116149285D01*
X129500380Y-115768333D01*
X129548000Y-115673095D01*
X129595619Y-115625476D01*
X129690857Y-115577857D01*
X129833714Y-115577857D01*
X129928952Y-115625476D01*
X129976571Y-115673095D01*
X130024190Y-115768333D01*
X130024190Y-116149285D01*
X129595619Y-115196904D02*
X129548000Y-115149285D01*
X129500380Y-115054047D01*
X129500380Y-114815952D01*
X129548000Y-114720714D01*
X129595619Y-114673095D01*
X129690857Y-114625476D01*
X129786095Y-114625476D01*
X129928952Y-114673095D01*
X130500380Y-115244523D01*
X130500380Y-114625476D01*
X129500380Y-114292142D02*
X129500380Y-113673095D01*
X129881333Y-114006428D01*
X129881333Y-113863571D01*
X129928952Y-113768333D01*
X129976571Y-113720714D01*
X130071809Y-113673095D01*
X130309904Y-113673095D01*
X130405142Y-113720714D01*
X130452761Y-113768333D01*
X130500380Y-113863571D01*
X130500380Y-114149285D01*
X130452761Y-114244523D01*
X130405142Y-114292142D01*
X159345333Y-124912380D02*
X159012000Y-124436190D01*
X158773904Y-124912380D02*
X158773904Y-123912380D01*
X159154857Y-123912380D01*
X159250095Y-123960000D01*
X159297714Y-124007619D01*
X159345333Y-124102857D01*
X159345333Y-124245714D01*
X159297714Y-124340952D01*
X159250095Y-124388571D01*
X159154857Y-124436190D01*
X158773904Y-124436190D01*
X160297714Y-124912380D02*
X159726285Y-124912380D01*
X160012000Y-124912380D02*
X160012000Y-123912380D01*
X159916761Y-124055238D01*
X159821523Y-124150476D01*
X159726285Y-124198095D01*
X150963333Y-103068380D02*
X150630000Y-102592190D01*
X150391904Y-103068380D02*
X150391904Y-102068380D01*
X150772857Y-102068380D01*
X150868095Y-102116000D01*
X150915714Y-102163619D01*
X150963333Y-102258857D01*
X150963333Y-102401714D01*
X150915714Y-102496952D01*
X150868095Y-102544571D01*
X150772857Y-102592190D01*
X150391904Y-102592190D01*
X151344285Y-102163619D02*
X151391904Y-102116000D01*
X151487142Y-102068380D01*
X151725238Y-102068380D01*
X151820476Y-102116000D01*
X151868095Y-102163619D01*
X151915714Y-102258857D01*
X151915714Y-102354095D01*
X151868095Y-102496952D01*
X151296666Y-103068380D01*
X151915714Y-103068380D01*
X133691333Y-118562380D02*
X133358000Y-118086190D01*
X133119904Y-118562380D02*
X133119904Y-117562380D01*
X133500857Y-117562380D01*
X133596095Y-117610000D01*
X133643714Y-117657619D01*
X133691333Y-117752857D01*
X133691333Y-117895714D01*
X133643714Y-117990952D01*
X133596095Y-118038571D01*
X133500857Y-118086190D01*
X133119904Y-118086190D01*
X134024666Y-117562380D02*
X134643714Y-117562380D01*
X134310380Y-117943333D01*
X134453238Y-117943333D01*
X134548476Y-117990952D01*
X134596095Y-118038571D01*
X134643714Y-118133809D01*
X134643714Y-118371904D01*
X134596095Y-118467142D01*
X134548476Y-118514761D01*
X134453238Y-118562380D01*
X134167523Y-118562380D01*
X134072285Y-118514761D01*
X134024666Y-118467142D01*
X129992380Y-124880666D02*
X129516190Y-125214000D01*
X129992380Y-125452095D02*
X128992380Y-125452095D01*
X128992380Y-125071142D01*
X129040000Y-124975904D01*
X129087619Y-124928285D01*
X129182857Y-124880666D01*
X129325714Y-124880666D01*
X129420952Y-124928285D01*
X129468571Y-124975904D01*
X129516190Y-125071142D01*
X129516190Y-125452095D01*
X129325714Y-124023523D02*
X129992380Y-124023523D01*
X128944761Y-124261619D02*
X129659047Y-124499714D01*
X129659047Y-123880666D01*
X166982380Y-103403666D02*
X166506190Y-103737000D01*
X166982380Y-103975095D02*
X165982380Y-103975095D01*
X165982380Y-103594142D01*
X166030000Y-103498904D01*
X166077619Y-103451285D01*
X166172857Y-103403666D01*
X166315714Y-103403666D01*
X166410952Y-103451285D01*
X166458571Y-103498904D01*
X166506190Y-103594142D01*
X166506190Y-103975095D01*
X165982380Y-102498904D02*
X165982380Y-102975095D01*
X166458571Y-103022714D01*
X166410952Y-102975095D01*
X166363333Y-102879857D01*
X166363333Y-102641761D01*
X166410952Y-102546523D01*
X166458571Y-102498904D01*
X166553809Y-102451285D01*
X166791904Y-102451285D01*
X166887142Y-102498904D01*
X166934761Y-102546523D01*
X166982380Y-102641761D01*
X166982380Y-102879857D01*
X166934761Y-102975095D01*
X166887142Y-103022714D01*
X162918380Y-89715666D02*
X162442190Y-90049000D01*
X162918380Y-90287095D02*
X161918380Y-90287095D01*
X161918380Y-89906142D01*
X161966000Y-89810904D01*
X162013619Y-89763285D01*
X162108857Y-89715666D01*
X162251714Y-89715666D01*
X162346952Y-89763285D01*
X162394571Y-89810904D01*
X162442190Y-89906142D01*
X162442190Y-90287095D01*
X161918380Y-88858523D02*
X161918380Y-89049000D01*
X161966000Y-89144238D01*
X162013619Y-89191857D01*
X162156476Y-89287095D01*
X162346952Y-89334714D01*
X162727904Y-89334714D01*
X162823142Y-89287095D01*
X162870761Y-89239476D01*
X162918380Y-89144238D01*
X162918380Y-88953761D01*
X162870761Y-88858523D01*
X162823142Y-88810904D01*
X162727904Y-88763285D01*
X162489809Y-88763285D01*
X162394571Y-88810904D01*
X162346952Y-88858523D01*
X162299333Y-88953761D01*
X162299333Y-89144238D01*
X162346952Y-89239476D01*
X162394571Y-89287095D01*
X162489809Y-89334714D01*
X155154380Y-92709904D02*
X155963904Y-92709904D01*
X156059142Y-92662285D01*
X156106761Y-92614666D01*
X156154380Y-92519428D01*
X156154380Y-92328952D01*
X156106761Y-92233714D01*
X156059142Y-92186095D01*
X155963904Y-92138476D01*
X155154380Y-92138476D01*
X155154380Y-91757523D02*
X155154380Y-91138476D01*
X155535333Y-91471809D01*
X155535333Y-91328952D01*
X155582952Y-91233714D01*
X155630571Y-91186095D01*
X155725809Y-91138476D01*
X155963904Y-91138476D01*
X156059142Y-91186095D01*
X156106761Y-91233714D01*
X156154380Y-91328952D01*
X156154380Y-91614666D01*
X156106761Y-91709904D01*
X156059142Y-91757523D01*
X164630380Y-115617523D02*
X165630380Y-114950857D01*
X164630380Y-114950857D02*
X165630380Y-115617523D01*
X165630380Y-114046095D02*
X165630380Y-114617523D01*
X165630380Y-114331809D02*
X164630380Y-114331809D01*
X164773238Y-114427047D01*
X164868476Y-114522285D01*
X164916095Y-114617523D01*
X150963333Y-98242380D02*
X150630000Y-97766190D01*
X150391904Y-98242380D02*
X150391904Y-97242380D01*
X150772857Y-97242380D01*
X150868095Y-97290000D01*
X150915714Y-97337619D01*
X150963333Y-97432857D01*
X150963333Y-97575714D01*
X150915714Y-97670952D01*
X150868095Y-97718571D01*
X150772857Y-97766190D01*
X150391904Y-97766190D01*
X151296666Y-97242380D02*
X151963333Y-97242380D01*
X151534761Y-98242380D01*
X157932380Y-89066666D02*
X157456190Y-89400000D01*
X157932380Y-89638095D02*
X156932380Y-89638095D01*
X156932380Y-89257142D01*
X156980000Y-89161904D01*
X157027619Y-89114285D01*
X157122857Y-89066666D01*
X157265714Y-89066666D01*
X157360952Y-89114285D01*
X157408571Y-89161904D01*
X157456190Y-89257142D01*
X157456190Y-89638095D01*
X157360952Y-88495238D02*
X157313333Y-88590476D01*
X157265714Y-88638095D01*
X157170476Y-88685714D01*
X157122857Y-88685714D01*
X157027619Y-88638095D01*
X156980000Y-88590476D01*
X156932380Y-88495238D01*
X156932380Y-88304761D01*
X156980000Y-88209523D01*
X157027619Y-88161904D01*
X157122857Y-88114285D01*
X157170476Y-88114285D01*
X157265714Y-88161904D01*
X157313333Y-88209523D01*
X157360952Y-88304761D01*
X157360952Y-88495238D01*
X157408571Y-88590476D01*
X157456190Y-88638095D01*
X157551428Y-88685714D01*
X157741904Y-88685714D01*
X157837142Y-88638095D01*
X157884761Y-88590476D01*
X157932380Y-88495238D01*
X157932380Y-88304761D01*
X157884761Y-88209523D01*
X157837142Y-88161904D01*
X157741904Y-88114285D01*
X157551428Y-88114285D01*
X157456190Y-88161904D01*
X157408571Y-88209523D01*
X157360952Y-88304761D01*
X166036666Y-124674380D02*
X166036666Y-125388666D01*
X165989047Y-125531523D01*
X165893809Y-125626761D01*
X165750952Y-125674380D01*
X165655714Y-125674380D01*
X167036666Y-125674380D02*
X166465238Y-125674380D01*
X166750952Y-125674380D02*
X166750952Y-124674380D01*
X166655714Y-124817238D01*
X166560476Y-124912476D01*
X166465238Y-124960095D01*
X143548380Y-97307666D02*
X143072190Y-97641000D01*
X143548380Y-97879095D02*
X142548380Y-97879095D01*
X142548380Y-97498142D01*
X142596000Y-97402904D01*
X142643619Y-97355285D01*
X142738857Y-97307666D01*
X142881714Y-97307666D01*
X142976952Y-97355285D01*
X143024571Y-97402904D01*
X143072190Y-97498142D01*
X143072190Y-97879095D01*
X143548380Y-96831476D02*
X143548380Y-96641000D01*
X143500761Y-96545761D01*
X143453142Y-96498142D01*
X143310285Y-96402904D01*
X143119809Y-96355285D01*
X142738857Y-96355285D01*
X142643619Y-96402904D01*
X142596000Y-96450523D01*
X142548380Y-96545761D01*
X142548380Y-96736238D01*
X142596000Y-96831476D01*
X142643619Y-96879095D01*
X142738857Y-96926714D01*
X142976952Y-96926714D01*
X143072190Y-96879095D01*
X143119809Y-96831476D01*
X143167428Y-96736238D01*
X143167428Y-96545761D01*
X143119809Y-96450523D01*
X143072190Y-96402904D01*
X142976952Y-96355285D01*
X169632380Y-87701333D02*
X170346666Y-87701333D01*
X170489523Y-87748952D01*
X170584761Y-87844190D01*
X170632380Y-87987047D01*
X170632380Y-88082285D01*
X170632380Y-87225142D02*
X169632380Y-87225142D01*
X169632380Y-86844190D01*
X169680000Y-86748952D01*
X169727619Y-86701333D01*
X169822857Y-86653714D01*
X169965714Y-86653714D01*
X170060952Y-86701333D01*
X170108571Y-86748952D01*
X170156190Y-86844190D01*
X170156190Y-87225142D01*
X170632380Y-85701333D02*
X170632380Y-86272761D01*
X170632380Y-85987047D02*
X169632380Y-85987047D01*
X169775238Y-86082285D01*
X169870476Y-86177523D01*
X169918095Y-86272761D01*
X120864380Y-82748333D02*
X121578666Y-82748333D01*
X121721523Y-82795952D01*
X121816761Y-82891190D01*
X121864380Y-83034047D01*
X121864380Y-83129285D01*
X121864380Y-82272142D02*
X120864380Y-82272142D01*
X120864380Y-81891190D01*
X120912000Y-81795952D01*
X120959619Y-81748333D01*
X121054857Y-81700714D01*
X121197714Y-81700714D01*
X121292952Y-81748333D01*
X121340571Y-81795952D01*
X121388190Y-81891190D01*
X121388190Y-82272142D01*
X120959619Y-81319761D02*
X120912000Y-81272142D01*
X120864380Y-81176904D01*
X120864380Y-80938809D01*
X120912000Y-80843571D01*
X120959619Y-80795952D01*
X121054857Y-80748333D01*
X121150095Y-80748333D01*
X121292952Y-80795952D01*
X121864380Y-81367380D01*
X121864380Y-80748333D01*
X183094380Y-82748333D02*
X183808666Y-82748333D01*
X183951523Y-82795952D01*
X184046761Y-82891190D01*
X184094380Y-83034047D01*
X184094380Y-83129285D01*
X184094380Y-82272142D02*
X183094380Y-82272142D01*
X183094380Y-81891190D01*
X183142000Y-81795952D01*
X183189619Y-81748333D01*
X183284857Y-81700714D01*
X183427714Y-81700714D01*
X183522952Y-81748333D01*
X183570571Y-81795952D01*
X183618190Y-81891190D01*
X183618190Y-82272142D01*
X183094380Y-81367380D02*
X183094380Y-80748333D01*
X183475333Y-81081666D01*
X183475333Y-80938809D01*
X183522952Y-80843571D01*
X183570571Y-80795952D01*
X183665809Y-80748333D01*
X183903904Y-80748333D01*
X183999142Y-80795952D01*
X184046761Y-80843571D01*
X184094380Y-80938809D01*
X184094380Y-81224523D01*
X184046761Y-81319761D01*
X183999142Y-81367380D01*
X172045333Y-99671142D02*
X171997714Y-99718761D01*
X171854857Y-99766380D01*
X171759619Y-99766380D01*
X171616761Y-99718761D01*
X171521523Y-99623523D01*
X171473904Y-99528285D01*
X171426285Y-99337809D01*
X171426285Y-99194952D01*
X171473904Y-99004476D01*
X171521523Y-98909238D01*
X171616761Y-98814000D01*
X171759619Y-98766380D01*
X171854857Y-98766380D01*
X171997714Y-98814000D01*
X172045333Y-98861619D01*
X172997714Y-99766380D02*
X172426285Y-99766380D01*
X172712000Y-99766380D02*
X172712000Y-98766380D01*
X172616761Y-98909238D01*
X172521523Y-99004476D01*
X172426285Y-99052095D01*
X134485142Y-107291142D02*
X134437523Y-107338761D01*
X134294666Y-107386380D01*
X134199428Y-107386380D01*
X134056571Y-107338761D01*
X133961333Y-107243523D01*
X133913714Y-107148285D01*
X133866095Y-106957809D01*
X133866095Y-106814952D01*
X133913714Y-106624476D01*
X133961333Y-106529238D01*
X134056571Y-106434000D01*
X134199428Y-106386380D01*
X134294666Y-106386380D01*
X134437523Y-106434000D01*
X134485142Y-106481619D01*
X135437523Y-107386380D02*
X134866095Y-107386380D01*
X135151809Y-107386380D02*
X135151809Y-106386380D01*
X135056571Y-106529238D01*
X134961333Y-106624476D01*
X134866095Y-106672095D01*
X135913714Y-107386380D02*
X136104190Y-107386380D01*
X136199428Y-107338761D01*
X136247047Y-107291142D01*
X136342285Y-107148285D01*
X136389904Y-106957809D01*
X136389904Y-106576857D01*
X136342285Y-106481619D01*
X136294666Y-106434000D01*
X136199428Y-106386380D01*
X136008952Y-106386380D01*
X135913714Y-106434000D01*
X135866095Y-106481619D01*
X135818476Y-106576857D01*
X135818476Y-106814952D01*
X135866095Y-106910190D01*
X135913714Y-106957809D01*
X136008952Y-107005428D01*
X136199428Y-107005428D01*
X136294666Y-106957809D01*
X136342285Y-106910190D01*
X136389904Y-106814952D01*
X134784904Y-110147380D02*
X134784904Y-109147380D01*
X135023000Y-109147380D01*
X135165857Y-109195000D01*
X135261095Y-109290238D01*
X135308714Y-109385476D01*
X135356333Y-109575952D01*
X135356333Y-109718809D01*
X135308714Y-109909285D01*
X135261095Y-110004523D01*
X135165857Y-110099761D01*
X135023000Y-110147380D01*
X134784904Y-110147380D01*
X135689666Y-109147380D02*
X136308714Y-109147380D01*
X135975380Y-109528333D01*
X136118238Y-109528333D01*
X136213476Y-109575952D01*
X136261095Y-109623571D01*
X136308714Y-109718809D01*
X136308714Y-109956904D01*
X136261095Y-110052142D01*
X136213476Y-110099761D01*
X136118238Y-110147380D01*
X135832523Y-110147380D01*
X135737285Y-110099761D01*
X135689666Y-110052142D01*
X134852142Y-115260380D02*
X134518809Y-114784190D01*
X134280714Y-115260380D02*
X134280714Y-114260380D01*
X134661666Y-114260380D01*
X134756904Y-114308000D01*
X134804523Y-114355619D01*
X134852142Y-114450857D01*
X134852142Y-114593714D01*
X134804523Y-114688952D01*
X134756904Y-114736571D01*
X134661666Y-114784190D01*
X134280714Y-114784190D01*
X135804523Y-115260380D02*
X135233095Y-115260380D01*
X135518809Y-115260380D02*
X135518809Y-114260380D01*
X135423571Y-114403238D01*
X135328333Y-114498476D01*
X135233095Y-114546095D01*
X136423571Y-114260380D02*
X136518809Y-114260380D01*
X136614047Y-114308000D01*
X136661666Y-114355619D01*
X136709285Y-114450857D01*
X136756904Y-114641333D01*
X136756904Y-114879428D01*
X136709285Y-115069904D01*
X136661666Y-115165142D01*
X136614047Y-115212761D01*
X136518809Y-115260380D01*
X136423571Y-115260380D01*
X136328333Y-115212761D01*
X136280714Y-115165142D01*
X136233095Y-115069904D01*
X136185476Y-114879428D01*
X136185476Y-114641333D01*
X136233095Y-114450857D01*
X136280714Y-114355619D01*
X136328333Y-114308000D01*
X136423571Y-114260380D01*
M02*
